<svg width="896" height="501" viewBox="0 0 896 501" fill="none" xmlns="http://www.w3.org/2000/svg">
<path d="M567.538 92.3294C567.538 92.3294 531.486 93.7651 503.922 89.4582C503.922 89.4582 448.079 82.2801 315.893 85.1513C318.338 71.9384 323.395 59.3637 330.758 48.184C353.848 13.4204 396.999 -1.79006 431.487 2.24404C433.568 2.4881 435.281 2.76087 436.442 2.96185C443.178 1.33948 450.052 0.377972 456.97 0.0906068C482.92 -0.986111 503.547 7.76402 515.283 14.0879C515.227 14.0879 567.538 31.3154 567.538 92.3294Z" fill="#CFB171"/>
<path d="M322.605 208.261H569.892C569.892 208.261 588.811 207.548 579.351 228.687C579.351 228.687 567.862 248.429 516.513 257.961C516.513 257.961 355.036 270.216 318.551 238.896C318.551 238.918 303.687 215.07 322.605 208.261Z" fill="#CFB171"/>
<path d="M320.389 187.847C318.112 193.704 316.719 201.51 327.305 198.298C328.959 197.8 330.408 196.801 331.442 195.445C334.136 191.915 340.713 185.312 346.837 194.671C347.98 196.456 349.79 197.735 351.882 198.238C353.975 198.741 356.185 198.428 358.046 197.365C359.004 196.8 359.874 196.102 360.627 195.293C361.262 194.607 362.016 194.037 362.854 193.608C366.185 191.902 374.289 188.911 381.651 195.107C382.442 195.795 383.1 196.616 383.595 197.531C384.776 199.603 389.295 203.637 405.1 191.625C405.507 191.314 405.883 190.968 406.225 190.589C407.964 188.62 415.418 181.899 422.815 200.032C422.815 200.032 423.522 203.368 443.683 187.729C444.75 186.889 446.017 186.325 447.367 186.092C451.073 185.491 458.038 186.369 463.872 198.581C464.198 199.239 464.436 199.936 464.58 200.653C464.912 202.325 467.366 206.255 485.045 192.44C485.045 192.44 495.985 183.758 511.139 197.276C511.573 197.669 511.958 198.112 512.285 198.595C513.699 200.667 519.752 206.359 536.562 193.103C536.962 192.771 537.321 192.393 537.629 191.978C538.485 190.872 542.077 189.035 556.249 200.018C557.253 200.819 558.443 201.369 559.714 201.62C562.635 202.152 566.637 201.082 563.504 189.339C563.173 188.115 562.553 186.983 561.693 186.036C560.834 185.088 559.758 184.35 558.554 183.882C556.79 183.268 555.232 182.193 554.05 180.773C553.247 179.67 552.171 178.783 550.922 178.196C549.673 177.608 548.291 177.34 546.907 177.416C539.324 177.847 531.729 176.783 524.575 174.287C523.667 173.97 522.711 173.807 521.747 173.804H510.078C508.194 173.801 506.365 174.428 504.895 175.579C501.635 178.162 494.931 182.583 487.873 182.093C487.873 182.093 482.28 183.309 475.145 177.195C474.106 176.296 472.854 175.664 471.503 175.358C467.316 174.446 457.904 172.754 450.104 173.977C448.756 174.178 447.478 174.7 446.384 175.496C443.322 177.755 433.931 182.521 415.206 175.158C414.038 174.696 412.777 174.507 411.521 174.605C403.343 175.377 395.342 177.412 387.817 180.635C386.56 181.159 385.189 181.368 383.829 181.243C379.678 180.836 370.336 179.675 363.413 176.553C363.413 176.553 358.767 173.963 352.692 178.19C352.18 178.543 351.624 178.83 351.038 179.047C348.485 180.021 341.845 182.348 337.333 182.141C336.762 182.122 336.191 182.161 335.629 182.259C333.269 182.636 330.875 182.77 328.486 182.659C326.749 182.581 325.032 183.041 323.578 183.972C322.124 184.904 321.008 186.26 320.389 187.847Z" fill="#00C26F"/>
<path d="M325.442 165.364C325.442 165.364 314.154 161.903 320.976 143.904C321.048 143.695 321.178 143.511 321.352 143.372C321.525 143.232 321.735 143.143 321.957 143.115C325.485 142.762 340.752 140.906 350.693 134.281C350.792 134.219 350.899 134.17 351.011 134.136C353.24 133.54 376.551 127.421 384.658 130.017H384.757C385.554 130.169 395.41 131.955 400.843 129.324C400.903 129.299 400.96 129.266 401.012 129.228C401.972 128.584 411.306 122.547 421.296 125.074C421.362 125.081 421.428 125.081 421.494 125.074L457.321 127.151H457.427C459.24 127.075 508.973 125.115 516.353 124.382C516.543 124.364 516.735 124.392 516.911 124.465C518.914 125.295 531.445 130.64 534.048 135.603C534.131 135.764 534.254 135.902 534.406 136.004C534.557 136.106 534.733 136.168 534.916 136.185C538.768 136.614 558.947 139.411 561.726 151.097C561.762 151.266 561.762 151.44 561.726 151.609L559.116 163.114C559.07 163.326 558.962 163.52 558.805 163.672C558.648 163.825 558.45 163.929 558.234 163.973C548.502 165.662 538.482 164.648 529.307 161.045H513.552C513.258 161.044 512.974 161.156 512.762 161.356C510.356 163.62 494.842 177.126 479.919 163.121C479.919 163.121 470.748 158.275 453.815 161.737C453.815 161.737 446.054 172.121 419.949 161.737C419.949 161.737 405.373 161.661 391.847 168.66C391.847 168.66 371.302 166.057 369.891 163.98C369.891 163.98 365.326 160.518 354.906 167.441C354.906 167.441 336.025 172.979 329.676 169.518C329.676 169.518 329.676 166.749 325.442 165.364Z" fill="#7F6000"/>
<path d="M316.322 105.693C325.772 103.837 354.73 98.346 359.866 99.7827C360.12 99.8524 360.384 99.8765 360.647 99.8538C365.542 99.4698 405.908 96.2621 410.349 93.6163C410.545 93.5017 410.758 93.42 410.98 93.3745C413.066 92.8908 422.615 91.191 442.904 94.8609C443.077 94.8967 443.253 94.9181 443.429 94.925L489.279 97.0444H508.703C508.991 97.0431 509.279 97.0742 509.561 97.1369C512.25 97.7201 527.041 100.878 530.071 100.039C530.492 99.9334 530.928 99.895 531.362 99.9249C536.207 100.138 558.32 101.554 561.491 109.427C561.613 109.741 561.687 110.072 561.711 110.409C561.916 112.67 561.846 120.842 549.58 118.382L531.539 114.207C531.27 114.141 530.993 114.108 530.716 114.107C527.368 114.029 504.922 113.623 497.373 116.141C497.171 116.211 496.962 116.256 496.749 116.276C493.748 116.504 470.685 118.168 462.527 115.608C462.378 115.56 462.226 115.522 462.073 115.494C459.235 114.968 431.567 109.996 414.775 112.692C414.775 112.692 370.94 120.245 361.335 119.157C360.979 119.111 360.619 119.111 360.264 119.157C354.836 120.074 313.974 126.504 313.335 112.976C313.329 112.788 313.298 112.601 313.243 112.421C313.032 111.489 312.957 110.53 313.023 109.576C313.054 108.651 313.397 107.762 313.996 107.057C314.595 106.352 315.415 105.871 316.322 105.693Z" fill="#E90048"/>
<path d="M374.285 38.6458L375.576 37.6955C375.716 37.6345 375.88 37.6021 376.047 37.6021C376.214 37.6021 376.377 37.6345 376.517 37.6955L376.796 38.4097C376.832 38.4968 376.895 38.5777 376.981 38.6469C377.066 38.7162 377.173 38.7721 377.293 38.8111C378.122 39.0708 379.665 39.4957 379.517 39.8558C379.316 40.328 378.715 40.446 377.773 40.446C376.886 40.5578 375.97 40.4751 375.157 40.21C373.893 39.7732 373.187 39.2006 374.285 38.6458Z" fill="#E8DDC9"/>
<path d="M388.748 21.2908L390.038 20.3405C390.179 20.2795 390.342 20.2471 390.509 20.2471C390.676 20.2471 390.839 20.2795 390.98 20.3405L391.259 21.0547C391.294 21.1418 391.357 21.2227 391.443 21.2919C391.529 21.3612 391.635 21.4172 391.756 21.4561C392.584 21.7158 394.127 22.1408 393.979 22.5008C393.779 22.973 393.177 23.0911 392.235 23.0911C391.349 23.2028 390.432 23.1202 389.62 22.855C388.356 22.4182 387.649 21.8456 388.748 21.2908Z" fill="#E8DDC9"/>
<path d="M411.617 21.2915L412.247 20.3393C412.313 20.2798 412.397 20.2471 412.483 20.2471C412.57 20.2471 412.653 20.2798 412.719 20.3393L412.864 21.0568C412.877 21.1374 412.905 21.2142 412.948 21.2824C412.99 21.3505 413.045 21.4085 413.11 21.4524C413.532 21.714 414.307 22.123 414.232 22.4985C414.131 22.9746 413.828 23.0886 413.356 23.0886C413.13 23.1462 412.895 23.155 412.666 23.1147C412.436 23.0744 412.217 22.9858 412.02 22.8539C411.421 22.4114 411.069 21.8414 411.617 21.2915Z" fill="#E8DDC9"/>
<path d="M434.756 21.2915L435.386 20.3393C435.453 20.2798 435.536 20.2471 435.623 20.2471C435.709 20.2471 435.793 20.2798 435.859 20.3393L436.004 21.0568C436.017 21.1374 436.045 21.2142 436.087 21.2824C436.13 21.3505 436.185 21.4085 436.25 21.4524C436.672 21.714 437.447 22.123 437.371 22.4985C437.27 22.9746 436.968 23.0886 436.495 23.0886C436.269 23.1462 436.035 23.155 435.805 23.1147C435.576 23.0744 435.356 22.9858 435.16 22.8539C434.561 22.4114 434.208 21.8414 434.756 21.2915Z" fill="#E8DDC9"/>
<path d="M345.361 47.3235L346.652 46.3732C346.792 46.3122 346.955 46.2798 347.122 46.2798C347.289 46.2798 347.453 46.3122 347.593 46.3732L347.872 47.0874C347.908 47.1745 347.971 47.2554 348.056 47.3246C348.142 47.3939 348.249 47.4499 348.369 47.4888C349.197 47.7485 350.741 48.1735 350.592 48.5335C350.392 49.0057 349.79 49.1238 348.849 49.1238C347.962 49.2356 347.046 49.1529 346.233 48.8877C344.969 48.4509 344.263 47.8784 345.361 47.3235Z" fill="#E8DDC9"/>
<path d="M371.393 61.7854L372.684 60.8352C372.824 60.7741 372.988 60.7417 373.155 60.7417C373.321 60.7417 373.485 60.7741 373.625 60.8352L373.904 61.5493C373.94 61.6364 374.003 61.7173 374.088 61.7866C374.174 61.8558 374.281 61.9118 374.401 61.9507C375.23 62.2104 376.773 62.6354 376.625 62.9954C376.424 63.4676 375.822 63.5857 374.881 63.5857C373.994 63.6975 373.078 63.6148 372.265 63.3496C371.001 62.9128 370.295 62.3403 371.393 61.7854Z" fill="#E8DDC9"/>
<path d="M492.877 32.8611L494.168 31.9108C494.308 31.8498 494.472 31.8174 494.638 31.8174C494.805 31.8174 494.969 31.8498 495.109 31.9108L495.388 32.625C495.424 32.7121 495.487 32.793 495.572 32.8622C495.658 32.9315 495.765 32.9875 495.885 33.0264C496.714 33.2861 498.257 33.7111 498.108 34.0711C497.908 34.5433 497.306 34.6614 496.365 34.6614C495.478 34.7732 494.562 34.6905 493.749 34.4253C492.485 33.9885 491.779 33.416 492.877 32.8611Z" fill="#E8DDC9"/>
<path d="M504.175 44.431L504.82 43.4807C504.891 43.4196 504.972 43.3872 505.056 43.3872C505.139 43.3872 505.221 43.4196 505.291 43.4807L505.431 44.1948C505.449 44.2819 505.48 44.3628 505.523 44.4321C505.566 44.5013 505.619 44.5573 505.679 44.5962C506.093 44.8559 506.865 45.2809 506.791 45.641C506.691 46.1132 506.39 46.2312 505.919 46.2312C505.476 46.343 505.017 46.2603 504.611 45.9951C503.979 45.5583 503.626 44.9858 504.175 44.431Z" fill="#E8DDC9"/>
<path d="M527.315 47.3235L527.96 46.3732C528.03 46.3122 528.112 46.2798 528.195 46.2798C528.279 46.2798 528.361 46.3122 528.431 46.3732L528.57 47.0874C528.588 47.1745 528.619 47.2554 528.662 47.3246C528.705 47.3939 528.759 47.4499 528.819 47.4888C529.255 47.7485 530.004 48.1735 529.93 48.5335C529.83 49.0057 529.529 49.1238 529.059 49.1238C528.615 49.2356 528.157 49.1529 527.751 48.8877C527.119 48.4509 526.766 47.8784 527.315 47.3235Z" fill="#E8DDC9"/>
<path d="M484.2 71.5069L485.49 69.6063C485.63 69.4843 485.794 69.4194 485.961 69.4194C486.128 69.4194 486.291 69.4843 486.432 69.6063L486.711 71.0347C486.746 71.2088 486.809 71.3707 486.895 71.5092C486.98 71.6476 487.087 71.7596 487.207 71.8375C488.036 72.3569 489.579 73.2068 489.431 73.9269C489.23 74.8713 488.629 75.1074 487.687 75.1074C486.8 75.331 485.884 75.1656 485.071 74.6353C483.807 73.7617 483.101 72.6166 484.2 71.5069Z" fill="#E8DDC9"/>
<path d="M527.315 67.5706L527.96 66.6203C528.03 66.5593 528.112 66.5269 528.195 66.5269C528.279 66.5269 528.361 66.5593 528.431 66.6203L528.57 67.3345C528.588 67.4216 528.619 67.5025 528.662 67.5717C528.705 67.641 528.759 67.6969 528.819 67.7359C529.255 67.9956 530.004 68.4206 529.93 68.7806C529.83 69.2528 529.529 69.3709 529.059 69.3709C528.615 69.4826 528.157 69.3999 527.751 69.1348C527.119 68.698 526.766 68.1254 527.315 67.5706Z" fill="#E8DDC9"/>
<path d="M469.737 51.2594L471.027 49.3588C471.168 49.2367 471.331 49.1719 471.498 49.1719C471.665 49.1719 471.829 49.2367 471.969 49.3588L472.248 50.7871C472.284 50.9613 472.347 51.1231 472.432 51.2616C472.518 51.4001 472.625 51.5121 472.745 51.5899C473.573 52.1094 475.117 52.9593 474.968 53.6794C474.768 54.6238 474.166 54.8599 473.225 54.8599C472.338 55.0834 471.422 54.918 470.609 54.3877C469.345 53.5141 468.639 52.369 469.737 51.2594Z" fill="#E8DDC9"/>
<path d="M449.49 61.7854L450.78 60.8352C450.921 60.7741 451.084 60.7417 451.251 60.7417C451.418 60.7417 451.582 60.7741 451.722 60.8352L452.001 61.5493C452.037 61.6364 452.099 61.7173 452.185 61.7866C452.271 61.8558 452.378 61.9118 452.498 61.9507C453.326 62.2104 454.869 62.6354 454.721 62.9954C454.521 63.4676 453.919 63.5857 452.978 63.5857C452.091 63.6975 451.174 63.6148 450.362 63.3496C449.098 62.9128 448.391 62.3403 449.49 61.7854Z" fill="#E8DDC9"/>
<path d="M403.21 41.5384L404.501 40.5881C404.641 40.5271 404.805 40.4946 404.971 40.4946C405.138 40.4946 405.302 40.5271 405.442 40.5881L405.721 41.3023C405.757 41.3893 405.82 41.4702 405.905 41.5395C405.991 41.6087 406.098 41.6647 406.218 41.7037C407.047 41.9634 408.59 42.3883 408.441 42.7484C408.241 43.2206 407.639 43.3386 406.698 43.3386C405.811 43.4504 404.895 43.3677 404.082 43.1025C402.818 42.6658 402.112 42.0932 403.21 41.5384Z" fill="#E8DDC9"/>
<path d="M463.681 29.9685L464.326 29.0183C464.396 28.9572 464.478 28.9248 464.561 28.9248C464.645 28.9248 464.726 28.9572 464.797 29.0183L464.936 29.7324C464.954 29.8195 464.985 29.9004 465.028 29.9697C465.071 30.0389 465.124 30.0949 465.185 30.1338C465.599 30.3935 466.37 30.8185 466.296 31.1786C466.196 31.6508 465.895 31.7688 465.424 31.7688C464.981 31.8806 464.523 31.7979 464.117 31.5327C463.484 31.0959 463.131 30.5234 463.681 29.9685Z" fill="#E8DDC9"/>
<path d="M435.028 41.5384L436.318 40.5881C436.458 40.5271 436.622 40.4946 436.789 40.4946C436.956 40.4946 437.119 40.5271 437.26 40.5881L437.539 41.3023C437.574 41.3893 437.637 41.4702 437.723 41.5395C437.809 41.6087 437.915 41.6647 438.036 41.7037C438.864 41.9634 440.407 42.3883 440.259 42.7484C440.058 43.2206 439.457 43.3386 438.515 43.3386C437.628 43.4504 436.712 43.3677 435.9 43.1025C434.635 42.6658 433.929 42.0932 435.028 41.5384Z" fill="#E8DDC9"/>
<path d="M417.673 58.8934L418.963 57.9431C419.104 57.882 419.267 57.8496 419.434 57.8496C419.601 57.8496 419.764 57.882 419.905 57.9431L420.184 58.6572C420.219 58.7443 420.282 58.8252 420.368 58.8945C420.454 58.9637 420.56 59.0197 420.681 59.0586C421.509 59.3184 423.052 59.7433 422.904 60.1034C422.703 60.5756 422.102 60.6936 421.16 60.6936C420.273 60.8054 419.357 60.7227 418.545 60.4575C417.28 60.0207 416.574 59.4482 417.673 58.8934Z" fill="#E8DDC9"/>
<path d="M173.736 187.628V176.761L221.676 100.909H229.56V117.741H224.233L188.011 175.057V175.909H252.571V187.628H173.736ZM225.085 210V184.325V179.265V100.909H237.656V210H225.085Z" fill="black"/>
<path d="M641.736 175.628V164.761L689.676 88.9091H697.56V105.741H692.233L656.011 163.057V163.909H720.571V175.628H641.736ZM693.085 198V172.325V167.265V88.9091H705.656V198H693.085Z" fill="black"/>
<path d="M99.7159 355.909V465H86.9318L27.4858 379.347H26.4205V465H13.2102V355.909H25.9943L85.6534 441.776H86.7188V355.909H99.7159ZM218.195 410.455C218.195 421.96 216.118 431.903 211.963 440.284C207.808 448.665 202.108 455.128 194.864 459.673C187.62 464.219 179.346 466.491 170.042 466.491C160.738 466.491 152.464 464.219 145.219 459.673C137.975 455.128 132.275 448.665 128.121 440.284C123.966 431.903 121.888 421.96 121.888 410.455C121.888 398.949 123.966 389.006 128.121 380.625C132.275 372.244 137.975 365.781 145.219 361.236C152.464 356.69 160.738 354.418 170.042 354.418C179.346 354.418 187.62 356.69 194.864 361.236C202.108 365.781 207.808 372.244 211.963 380.625C216.118 389.006 218.195 398.949 218.195 410.455ZM205.411 410.455C205.411 401.009 203.831 393.036 200.67 386.538C197.545 380.039 193.302 375.121 187.939 371.783C182.613 368.445 176.647 366.776 170.042 366.776C163.437 366.776 157.453 368.445 152.091 371.783C146.764 375.121 142.52 380.039 139.36 386.538C136.235 393.036 134.672 401.009 134.672 410.455C134.672 419.901 136.235 427.873 139.36 434.371C142.52 440.87 146.764 445.788 152.091 449.126C157.453 452.464 163.437 454.134 170.042 454.134C176.647 454.134 182.613 452.464 187.939 449.126C193.302 445.788 197.545 440.87 200.67 434.371C203.831 427.873 205.411 419.901 205.411 410.455ZM229.901 367.628V355.909H311.719V367.628H277.415V465H264.205V367.628H229.901ZM374.294 465V355.909H439.706V367.628H387.504V404.489H434.806V416.207H387.504V465H374.294ZM554.377 410.455C554.377 421.96 552.299 431.903 548.145 440.284C543.99 448.665 538.29 455.128 531.046 459.673C523.801 464.219 515.527 466.491 506.223 466.491C496.919 466.491 488.645 464.219 481.401 459.673C474.157 455.128 468.457 448.665 464.302 440.284C460.147 431.903 458.07 421.96 458.07 410.455C458.07 398.949 460.147 389.006 464.302 380.625C468.457 372.244 474.157 365.781 481.401 361.236C488.645 356.69 496.919 354.418 506.223 354.418C515.527 354.418 523.801 356.69 531.046 361.236C538.29 365.781 543.99 372.244 548.145 380.625C552.299 389.006 554.377 398.949 554.377 410.455ZM541.593 410.455C541.593 401.009 540.012 393.036 536.852 386.538C533.727 380.039 529.483 375.121 524.121 371.783C518.794 368.445 512.828 366.776 506.223 366.776C499.618 366.776 493.635 368.445 488.272 371.783C482.946 375.121 478.702 380.039 475.542 386.538C472.417 393.036 470.854 401.009 470.854 410.455C470.854 419.901 472.417 427.873 475.542 434.371C478.702 440.87 482.946 445.788 488.272 449.126C493.635 452.464 499.618 454.134 506.223 454.134C512.828 454.134 518.794 452.464 524.121 449.126C529.483 445.788 533.727 440.87 536.852 434.371C540.012 427.873 541.593 419.901 541.593 410.455ZM648.18 355.909H661.39V428.139C661.39 435.597 659.632 442.255 656.117 448.114C652.637 453.938 647.718 458.537 641.362 461.911C635.005 465.249 627.548 466.918 618.99 466.918C610.431 466.918 602.974 465.249 596.618 461.911C590.261 458.537 585.325 453.938 581.809 448.114C578.329 442.255 576.589 435.597 576.589 428.139V355.909H589.799V427.074C589.799 432.401 590.971 437.141 593.315 441.296C595.659 445.415 598.997 448.665 603.329 451.044C607.697 453.388 612.917 454.56 618.99 454.56C625.062 454.56 630.282 453.388 634.65 451.044C639.018 448.665 642.356 445.415 644.664 441.296C647.008 437.141 648.18 432.401 648.18 427.074V355.909ZM774.276 355.909V465H761.492L702.046 379.347H700.981V465H687.771V355.909H700.555L760.214 441.776H761.279V355.909H774.276ZM834.375 465H800.71V355.909H835.866C846.449 355.909 855.504 358.093 863.033 362.461C870.561 366.793 876.332 373.026 880.344 381.158C884.357 389.254 886.364 398.949 886.364 410.241C886.364 421.605 884.339 431.388 880.291 439.592C876.243 447.759 870.348 454.045 862.607 458.448C854.865 462.816 845.455 465 834.375 465ZM813.92 453.281H833.523C842.543 453.281 850.018 451.541 855.948 448.061C861.879 444.581 866.3 439.627 869.212 433.2C872.124 426.772 873.58 419.119 873.58 410.241C873.58 401.435 872.141 393.853 869.265 387.496C866.388 381.104 862.092 376.204 856.374 372.795C850.657 369.35 843.537 367.628 835.014 367.628H813.92V453.281Z" fill="black"/>
</svg>
