<svg width="286" height="120" viewBox="0 0 286 120" fill="none" xmlns="http://www.w3.org/2000/svg">
<g clip-path="url(#clip0_34_218)">
<path d="M215.512 51.61V29.2642C215.512 27.0362 217.321 25.2236 219.545 25.2236H234.134C236.358 25.2236 238.167 27.0362 238.167 29.2642V51.61C238.167 53.8381 236.358 55.6506 234.134 55.6506H219.545C217.321 55.6506 215.512 53.8381 215.512 51.61Z" fill="#6C63FF"/>
<path d="M222.983 34.883H230.695V32.9511H222.983V34.883Z" fill="#3F3D56"/>
<path d="M224.911 31.5022H228.767V25.2236H224.911V31.5022Z" fill="#3F3D56"/>
<path d="M224.911 55.6506H228.767V49.372H224.911V55.6506Z" fill="#3F3D56"/>
<path d="M205.149 52.5131H182.848C180.625 52.5131 178.816 50.7006 178.816 48.4725V33.8542C178.816 31.6262 180.625 29.8136 182.848 29.8136H205.149C207.373 29.8136 209.182 31.6262 209.182 33.8542V48.4725C209.182 50.7006 207.373 52.5131 205.149 52.5131Z" fill="#6C63FF"/>
<path d="M198.337 32.9529H190.625V34.8848H198.337V32.9529Z" fill="#3F3D56"/>
<path d="M185.082 43.0953V39.2315H178.816V43.0953H185.082Z" fill="#3F3D56"/>
<path d="M209.182 43.0953V39.2315H202.916V43.0953H209.182Z" fill="#3F3D56"/>
<path d="M24.2475 94.2989L20.5246 72.5382C18.8703 62.8688 26.0127 53.921 35.7904 53.4135L88.8644 50.6592L101.531 29.7407C103.21 26.9675 106.213 25.274 109.45 25.274H147.585C150.583 25.274 153.116 27.5013 153.505 30.4796L154.473 47.2176L249.548 47.5028L261.508 86.9975L250.407 86.4551L250.976 98.4347L236.459 99.0051L231.619 85.2937C230.708 82.7119 226.715 79.8007 222.564 77.3651C213.26 71.9048 201.306 73.6573 194.264 81.8401C192.603 83.7704 191.442 85.7817 191.117 87.6676L188.921 100.431L82.4597 98.7199L68.5069 79.163C64.3846 74.668 44.925 73.017 43.1725 79.163L32.6449 94.7267L24.2475 94.2989H24.2475Z" fill="#E6E6E6"/>
<path d="M139.959 38.0026L143.091 52.7984L103.24 53.654L111.656 35.5464C112.42 33.9037 114.096 32.8838 115.903 32.9625L135 33.7945C137.417 33.8998 139.457 35.6307 139.959 38.0026V38.0026Z" fill="white"/>
<path d="M97.8311 52.5131L105.801 31.9768L103.715 29.8859L90.7147 49.6609L93.3562 53.654L97.8311 52.5131Z" fill="white"/>
<path d="M211.978 119.256C222.354 119.256 230.765 110.828 230.765 100.431C230.765 90.0345 222.354 81.6063 211.978 81.6063C201.602 81.6063 193.191 90.0345 193.191 100.431C193.191 110.828 201.602 119.256 211.978 119.256Z" fill="#3F3D56"/>
<path d="M199.026 100.431C199.026 93.2753 204.837 87.4534 211.978 87.4534C219.12 87.4534 224.93 93.2753 224.93 100.431C224.93 107.587 219.12 113.409 211.978 113.409C204.837 113.409 199.026 107.587 199.026 100.431ZM199.311 100.431C199.311 107.43 204.993 113.124 211.978 113.124C218.963 113.124 224.645 107.43 224.645 100.431C224.645 93.4326 218.963 87.7387 211.978 87.7387C204.993 87.7387 199.311 93.4326 199.311 100.431Z" fill="white"/>
<path d="M200.877 100.431C200.877 106.575 205.847 111.555 211.978 111.555C218.109 111.555 223.08 106.575 223.08 100.431C223.08 94.2877 218.109 89.3074 211.978 89.3074C205.847 89.3074 200.877 94.2877 200.877 100.431ZM219.195 97.7675L217.228 99.052L216.472 97.8902L219.195 97.7675ZM216.2 104.3L216.724 103.017L218.373 105.191L216.2 104.3ZM211.163 108.703L212.547 106.35V108.703H211.163ZM211.163 95.0827L212.547 92.7301V95.0827H211.163ZM205.014 105.191L206.663 103.017L207.187 104.3L205.014 105.191ZM204.192 97.7675L206.915 97.8902L206.159 99.052L204.192 97.7675Z" fill="#E6E6E6"/>
<path d="M54.2787 119.256C64.6547 119.256 73.066 110.828 73.066 100.431C73.066 90.0345 64.6547 81.6063 54.2787 81.6063C43.9028 81.6063 35.4915 90.0345 35.4915 100.431C35.4915 110.828 43.9028 119.256 54.2787 119.256Z" fill="#3F3D56"/>
<path d="M41.3269 100.431C41.3269 93.2753 47.1371 87.4534 54.2787 87.4534C61.4204 87.4534 67.2306 93.2753 67.2306 100.431C67.2306 107.587 61.4204 113.409 54.2787 113.409C47.1371 113.409 41.3269 107.587 41.3269 100.431ZM41.6116 100.431C41.6116 107.43 47.294 113.124 54.2787 113.124C61.2635 113.124 66.9459 107.43 66.9459 100.431C66.9459 93.4326 61.2635 87.7387 54.2787 87.7387C47.294 87.7387 41.6116 93.4326 41.6116 100.431Z" fill="white"/>
<path d="M43.1772 100.431C43.1772 106.575 48.1475 111.555 54.2788 111.555C60.41 111.555 65.3803 106.575 65.3803 100.431C65.3803 94.2877 60.41 89.3074 54.2788 89.3074C48.1475 89.3074 43.1772 94.2877 43.1772 100.431ZM61.4952 97.7675L59.5282 99.052L58.7725 97.8902L61.4952 97.7675ZM58.5007 104.3L59.0245 103.017L60.6738 105.191L58.5007 104.3ZM53.464 108.703L54.8481 106.35V108.703H53.464ZM53.464 95.0827L54.8481 92.7301V95.0827H53.464ZM47.3144 105.191L48.9637 103.017L49.4876 104.3L47.3144 105.191ZM46.4931 97.7675L49.2157 97.8902L48.46 99.052L46.4931 97.7675Z" fill="#E6E6E6"/>
<path d="M132.702 60.3569H143.518V58.0751H132.702V60.3569Z" fill="#3F3D56"/>
<path d="M285.165 105.15C285.064 104.841 284.3 104.977 284.227 104.701C284.153 104.425 284.887 104.194 285.449 103.418C285.55 103.278 286.19 102.395 285.944 102.024C285.48 101.321 282.247 103.073 281.471 102.09C281.301 101.874 281.231 101.503 280.724 100.814C280.522 100.54 280.392 100.407 280.238 100.411C280.018 100.417 279.94 100.692 279.595 101.19C279.077 101.938 278.891 101.844 278.55 102.457C278.297 102.911 278.267 103.202 278.084 103.219C277.826 103.243 277.719 102.677 277.404 102.655C277.082 102.633 276.76 103.192 276.6 103.629C276.3 104.449 276.486 105.076 276.527 105.701C276.572 106.379 276.467 107.373 275.731 108.649L268.787 119.733C270.279 117.473 274.511 111.311 276.217 109.051C276.709 108.399 277.238 107.744 278.052 107.62C278.836 107.502 279.79 107.89 281.122 107.868C281.277 107.865 281.71 107.852 281.815 107.622C281.902 107.432 281.686 107.267 281.765 107.089C281.87 106.849 282.344 106.952 282.991 106.793C283.447 106.68 283.756 106.495 284.023 106.336C284.103 106.288 285.299 105.562 285.165 105.15H285.165Z" fill="#F2F2F2"/>
<path d="M266.979 107.738C266.799 107.699 266.645 108.114 266.488 108.07C266.332 108.026 266.431 107.599 266.213 107.098C266.173 107.008 265.926 106.439 265.673 106.453C265.194 106.478 265.12 108.574 264.414 108.671C264.26 108.693 264.058 108.621 263.574 108.671C263.381 108.691 263.279 108.717 263.236 108.794C263.176 108.903 263.288 109.022 263.433 109.335C263.649 109.805 263.55 109.87 263.751 110.214C263.901 110.47 264.035 110.568 263.99 110.663C263.928 110.797 263.62 110.686 263.518 110.835C263.414 110.987 263.595 111.307 263.763 111.511C264.078 111.895 264.439 111.985 264.757 112.145C265.102 112.319 265.558 112.657 265.971 113.387L269.397 120C268.72 118.615 266.923 114.755 266.308 113.264C266.131 112.834 265.962 112.385 266.137 111.949C266.305 111.529 266.771 111.172 267.144 110.511C267.187 110.433 267.306 110.217 267.224 110.099C267.156 110.001 267.012 110.06 266.948 109.97C266.861 109.849 267.048 109.645 267.157 109.281C267.233 109.025 267.232 108.819 267.23 108.642C267.23 108.589 267.22 107.791 266.979 107.738V107.738V107.738Z" fill="#F2F2F2"/>
<path d="M270.397 109.352L270.505 108.355L270.571 108.293C270.877 108.003 271.068 107.697 271.139 107.381C271.151 107.331 271.16 107.28 271.169 107.229C271.204 107.024 271.249 106.769 271.445 106.505C271.555 106.357 271.846 106.024 272.146 106.141C272.227 106.171 272.282 106.224 272.32 106.279C272.33 106.27 272.339 106.26 272.35 106.25C272.48 106.123 272.57 106.077 272.658 106.033C272.725 105.998 272.794 105.963 272.911 105.869C272.963 105.828 273.004 105.791 273.039 105.76C273.144 105.665 273.279 105.555 273.463 105.599C273.659 105.652 273.726 105.839 273.77 105.963C273.85 106.184 273.874 106.336 273.89 106.436C273.896 106.473 273.903 106.514 273.908 106.528C273.951 106.636 274.488 106.664 274.69 106.676C275.145 106.7 275.538 106.722 275.633 107.034C275.701 107.257 275.559 107.5 275.2 107.776C275.088 107.862 274.977 107.921 274.879 107.965C274.939 108.022 274.987 108.099 274.99 108.204C274.996 108.453 274.742 108.644 274.233 108.773C274.106 108.805 273.936 108.848 273.714 108.837C273.609 108.832 273.517 108.816 273.439 108.801C273.427 108.845 273.406 108.892 273.367 108.936C273.254 109.066 273.071 109.099 272.823 109.026C272.549 108.949 272.332 108.845 272.141 108.754C271.974 108.674 271.831 108.606 271.71 108.587C271.485 108.556 271.276 108.695 271.025 108.88L270.397 109.352L270.397 109.352Z" fill="#F2F2F2"/>
<path d="M272.19 103.677L271.2 103.825L271.123 103.777C270.766 103.554 270.422 103.447 270.099 103.458C270.048 103.459 269.997 103.463 269.944 103.468C269.738 103.485 269.481 103.507 269.175 103.383C269.005 103.314 268.61 103.116 268.646 102.796C268.655 102.71 268.692 102.644 268.736 102.593C268.724 102.586 268.712 102.579 268.7 102.571C268.545 102.478 268.477 102.402 268.412 102.328C268.362 102.272 268.31 102.214 268.19 102.124C268.137 102.084 268.091 102.054 268.052 102.028C267.934 101.95 267.794 101.847 267.789 101.657C267.791 101.454 267.955 101.342 268.063 101.267C268.256 101.134 268.396 101.072 268.489 101.031C268.523 101.016 268.561 100.999 268.573 100.991C268.667 100.922 268.557 100.394 268.517 100.195C268.426 99.748 268.347 99.3614 268.624 99.1907C268.822 99.0683 269.093 99.1437 269.45 99.4215C269.561 99.5081 269.647 99.6014 269.714 99.6846C269.754 99.6121 269.816 99.5463 269.917 99.5168C270.156 99.4474 270.405 99.6458 270.658 100.106C270.721 100.221 270.806 100.375 270.852 100.593C270.873 100.696 270.881 100.789 270.886 100.869C270.932 100.869 270.983 100.878 271.035 100.904C271.189 100.981 271.267 101.149 271.26 101.409C271.255 101.694 271.21 101.93 271.17 102.138C271.135 102.32 271.106 102.477 271.119 102.599C271.145 102.824 271.333 102.992 271.575 103.188L272.19 103.677H272.19L272.19 103.677Z" fill="#F2F2F2"/>
<path d="M272.323 100.701L272.431 99.7047L272.497 99.6421C272.802 99.3527 272.993 99.0461 273.065 98.7306C273.077 98.6804 273.085 98.6297 273.094 98.578C273.13 98.3732 273.175 98.1185 273.371 97.854C273.481 97.7067 273.772 97.3736 274.072 97.4899C274.153 97.5204 274.208 97.573 274.246 97.6288C274.255 97.6191 274.265 97.6094 274.276 97.5989C274.405 97.4727 274.496 97.4265 274.583 97.382C274.65 97.3477 274.72 97.3124 274.837 97.2184C274.888 97.1772 274.93 97.1401 274.964 97.109C275.07 97.0147 275.204 96.9044 275.389 96.9481C275.584 97.0017 275.651 97.1886 275.696 97.3124C275.775 97.5331 275.8 97.6849 275.816 97.7856C275.822 97.8223 275.829 97.8638 275.834 97.8772C275.877 97.9853 276.414 98.0133 276.616 98.025C277.071 98.0497 277.464 98.0711 277.558 98.3829C277.626 98.6059 277.485 98.8492 277.126 99.1252C277.014 99.2111 276.902 99.2704 276.805 99.3146C276.865 99.3714 276.913 99.4485 276.915 99.5537C276.922 99.8024 276.667 99.9933 276.159 100.122C276.032 100.154 275.862 100.197 275.64 100.186C275.535 100.181 275.443 100.165 275.365 100.15C275.353 100.195 275.332 100.241 275.293 100.285C275.18 100.415 274.997 100.448 274.749 100.375C274.475 100.298 274.258 100.194 274.067 100.103C273.9 100.023 273.756 99.9551 273.635 99.9365C273.411 99.9051 273.201 100.044 272.951 100.229L272.323 100.701L272.323 100.701Z" fill="#F2F2F2"/>
<path d="M269.116 119.79L268.941 119.617L268.944 119.371L268.941 119.617L268.698 119.591C268.699 119.568 268.697 119.514 268.696 119.431C268.686 118.972 268.657 117.578 268.851 115.434C268.986 113.938 269.213 112.42 269.523 110.92C269.834 109.418 270.158 108.3 270.417 107.402C270.613 106.725 270.81 106.082 271.003 105.456C271.518 103.784 272.004 102.204 272.305 100.402C272.373 99.9997 272.513 99.1624 272.226 98.1741C272.06 97.6009 271.775 97.0614 271.38 96.571L271.763 96.2614C272.199 96.8033 272.514 97.4008 272.698 98.0372C273.016 99.1329 272.863 100.045 272.79 100.484C272.484 102.317 271.993 103.912 271.473 105.601C271.281 106.225 271.084 106.864 270.889 107.539C270.632 108.429 270.312 109.537 270.005 111.02C269.697 112.502 269.474 114.002 269.34 115.479C269.149 117.595 269.178 118.969 269.187 119.42C269.192 119.661 269.193 119.712 269.116 119.79V119.79Z" fill="#F2F2F2"/>
<path d="M270.331 97.138C270.311 97.1336 270.291 97.1287 270.271 97.1228C269.868 97.0095 269.544 96.68 269.309 96.1436C269.199 95.8914 269.173 95.6259 269.121 95.0966C269.113 95.0149 269.077 94.6019 269.121 94.0546C269.15 93.6969 269.188 93.5533 269.285 93.4405C269.393 93.3148 269.539 93.2428 269.692 93.2067C269.696 93.1593 269.712 93.113 269.743 93.0692C269.869 92.887 270.08 92.9619 270.195 93.0008C270.253 93.0216 270.325 93.0481 270.406 93.0617C270.533 93.0838 270.609 93.0614 270.724 93.028C270.835 92.9959 270.972 92.9561 271.161 92.9595C271.534 92.9646 271.811 93.1328 271.902 93.1882C272.382 93.4773 272.548 93.9385 272.74 94.4726C272.778 94.5797 272.905 94.9666 272.934 95.4649C272.955 95.8244 272.908 95.9715 272.854 96.0767C272.744 96.293 272.576 96.3933 272.157 96.6043C271.72 96.8253 271.501 96.936 271.321 96.9928C270.902 97.1245 270.64 97.2071 270.331 97.138V97.138V97.138Z" fill="#F2F2F2"/>
<path d="M0 119.362C0 119.55 0.263386 119.701 0.591376 119.701H282.905C283.233 119.701 283.496 119.55 283.496 119.362C283.496 119.174 283.233 119.022 282.905 119.022H0.591376C0.263386 119.022 0 119.174 0 119.362Z" fill="#CCCCCC"/>
<path d="M143.262 115.507L147.214 115.507L149.094 100.231L143.261 100.232L143.262 115.507Z" fill="#FFB6B6"/>
<path d="M156.803 115.418C156.926 115.625 156.991 116.296 156.991 116.537C156.991 117.279 156.391 117.881 155.65 117.881L143.41 117.881C142.904 117.881 142.495 117.471 142.495 116.964V116.454C142.495 116.454 141.889 114.919 143.136 113.027C143.136 113.027 144.685 114.508 147 112.189L147.683 110.949L152.625 114.571L155.364 114.909C155.963 114.983 156.495 114.897 156.803 115.418H156.803L156.803 115.418Z" fill="#2F2E41"/>
<path d="M125.504 115.507L129.457 115.507L131.337 100.231L125.503 100.232L125.504 115.507Z" fill="#FFB6B6"/>
<path d="M139.046 115.418C139.169 115.625 139.234 116.296 139.234 116.537C139.234 117.279 138.633 117.881 137.892 117.881L125.652 117.881C125.147 117.881 124.737 117.471 124.737 116.964V116.454C124.737 116.454 124.131 114.919 125.378 113.027C125.378 113.027 126.927 114.508 129.243 112.189L129.925 110.949L134.867 114.571L137.607 114.909C138.206 114.983 138.737 114.897 139.045 115.418H139.046L139.046 115.418Z" fill="#2F2E41"/>
<path d="M142.636 11.2024L143.386 18.2195L134.633 17.4676L136.133 10.9518L142.636 11.2024Z" fill="#FFB6B6"/>
<path opacity="0.1" d="M142.636 11.2024L143.386 18.2195L134.633 17.4676L136.133 10.9518L142.636 11.2024Z" fill="black"/>
<path d="M139.51 12.0796C142.687 12.0796 145.262 9.49895 145.262 6.31558C145.262 3.13222 142.687 0.55159 139.51 0.55159C136.333 0.55159 133.757 3.13222 133.757 6.31558C133.757 9.49895 136.333 12.0796 139.51 12.0796Z" fill="#FFB6B6"/>
<path d="M143.261 15.3375L152.89 20.9762L149.735 36.2633L151.89 56.8132L150.389 107.185L141.135 106.183L139.885 63.329L132.632 107.687H123.646L125.128 59.8205L129.63 39.5212L126.879 17.4677L135.258 14.8363L143.261 15.3375Z" fill="#2F2E41"/>
<path d="M143.636 7.94453C143.636 7.94453 144.137 6.19027 145.262 6.31558C146.388 6.44089 146.638 5.43845 146.388 4.93723C146.137 4.43602 145.637 1.92993 145.637 1.92993C145.637 1.92993 145.887 0.175673 144.387 -0.0749331C142.886 -0.325542 142.386 -0.576151 142.136 -1.07737C141.886 -1.57858 138.134 -2.0798 136.884 -1.32798C135.633 -0.576151 134.633 0.866328 133.757 1.27283C132.882 1.67933 132.131 2.43115 132.632 3.68419C133.132 4.93723 133.857 7.38792 133.857 7.38792C133.857 7.38792 135.133 6.9421 135.383 7.69393C135.633 8.44575 134.633 7.44332 135.883 5.43845C137.134 3.43359 137.134 1.42872 139.134 2.18054C141.135 2.93237 143.386 2.68176 143.136 4.18541C142.886 5.68906 143.636 7.94454 143.636 7.94454L143.636 7.94453Z" fill="#2F2E41"/>
<path d="M147.925 52.3176C146.721 53.5948 146.403 55.2525 147.214 56.0201C148.025 56.7876 149.659 56.3743 150.863 55.0964C151.351 54.5926 151.711 53.979 151.914 53.307L156.947 47.8307L154.332 45.5191L149.648 51.1631C148.99 51.4045 148.399 51.8004 147.925 52.3176Z" fill="#FFB6B6"/>
<path d="M152.789 20.8509L161.264 35.3185L162.519 41.9233L154.358 52.3022L150.906 47.899L154.986 41.9233L148.395 30.2863L152.789 20.8509Z" fill="#2F2E41"/>
<path d="M128.961 50.9704V33.9123C128.961 31.3124 131.072 29.1973 133.667 29.1973H159.69C162.284 29.1973 164.395 31.3124 164.395 33.9123V50.9704C164.395 53.5704 162.284 55.6854 159.69 55.6854H133.667C131.072 55.6854 128.961 53.5704 128.961 50.9704Z" fill="#6C63FF"/>
<path d="M141.616 39.9637H150.615V37.7094H141.616V39.9637Z" fill="#3F3D56"/>
<path d="M149.878 55.5343V51.0257H142.566V55.5343H149.878Z" fill="#3F3D56"/>
<path d="M150.221 33.8571V29.3485H142.909V33.8571H150.221Z" fill="#3F3D56"/>
<path d="M131.595 49.0597C132.798 50.3369 133.117 51.9946 132.305 52.7621C131.494 53.5297 129.861 53.1164 128.657 51.8385C128.169 51.3347 127.808 50.7211 127.605 50.049L122.573 44.5728L125.188 42.2612L129.871 47.9052C130.53 48.1466 131.12 48.5425 131.595 49.0597Z" fill="#FFB6B6"/>
<path d="M126.73 17.593L118.256 32.0606L117 38.6654L125.161 49.0443L128.614 44.6411L124.533 38.6654L131.125 27.0284L126.73 17.593Z" fill="#2F2E41"/>
<path d="M21.5387 88.2903C25.7834 88.2903 29.2244 85.2893 29.2244 81.5874C29.2244 77.8856 25.7834 74.8846 21.5387 74.8846C17.294 74.8846 13.853 77.8856 13.853 81.5874C13.853 85.2893 17.294 88.2903 21.5387 88.2903Z" fill="#E6E6E6"/>
</g>
<defs>
<clipPath id="clip0_34_218">
<rect width="286" height="120" fill="white"/>
</clipPath>
</defs>
</svg>
