<svg width="612" height="514" viewBox="0 0 612 514" fill="none" xmlns="http://www.w3.org/2000/svg">
<g clip-path="url(#clip0_219_254)">
<path d="M398.393 508.253L283.748 301.264C283.715 300.757 283.559 300.266 283.292 299.835C283.025 299.403 282.656 299.044 282.218 298.79C281.715 298.501 281.14 298.362 280.561 298.389C280.543 298.388 280.524 298.389 280.506 298.388C280.487 298.389 280.468 298.388 280.45 298.389C279.665 298.352 278.897 298.621 278.306 299.138C277.715 299.655 277.346 300.381 277.277 301.165L155.77 508.253C155.567 508.604 155.435 508.991 155.382 509.393C155.329 509.795 155.356 510.203 155.461 510.595C155.565 510.987 155.746 511.354 155.992 511.675C156.239 511.997 156.546 512.267 156.897 512.47C157.247 512.672 157.634 512.804 158.036 512.857C158.437 512.91 158.845 512.883 159.236 512.778C159.627 512.673 159.993 512.492 160.314 512.245C160.635 511.998 160.905 511.69 161.107 511.339L280.424 307.985L393.056 511.339C393.258 511.69 393.527 511.998 393.849 512.245C394.17 512.492 394.536 512.673 394.927 512.778C395.318 512.883 395.726 512.91 396.127 512.857C396.529 512.804 396.916 512.672 397.266 512.47C397.617 512.267 397.924 511.997 398.17 511.675C398.417 511.354 398.598 510.987 398.702 510.595C398.807 510.203 398.833 509.795 398.78 509.393C398.727 508.991 398.596 508.604 398.393 508.253Z" fill="#3F3D56"/>
<path d="M261.509 472.739L274.467 469.762L269.166 418.293L250.041 422.687L261.509 472.739Z" fill="#FFB6B6"/>
<path d="M271.527 447.875L253.086 452.112L247.189 440.572L246.855 440.163C244.24 436.948 242.788 432.941 242.736 428.794L227.408 388.192L226.155 387.596C225.186 387.134 224.326 386.47 223.632 385.649C222.939 384.828 222.429 383.868 222.136 382.834C221.843 381.799 221.774 380.714 221.932 379.651C222.091 378.588 222.475 377.571 223.058 376.668L221.435 372.37L175.647 372.454L175.602 372.441L119.375 356.647L125.279 321.404L141.095 331.367C146.307 331.029 235.585 325.54 243.833 345.575C251.178 363.417 261.761 393.899 269.347 416.328C269.725 417.335 270.195 418.305 270.751 419.226C271.931 421.046 272.624 423.139 272.762 425.305C272.852 426.247 273.031 427.178 273.298 428.086C276.451 437.524 271.648 447.626 271.599 447.728L271.527 447.875Z" fill="#2F2E41"/>
<path d="M257.131 468.436L261.344 467.468L276.259 456.99L286.609 461.663L286.61 461.662C291.592 460.518 296.825 461.403 301.156 464.121C305.487 466.84 308.562 471.17 309.706 476.159L309.846 476.77L261.581 487.859L257.131 468.436Z" fill="#2F2E41"/>
<path d="M65.7998 469.591C67.1173 455.231 75.5174 440.853 88.9902 435.76C84.0903 450.655 84.6095 466.806 90.456 481.354C92.7311 486.957 95.8441 492.951 94.0584 498.729C92.9474 502.324 90.0378 505.141 86.7424 506.95C83.4468 508.758 79.7548 509.689 76.1089 510.601L75.4056 511.223C69.1545 498.231 64.4823 483.952 65.7998 469.591Z" fill="#F0F0F0"/>
<path d="M89.134 436.026C81.4866 445.182 76.9146 456.519 76.0674 468.425C75.8396 470.985 76.0162 473.565 76.5906 476.07C77.2289 478.492 78.5032 480.698 80.2811 482.46C81.9059 484.136 83.7617 485.663 84.9513 487.705C85.5448 488.76 85.9089 489.928 86.0198 491.133C86.1307 492.339 85.9859 493.554 85.5949 494.699C84.6948 497.579 82.8153 499.963 80.8963 502.23C78.7656 504.747 76.5127 507.328 75.6777 510.602C75.5765 510.998 74.9679 510.818 75.0689 510.422C76.5217 504.727 81.8886 501.346 84.334 496.18C85.4751 493.769 85.8977 491 84.6764 488.533C83.6083 486.376 81.6959 484.801 80.0361 483.118C78.2765 481.425 76.9578 479.325 76.1951 477.004C75.4951 474.537 75.2196 471.968 75.3804 469.408C75.6504 463.638 76.8245 457.947 78.8599 452.543C81.1486 446.363 84.4763 440.62 88.6989 435.563C88.9604 435.25 89.3938 435.715 89.134 436.026L89.134 436.026Z" fill="white"/>
<path d="M76.1149 464.575C74.1393 464.162 72.3749 463.059 71.1367 461.463C69.8984 459.867 69.2671 457.882 69.3553 455.863C69.3597 455.78 69.3958 455.703 69.456 455.647C69.5162 455.591 69.5958 455.56 69.6781 455.562C69.7604 455.563 69.839 455.596 69.8971 455.655C69.9553 455.713 69.9886 455.792 69.9901 455.874C69.9045 457.754 70.4928 459.603 71.6488 461.087C72.8049 462.571 74.4525 463.592 76.2944 463.966C76.6946 464.048 76.5128 464.657 76.1149 464.575H76.1149Z" fill="white"/>
<path d="M79.3455 481.719C82.8181 479.488 85.3234 476.028 86.3619 472.03C86.4645 471.634 87.0732 471.814 86.9707 472.21C85.8822 476.369 83.2678 479.964 79.649 482.277C79.304 482.497 79.0023 481.938 79.3455 481.719H79.3455Z" fill="white"/>
<path d="M81.7568 446.946C82.4879 447.265 83.2867 447.398 84.0817 447.332C84.8766 447.266 85.6427 447.003 86.3112 446.567C86.6533 446.343 86.9546 446.902 86.6147 447.126C85.8739 447.604 85.0275 447.893 84.1494 447.968C83.2713 448.043 82.3882 447.901 81.5773 447.556C81.4981 447.529 81.4319 447.474 81.392 447.401C81.3521 447.327 81.3416 447.242 81.3626 447.161C81.3868 447.08 81.4418 447.012 81.5156 446.972C81.5894 446.932 81.6761 446.923 81.7568 446.946H81.7568Z" fill="white"/>
<path d="M131.332 459.972C131.122 460.118 130.913 460.265 130.703 460.416C127.895 462.398 125.252 464.604 122.801 467.014C122.608 467.198 122.416 467.386 122.229 467.575C116.385 473.444 111.68 480.349 108.353 487.938C107.031 490.959 105.942 494.077 105.093 497.264C103.921 501.665 103 506.53 100.517 510.179C100.263 510.562 99.9844 510.93 99.6843 511.279L76.2176 512.034C76.1634 512.009 76.1092 511.989 76.0547 511.964L75.1191 512.037C75.1515 511.87 75.1886 511.697 75.2209 511.529C75.2392 511.432 75.2628 511.335 75.2811 511.237C75.295 511.173 75.3092 511.108 75.318 511.048C75.3225 511.027 75.3273 511.005 75.332 510.989C75.3409 510.93 75.3553 510.875 75.3644 510.821C75.5691 509.854 75.781 508.887 76.0001 507.919C75.9999 507.914 75.9999 507.914 76.005 507.908C77.6037 500.518 80.0722 493.344 83.3587 486.536C83.4596 486.334 83.56 486.127 83.6715 485.925C85.1978 482.909 86.9676 480.023 88.9634 477.296C90.061 475.807 91.2332 474.374 92.4755 473.003C95.6923 469.466 99.4445 466.459 103.595 464.09C111.868 459.369 121.558 457.351 130.64 459.78C130.872 459.842 131.1 459.904 131.332 459.972Z" fill="#F0F0F0"/>
<path d="M131.289 460.272C119.678 462.972 109.212 469.267 101.377 478.263C99.6558 480.169 98.2456 482.336 97.1983 484.682C96.2518 487.001 95.9425 489.531 96.3028 492.009C96.5923 494.327 97.1564 496.665 96.8782 499.013C96.718 500.213 96.3063 501.365 95.6702 502.394C95.034 503.424 94.1877 504.307 93.1869 504.986C90.737 506.742 87.803 507.512 84.9077 508.165C81.693 508.891 78.3425 509.593 75.7077 511.703C75.3885 511.959 75.011 511.448 75.3298 511.193C79.9137 507.521 86.2316 508.058 91.2901 505.407C93.6505 504.171 95.6531 502.214 96.1608 499.508C96.6048 497.142 96.0251 494.731 95.7117 492.387C95.3249 489.974 95.534 487.503 96.3207 485.189C97.2454 482.797 98.5699 480.58 100.237 478.633C103.922 474.189 108.281 470.353 113.155 467.266C118.698 463.711 124.808 461.132 131.22 459.64C131.617 459.548 131.683 460.18 131.289 460.272V460.272Z" fill="white"/>
<path d="M103.729 475.218C102.4 473.696 101.655 471.752 101.626 469.731C101.597 467.71 102.286 465.745 103.57 464.186C103.831 463.871 104.332 464.263 104.07 464.577C102.872 466.027 102.23 467.858 102.261 469.74C102.292 471.621 102.993 473.43 104.239 474.839C104.509 475.146 103.998 475.523 103.729 475.218V475.218Z" fill="white"/>
<path d="M96.0013 490.854C100.115 491.166 104.196 489.914 107.429 487.348C107.749 487.093 108.126 487.604 107.807 487.859C104.437 490.523 100.188 491.817 95.9081 491.482C95.5001 491.45 95.5956 490.822 96.0013 490.854V490.854Z" fill="white"/>
<path d="M118.833 464.543C119.225 465.239 119.783 465.826 120.457 466.253C121.132 466.679 121.901 466.932 122.697 466.987C123.105 467.013 123.009 467.642 122.604 467.615C121.725 467.55 120.875 467.271 120.129 466.801C119.383 466.332 118.763 465.686 118.323 464.921C118.276 464.853 118.256 464.769 118.268 464.686C118.28 464.604 118.324 464.529 118.389 464.477C118.457 464.427 118.541 464.406 118.625 464.419C118.708 464.431 118.783 464.476 118.833 464.543H118.833Z" fill="white"/>
<path d="M449.738 469.591C448.42 455.231 440.02 440.853 426.547 435.76C431.447 450.655 430.928 466.806 425.082 481.354C422.807 486.957 419.694 492.951 421.479 498.729C422.59 502.324 425.5 505.141 428.795 506.95C432.091 508.758 435.783 509.689 439.429 510.601L440.132 511.223C446.383 498.231 451.055 483.952 449.738 469.591Z" fill="#F0F0F0"/>
<path d="M426.404 436.026C434.051 445.182 438.623 456.519 439.47 468.425C439.698 470.985 439.522 473.565 438.947 476.07C438.309 478.492 437.035 480.698 435.257 482.46C433.632 484.136 431.776 485.663 430.586 487.705C429.993 488.76 429.629 489.928 429.518 491.133C429.407 492.339 429.552 493.554 429.943 494.699C430.843 497.579 432.723 499.963 434.641 502.23C436.772 504.747 439.025 507.328 439.86 510.602C439.961 510.998 440.57 510.818 440.469 510.422C439.016 504.727 433.649 501.346 431.204 496.18C430.063 493.769 429.64 491 430.861 488.533C431.929 486.376 433.842 484.801 435.502 483.118C437.261 481.425 438.58 479.325 439.343 477.004C440.043 474.537 440.318 471.968 440.157 469.408C439.887 463.638 438.713 457.947 436.678 452.543C434.389 446.363 431.061 440.62 426.839 435.563C426.577 435.25 426.144 435.715 426.404 436.026L426.404 436.026Z" fill="white"/>
<path d="M439.423 464.575C441.398 464.162 443.163 463.058 444.401 461.462C445.639 459.866 446.271 457.881 446.183 455.862C446.178 455.78 446.142 455.703 446.082 455.646C446.022 455.59 445.942 455.56 445.86 455.561C445.777 455.563 445.699 455.596 445.641 455.654C445.582 455.713 445.549 455.791 445.548 455.874C445.633 457.754 445.045 459.603 443.889 461.086C442.733 462.57 441.085 463.591 439.243 463.965C438.843 464.047 439.025 464.656 439.423 464.575Z" fill="white"/>
<path d="M436.192 481.719C432.719 479.488 430.214 476.028 429.176 472.03C429.073 471.634 428.464 471.814 428.567 472.21C429.655 476.369 432.27 479.964 435.888 482.277C436.234 482.497 436.535 481.938 436.192 481.719H436.192Z" fill="white"/>
<path d="M433.781 446.946C433.05 447.265 432.251 447.398 431.456 447.332C430.661 447.266 429.895 447.003 429.227 446.567C428.884 446.343 428.583 446.902 428.923 447.126C429.664 447.604 430.51 447.893 431.388 447.968C432.267 448.043 433.15 447.901 433.961 447.556C434.04 447.529 434.106 447.474 434.146 447.401C434.186 447.327 434.196 447.242 434.175 447.161C434.151 447.08 434.096 447.012 434.022 446.972C433.948 446.932 433.862 446.923 433.781 446.946H433.781Z" fill="white"/>
<path d="M384.206 459.972C384.416 460.118 384.625 460.265 384.835 460.416C387.643 462.398 390.286 464.604 392.738 467.014C392.93 467.198 393.122 467.386 393.309 467.575C399.153 473.444 403.859 480.349 407.186 487.938C408.507 490.959 409.597 494.077 410.445 497.264C411.617 501.665 412.538 506.53 415.021 510.179C415.276 510.562 415.554 510.93 415.854 511.279L439.321 512.034C439.375 512.009 439.429 511.989 439.484 511.964L440.419 512.037C440.387 511.87 440.35 511.697 440.317 511.529C440.299 511.432 440.275 511.335 440.257 511.237C440.243 511.173 440.229 511.108 440.22 511.048C440.216 511.027 440.211 511.005 440.206 510.989C440.197 510.93 440.183 510.875 440.174 510.822C439.969 509.854 439.757 508.887 439.538 507.919C439.538 507.914 439.538 507.914 439.533 507.908C437.935 500.518 435.466 493.344 432.179 486.536C432.079 486.334 431.978 486.127 431.867 485.925C430.34 482.909 428.571 480.024 426.575 477.296C425.477 475.807 424.305 474.374 423.063 473.003C419.846 469.466 416.094 466.459 411.944 464.09C403.67 459.369 393.98 457.351 384.898 459.78C384.666 459.842 384.439 459.904 384.206 459.972Z" fill="#F0F0F0"/>
<path d="M384.249 460.272C395.86 462.972 406.326 469.267 414.161 478.263C415.882 480.169 417.292 482.336 418.34 484.682C419.286 487.001 419.595 489.531 419.235 492.009C418.946 494.327 418.382 496.665 418.66 499.013C418.82 500.213 419.232 501.365 419.868 502.394C420.504 503.424 421.35 504.307 422.351 504.986C424.801 506.742 427.735 507.512 430.63 508.165C433.845 508.891 437.196 509.593 439.83 511.703C440.15 511.959 440.527 511.448 440.208 511.193C435.624 507.521 429.306 508.058 424.248 505.407C421.888 504.171 419.885 502.214 419.377 499.508C418.933 497.142 419.513 494.731 419.826 492.387C420.213 489.974 420.004 487.503 419.217 485.189C418.293 482.797 416.968 480.58 415.301 478.633C411.616 474.189 407.257 470.353 402.383 467.266C396.84 463.711 390.73 461.132 384.318 459.64C383.921 459.548 383.855 460.18 384.249 460.272V460.272Z" fill="white"/>
<path d="M411.809 475.218C413.137 473.696 413.883 471.752 413.912 469.731C413.941 467.71 413.252 465.745 411.967 464.186C411.706 463.871 411.206 464.263 411.467 464.577C412.666 466.027 413.308 467.858 413.277 469.74C413.246 471.621 412.544 473.43 411.299 474.839C411.028 475.146 411.54 475.523 411.809 475.218V475.218Z" fill="white"/>
<path d="M419.537 490.854C415.423 491.166 411.342 489.914 408.109 487.348C407.789 487.093 407.411 487.604 407.731 487.859C411.101 490.523 415.35 491.817 419.63 491.482C420.038 491.45 419.942 490.822 419.537 490.854V490.854Z" fill="white"/>
<path d="M396.705 464.543C396.313 465.239 395.755 465.826 395.081 466.253C394.406 466.679 393.636 466.932 392.841 466.987C392.433 467.013 392.528 467.642 392.934 467.615C393.813 467.55 394.663 467.271 395.409 466.801C396.155 466.332 396.775 465.686 397.215 464.921C397.262 464.853 397.282 464.769 397.27 464.686C397.257 464.604 397.214 464.529 397.149 464.477C397.081 464.427 396.996 464.406 396.913 464.419C396.83 464.431 396.755 464.476 396.705 464.543H396.705Z" fill="white"/>
<path d="M612 513.184C612 513.4 611.914 513.607 611.761 513.76C611.608 513.913 611.401 513.999 611.185 514H0.815412C0.599281 514 0.392 513.914 0.239172 513.761C0.0863448 513.608 0.000488281 513.4 0.000488281 513.184C0.000488281 512.967 0.0863448 512.76 0.239172 512.607C0.392 512.454 0.599281 512.368 0.815412 512.368H611.185C611.401 512.368 611.608 512.454 611.761 512.607C611.914 512.76 612 512.967 612 513.184Z" fill="#3F3D56"/>
<path d="M393.157 197.5C394.859 197.5 396.238 196.118 396.238 194.414C396.238 192.71 394.859 191.328 393.157 191.328C391.455 191.328 390.075 192.71 390.075 194.414C390.075 196.118 391.455 197.5 393.157 197.5Z" fill="#3F3D56"/>
<path d="M354.568 218.184L396.114 192.046C396.49 191.81 396.909 191.652 397.348 191.582C397.786 191.513 398.234 191.533 398.664 191.642C399.095 191.751 399.499 191.946 399.852 192.215C400.205 192.484 400.5 192.823 400.719 193.209C400.937 193.596 401.076 194.023 401.125 194.465C401.175 194.906 401.134 195.354 401.006 195.779C400.878 196.205 400.665 196.6 400.381 196.941C400.096 197.282 399.745 197.562 399.349 197.763L355.611 220.026C355.369 220.15 355.087 220.175 354.827 220.096C354.566 220.018 354.345 219.841 354.211 219.604C354.077 219.367 354.039 219.086 354.105 218.822C354.172 218.557 354.338 218.329 354.568 218.184V218.184Z" fill="#E4E4E4"/>
<path d="M271.22 274.464C270.893 273.977 270.722 273.401 270.731 272.814C270.739 272.227 270.927 271.657 271.268 271.179C271.971 270.237 272.907 269.493 273.984 269.022C276.207 267.889 278.601 267.132 281.071 266.78C282.947 266.513 284.996 266.428 286.451 265.212C287.897 264.005 288.704 261.747 290.577 261.558C292.389 261.376 293.781 263.361 295.598 263.485C297.836 263.637 299.302 261.012 301.481 260.474C302.939 260.114 304.439 260.75 305.807 261.371L314.015 265.101L318.223 267.012C319.693 267.68 321.35 268.579 321.628 270.171C322.009 272.359 319.58 273.902 317.502 274.679C302.669 280.161 286.369 280.163 271.534 274.684" fill="#FBDE0B"/>
<path d="M283.587 314.765C343.155 314.765 391.445 307.857 391.445 299.335C391.445 290.814 343.155 283.906 283.587 283.906C224.019 283.906 175.73 290.814 175.73 299.335C175.73 307.857 224.019 314.765 283.587 314.765Z" fill="#3F3D56"/>
<path d="M502.384 395H428.424C425.021 395 422.261 397.763 422.261 401.171C422.261 404.58 425.021 407.343 428.424 407.343H502.384C505.788 407.343 508.547 404.58 508.547 401.171C508.547 397.763 505.788 395 502.384 395Z" fill="#3F3D56"/>
<path d="M538.226 284.962L513.799 401.164L520.161 430.906L532.173 487.036V512.265C532.174 512.299 532.172 512.334 532.166 512.368C532.162 512.925 532.06 513.478 531.864 514H522.209C522.014 513.478 521.912 512.925 521.907 512.368C521.902 512.334 521.9 512.299 521.901 512.265V488.119L510.999 437.174L508.793 426.887L504.527 406.952L503.294 401.178V401.171L504.513 395.383L505.452 390.919L528.174 282.85C528.312 282.188 528.578 281.56 528.959 281.002C529.339 280.444 529.826 279.966 530.39 279.596C530.955 279.226 531.587 278.972 532.251 278.847C532.914 278.722 533.595 278.729 534.256 278.867C534.916 279.006 535.543 279.274 536.1 279.655C536.657 280.037 537.133 280.524 537.502 281.09C537.871 281.656 538.125 282.29 538.249 282.954C538.373 283.618 538.366 284.3 538.226 284.962L538.226 284.962Z" fill="#3F3D56"/>
<path d="M433.56 401.172V512.265C433.562 512.3 433.559 512.334 433.554 512.368C433.55 512.926 433.447 513.478 433.252 514H423.597C423.401 513.478 423.299 512.926 423.295 512.368C423.289 512.334 423.287 512.3 423.288 512.265V401.172C423.288 399.807 423.829 398.499 424.793 397.535C425.756 396.57 427.062 396.028 428.424 396.028C429.787 396.028 431.093 396.57 432.056 397.535C433.019 398.499 433.56 399.807 433.56 401.172Z" fill="#3F3D56"/>
<path d="M440.751 382.656H490.057C494.961 382.656 499.664 384.607 503.132 388.079C506.599 391.551 508.547 396.261 508.547 401.171H422.261C422.261 396.261 424.209 391.551 427.677 388.079C431.144 384.607 435.847 382.656 440.751 382.656Z" fill="#3F3D56"/>
<path d="M514.71 437.174H428.424C427.062 437.174 425.756 436.632 424.792 435.668C423.829 434.703 423.288 433.395 423.288 432.031C423.288 430.667 423.829 429.359 424.792 428.394C425.756 427.43 427.062 426.888 428.424 426.888H514.71C516.072 426.888 517.379 427.43 518.342 428.394C519.305 429.359 519.846 430.667 519.846 432.031C519.846 433.395 519.305 434.703 518.342 435.668C517.379 436.632 516.072 437.174 514.71 437.174Z" fill="#3F3D56"/>
<path d="M113.35 407.53H200.383C203.787 407.53 206.546 404.767 206.546 401.358V399.488C206.546 396.08 203.787 393.316 200.383 393.316H113.35C109.946 393.316 107.187 396.08 107.187 399.488V401.358C107.187 404.767 109.946 407.53 113.35 407.53Z" fill="#3F3D56"/>
<path d="M112.454 400.506L110.878 407.007L105.099 430.817L102.606 441.103L91.0327 488.819V509.522C91.0357 510.536 90.7352 511.527 90.17 512.368C89.7256 513.048 89.1213 513.608 88.4101 514H83.3834C82.6723 513.608 82.068 513.048 81.6236 512.368C81.0582 511.527 80.7576 510.536 80.7605 509.522V487.584L93.6214 434.575L101.921 400.342L73.7757 266.446C73.6364 265.785 73.6285 265.104 73.7526 264.44C73.8766 263.776 74.1301 263.143 74.4986 262.577C74.867 262.011 75.3432 261.524 75.8999 261.143C76.4566 260.761 77.0829 260.494 77.743 260.355C78.4031 260.216 79.084 260.209 79.7469 260.334C80.4097 260.459 81.0415 260.713 81.606 261.083C82.1706 261.452 82.6569 261.93 83.0371 262.488C83.4172 263.046 83.6839 263.673 83.8218 264.334L109.838 388.066L111.036 393.772L112.433 400.424L112.454 400.506Z" fill="#3F3D56"/>
<path d="M204.588 400.424V509.522C204.591 510.536 204.29 511.527 203.725 512.368C203.28 513.048 202.676 513.608 201.965 514H196.931C196.224 513.606 195.622 513.046 195.178 512.368C194.613 511.527 194.312 510.536 194.315 509.522V400.424C194.315 399.06 194.857 397.752 195.82 396.787C196.783 395.823 198.089 395.281 199.452 395.281C200.814 395.281 202.12 395.823 203.083 396.787C204.046 397.752 204.588 399.06 204.588 400.424Z" fill="#3F3D56"/>
<path d="M206.546 400.423H107.187V397.618C107.187 395.186 107.665 392.779 108.594 390.532C109.523 388.286 110.885 386.245 112.602 384.525C114.319 382.806 116.358 381.442 118.601 380.512C120.844 379.581 123.249 379.102 125.677 379.102H188.057C192.96 379.102 197.663 381.053 201.131 384.525C204.598 387.998 206.546 392.707 206.546 397.618V400.423H206.546Z" fill="#3F3D56"/>
<path d="M199.449 441.101H100.09C98.7275 441.101 97.4211 440.56 96.4579 439.595C95.4947 438.63 94.9536 437.322 94.9536 435.958C94.9536 434.594 95.4947 433.286 96.4579 432.321C97.4211 431.357 98.7275 430.815 100.09 430.815H199.449C200.811 430.815 202.118 431.357 203.081 432.321C204.044 433.286 204.585 434.594 204.585 435.958C204.585 437.322 204.044 438.63 203.081 439.595C202.118 440.56 200.811 441.101 199.449 441.101Z" fill="#3F3D56"/>
<path d="M327.142 485.966L316.347 480.797L331.175 435.612L347.108 443.242L327.142 485.966Z" fill="#9E616A"/>
<path d="M400.3 481.874L388.692 484.742L371.874 440.272L389.007 436.039L400.3 481.874Z" fill="#9E616A"/>
<path d="M355.81 289.575C357.349 292.079 359.806 293.881 362.654 294.597C365.502 295.312 368.517 294.885 371.055 293.405C371.565 293.096 372.049 292.745 372.501 292.355L406.63 311.968L405.147 291.835L372.966 276.297C371.215 274.536 368.929 273.406 366.468 273.085C364.007 272.764 361.509 273.27 359.366 274.523C358.132 275.265 357.058 276.247 356.209 277.41C355.36 278.574 354.752 279.896 354.42 281.299C354.089 282.701 354.041 284.156 354.28 285.577C354.518 286.999 355.039 288.358 355.81 289.575Z" fill="#9E616A"/>
<path d="M391.957 304.583L397.99 308.264L425.084 324.809C426.863 325.924 428.845 326.677 430.915 327.025C432.986 327.372 435.104 327.308 437.15 326.835C439.195 326.362 441.128 325.49 442.836 324.269C444.545 323.048 445.997 321.502 447.109 319.718C449.115 316.409 449.824 312.472 449.101 308.668L437.059 248.423C436.614 246.058 435.664 243.817 434.275 241.853C432.886 239.889 431.089 238.249 429.009 237.045C426.928 235.84 424.612 235.1 422.22 234.874C419.827 234.648 417.414 234.943 415.145 235.737C411.332 237.079 408.172 239.825 406.309 243.417C404.446 247.009 404.02 251.177 405.117 255.072L417.708 297.828L398.407 288.816L391.957 304.583Z" fill="#E6E6E6"/>
<path d="M377.693 469.412L359.119 432.107L359.121 432.022L360.955 363.599C360.978 362.99 361.027 362.379 361.101 361.778C361.425 359.034 362.291 356.383 363.649 353.978C365.007 351.573 366.829 349.463 369.009 347.77C371.098 346.134 373.491 344.931 376.048 344.23C378.606 343.53 381.277 343.346 383.907 343.691L437.02 350.574L438.862 343.031L439.205 342.906L490.097 324.229L490.39 324.707C497.055 335.567 501.714 357.26 502.984 363.65L503.002 363.742C503.028 363.877 503.045 363.958 503.05 363.982C505.67 374.886 494.845 392.95 484.061 395.665C461.345 401.462 441.03 396.94 417.507 391.702C409.072 389.824 400.355 387.882 390.752 386.203L391.038 391.863C391.272 396.219 392.176 400.512 393.717 404.592C395.429 409.614 396.781 413.58 393.922 421.849L392.539 425.85C393.256 427.836 393.503 429.962 393.26 432.06C393.017 434.157 392.291 436.17 391.138 437.939L390.86 438.365L403.11 469.405L377.693 469.412Z" fill="#2F2E41"/>
<path d="M347.174 452.914L325.024 450.853L332.871 425.722C334.491 409.312 338.571 393.241 344.975 378.049L355.679 352.647C355.703 352.082 355.751 351.513 355.82 350.956C356.144 348.212 357.01 345.561 358.367 343.156C359.725 340.751 361.547 338.641 363.728 336.949C365.817 335.313 368.209 334.11 370.767 333.41C373.325 332.709 375.996 332.526 378.625 332.869L431.66 339.742L433.97 320.328L484.875 313.506L485.108 313.886C494.006 328.383 499.655 339.732 502.885 349.603C503.047 350.106 503.191 350.62 503.314 351.132C505.952 362.109 499.367 373.239 488.636 375.942C461.289 382.924 428.402 382.73 385.164 375.329L364.238 425.197C362.238 429.96 359.762 434.508 356.847 438.772L347.174 452.914Z" fill="#2F2E41"/>
<path d="M424.437 201.161C438.608 201.161 450.095 189.401 450.095 174.895C450.095 160.388 438.608 148.628 424.437 148.628C410.267 148.628 398.779 160.388 398.779 174.895C398.779 189.401 410.267 201.161 424.437 201.161Z" fill="#9E616A"/>
<path d="M431.846 340.659L428.164 327.452L427.259 320.937L421.968 321.114L411.583 297.11L407.549 290.78C406.727 289.913 405.981 289.079 405.314 288.278C401.111 283.521 397.741 278.087 395.346 272.206C393.668 267.98 392.683 263.511 392.428 258.97C391.675 245.558 397.321 231.368 409.689 215.593C409.486 215.034 409.351 214.453 409.286 213.863C409.065 211.946 409.609 210.02 410.799 208.503C411.989 206.986 413.729 206 415.64 205.761L427.569 204.42C428.497 204.315 429.436 204.395 430.332 204.657C431.228 204.918 432.064 205.356 432.79 205.944C433.547 206.552 434.177 207.305 434.641 208.16C435.105 209.014 435.395 209.952 435.493 210.919C435.653 212.416 435.359 213.926 434.65 215.253C440.73 216.026 446.459 218.539 451.148 222.491C455.838 226.443 459.29 231.665 461.09 237.533C468.228 250.876 473.917 264.948 478.06 279.506C478.877 282.357 478.513 285.295 478.161 288.136C477.837 290.761 477.501 293.475 478.066 296.179C478.64 298.931 480.022 301.69 481.486 304.612C483.162 307.959 484.895 311.419 485.363 314.946L485.396 315.194L431.846 340.659Z" fill="#E4E4E4"/>
<path opacity="0.2" d="M395.663 272.076C398.047 277.923 401.398 283.326 405.576 288.058C406.291 288.914 407.047 289.754 407.838 290.596L411.897 296.974C426.858 285.743 438.981 241.524 438.981 241.524L422.1 238.236L395.663 272.076Z" fill="black"/>
<path d="M385.443 203.615C386.921 206.158 387.35 209.178 386.639 212.033C385.927 214.887 384.132 217.351 381.634 218.901C381.121 219.208 380.584 219.471 380.028 219.689L381.223 259.076L364.19 248.339L365.666 212.583C364.942 210.204 365.024 207.651 365.9 205.323C366.777 202.996 368.398 201.024 370.511 199.716C371.742 198.97 373.11 198.479 374.533 198.272C375.957 198.065 377.407 198.145 378.799 198.509C380.191 198.872 381.496 199.511 382.637 200.388C383.778 201.265 384.732 202.363 385.443 203.615Z" fill="#9E616A"/>
<path d="M382.72 244.208L363.989 246.876L364.794 285.718C364.841 288.489 365.594 291.202 366.983 293.6C368.372 295.997 370.35 297.999 372.728 299.415C375.635 301.127 379.018 301.847 382.368 301.466C385.719 301.085 388.855 299.624 391.304 297.303L435.525 254.709C438.637 251.753 440.499 247.716 440.729 243.427C440.958 239.139 439.538 234.925 436.761 231.653C435.386 230.024 433.699 228.687 431.799 227.724C429.899 226.76 427.825 226.188 425.7 226.043C423.575 225.897 421.443 226.18 419.429 226.875C417.416 227.571 415.562 228.664 413.979 230.091C413.542 230.482 413.126 230.897 412.734 231.333L383.534 264.971L382.72 244.208Z" fill="#E6E6E6"/>
<path d="M226.058 497.568L239.353 497.567L245.678 446.214L226.056 446.215L226.058 497.568Z" fill="#FFB6B6"/>
<path d="M150.7 201.924C165.355 201.924 177.235 190.027 177.235 175.352C177.235 160.676 165.355 148.779 150.7 148.779C136.045 148.779 124.165 160.676 124.165 175.352C124.165 190.027 136.045 201.924 150.7 201.924Z" fill="#FFB6B6"/>
<path d="M243.692 481.749H224.865L220.065 475.306L218.766 469.236L217.648 468.152C216.131 466.694 215.15 464.766 214.865 462.68C214.579 460.594 215.005 458.472 216.074 456.659L202.43 392.909C198.856 392.595 158.554 388.986 130.54 384.021C123.37 382.751 117.772 379.261 113.902 373.648C104.391 359.857 108.465 337.542 108.508 337.319L108.555 337.07L108.806 337.041L174.242 329.687L174.331 329.728C176.502 330.758 227.61 355.055 235.961 363.418C239.733 367.195 248.147 389.633 250.031 413.488C250.368 417.762 249.154 422.114 247.979 426.323C246.881 430.261 245.744 434.333 245.969 438.183C246.315 444.123 246.643 450.353 246.945 456.702C246.993 457.714 247.754 458.761 248.49 459.773C249.259 460.831 249.985 461.829 250.031 462.875C250.479 473.013 243.862 481.533 243.795 481.618L243.692 481.749Z" fill="#2F2E41"/>
<path d="M247.979 246.126C246.553 245.736 245.06 245.664 243.603 245.914C242.147 246.164 240.763 246.731 239.549 247.575C238.335 248.419 237.32 249.519 236.577 250.798C235.834 252.077 235.379 253.504 235.246 254.978L213.198 261.878L214.118 276.318L245.117 266.135C247.604 266.195 250.027 265.34 251.927 263.73C253.826 262.121 255.07 259.87 255.423 257.404C255.775 254.937 255.212 252.427 253.841 250.349C252.469 248.27 250.383 246.768 247.979 246.126V246.126Z" fill="#FFB6B6"/>
<path d="M233.594 270.021L217.116 276.267L216.694 277.085C215.684 279.048 213.937 280.528 211.837 281.2C209.736 281.873 207.456 281.682 205.496 280.671L168.458 294.708C168.458 294.708 151.918 278.133 140.142 263.341L144.156 238.62C145.085 232.885 147.061 227.37 149.984 222.35C174.134 227.653 187.998 261.461 187.998 261.461L231.523 253.144L233.594 270.021Z" fill="#FBDE0B"/>
<path d="M146.929 200.503C140.286 202.3 132.962 199.911 127.778 195.38C122.593 190.849 119.35 184.429 117.482 177.797C116.113 172.94 115.464 167.549 117.624 162.989C119.784 158.429 125.596 155.353 130.08 157.656C127.314 154.429 128.696 149.091 131.926 146.33C135.157 143.569 139.593 142.778 143.818 142.345C149.95 141.717 156.284 141.647 162.119 143.636C167.954 145.625 173.256 149.975 175.082 155.87C176.947 156.74 179.048 156.965 181.054 156.512C183.061 156.058 184.861 154.95 186.172 153.363C186.51 155.186 186.239 157.07 185.4 158.724C184.561 160.377 183.201 161.708 181.531 162.509L190.471 159.607C192.009 162.866 189.314 166.899 185.869 167.943C182.424 168.987 178.705 167.846 175.436 166.338C172.166 164.83 168.998 162.924 165.447 162.336C161.896 161.748 157.724 162.891 156.082 166.098C155.221 167.778 155.177 169.745 154.677 171.565C154.177 173.386 152.912 175.273 151.033 175.422C149.845 175.516 148.683 174.883 147.499 175.012C146.031 175.173 144.907 176.504 144.516 177.93C144.222 179.384 144.218 180.881 144.506 182.335L146.777 199.718" fill="#2F2E41"/>
<path d="M114.054 376.823C114.049 376.823 114.044 376.823 114.039 376.822L113.83 376.786L113.769 376.581C113.006 374.012 112.035 371.382 111.096 368.838C109.714 365.315 108.546 361.711 107.6 358.046C106.856 354.543 106.34 350.994 106.055 347.423C105.794 344.831 105.523 342.15 105.062 339.511C104.858 338.34 105.633 337.23 106.382 336.157C107.077 335.162 107.733 334.222 107.595 333.333C107.455 332.424 106.448 331.426 105.474 330.46C104.407 329.401 103.303 328.307 103.147 327.155C101.02 311.437 100.03 295.586 100.185 279.725C100.404 257.78 101.395 242.823 103.128 235.266C107.789 214.949 129.321 211.242 132.692 210.784C133.051 209.826 133.603 208.953 134.313 208.219C135.024 207.484 135.878 206.904 136.822 206.514C137.766 206.124 138.78 205.933 139.801 205.952C140.822 205.972 141.829 206.201 142.757 206.627L158.056 213.64C161.16 215.068 163.937 217.119 166.215 219.667C168.493 222.215 170.224 225.205 171.299 228.451L173.572 235.389L174.71 281.966L168.401 314.765L180.728 333.281C115.032 369.4 114.266 376.823 114.054 376.823Z" fill="#FBDE0B"/>
<path d="M218.904 492.393L223.226 492.393L240.103 485.521L249.148 492.392H249.149C254.261 492.392 259.163 494.426 262.777 498.045C266.392 501.665 268.423 506.574 268.423 511.693V512.32L218.905 512.322L218.904 492.393Z" fill="#2F2E41"/>
<path d="M253.499 279.364C252.225 278.614 250.802 278.154 249.331 278.015C247.859 277.877 246.376 278.062 244.984 278.56C243.592 279.057 242.326 279.854 241.275 280.895C240.224 281.935 239.414 283.194 238.901 284.582L215.82 285.483L212.709 296.249L245.524 297.932C247.909 298.639 250.471 298.447 252.724 297.389C254.977 296.332 256.764 294.484 257.747 292.195C258.73 289.906 258.841 287.336 258.058 284.971C257.275 282.606 255.653 280.611 253.499 279.364Z" fill="#FFB6B6"/>
<path d="M234.539 299.093L210.829 298.797L207.828 298.756L159.59 298.148C159.59 298.148 146.49 285.633 135.083 272.748L136.682 261.168C138.242 249.804 143.871 239.394 152.523 231.875C168.86 242.807 178.334 264.444 178.334 264.444L194.22 271.562C205.399 272.063 216.292 275.258 225.975 280.875L231.199 283.906L234.539 299.093Z" fill="#FBDE0B"/>
<path d="M408.769 503.778L400.88 505.728L397.634 498.617L395.866 506.967L374.942 512.138C373.939 512.386 372.883 512.306 371.929 511.911C370.974 511.515 370.171 510.825 369.636 509.939C369.101 509.054 368.863 508.021 368.956 506.991C369.049 505.961 369.469 504.987 370.154 504.213L384.015 488.528L382.156 480.987L399.99 477.694L408.769 503.778Z" fill="#2F2E41"/>
<path d="M325.194 506.216L317.671 503.141L319.227 495.479L312.889 501.186L292.936 493.03C291.979 492.64 291.173 491.953 290.634 491.07C290.095 490.188 289.851 489.156 289.94 488.125C290.028 487.094 290.442 486.119 291.123 485.341C291.804 484.563 292.716 484.024 293.725 483.801L314.15 479.294L317.081 472.104L333.433 479.956L325.194 506.216Z" fill="#2F2E41"/>
<path d="M298.995 296.592H292.832C286.205 296.585 279.852 293.945 275.166 289.253C270.48 284.56 267.844 278.198 267.836 271.562V271.219H323.991V271.562C323.983 278.198 321.347 284.56 316.661 289.253C311.976 293.945 305.622 296.585 298.995 296.592Z" fill="#E4E4E4"/>
<path d="M292.832 262.304C292.832 264.009 289.751 265.39 289.751 265.39C289.751 265.39 286.669 264.009 286.669 262.304C286.669 260.6 289.751 259.218 289.751 259.218C289.751 259.218 292.832 260.6 292.832 262.304Z" fill="#3F3D56"/>
<path d="M311.322 262.304C311.322 264.009 308.24 265.39 308.24 265.39C308.24 265.39 305.159 264.009 305.159 262.304C305.159 260.6 308.24 259.218 308.24 259.218C308.24 259.218 311.322 260.6 311.322 262.304Z" fill="#3F3D56"/>
<path d="M298.995 268.476C298.995 270.18 295.914 271.562 295.914 271.562C295.914 271.562 292.832 270.18 292.832 268.476C292.832 266.772 295.914 265.39 295.914 265.39C295.914 265.39 298.995 266.772 298.995 268.476Z" fill="#3F3D56"/>
<path d="M277.424 255.79C279.126 255.79 280.506 254.408 280.506 252.704C280.506 250.999 279.126 249.618 277.424 249.618C275.722 249.618 274.342 250.999 274.342 252.704C274.342 254.408 275.722 255.79 277.424 255.79Z" fill="#3F3D56"/>
<path d="M232.606 246.072L281.209 252.794C281.649 252.855 282.072 253.004 282.452 253.233C282.832 253.462 283.163 253.766 283.422 254.126C283.682 254.486 283.867 254.896 283.964 255.329C284.062 255.763 284.07 256.212 283.99 256.649C283.909 257.086 283.741 257.502 283.495 257.872C283.25 258.243 282.932 258.559 282.56 258.803C282.189 259.046 281.772 259.212 281.335 259.29C280.898 259.368 280.45 259.356 280.018 259.256L232.222 248.155C231.957 248.093 231.726 247.932 231.576 247.703C231.427 247.475 231.371 247.198 231.42 246.93C231.47 246.661 231.621 246.422 231.842 246.263C232.063 246.103 232.336 246.035 232.606 246.072Z" fill="#E4E4E4"/>
<path d="M291.667 92.724V0H285.504V92.724C277.083 93.4934 269.253 97.387 263.552 103.64C257.85 109.894 254.689 118.055 254.688 126.523V135.781H276.259C276.259 139.055 277.558 142.195 279.869 144.509C282.181 146.824 285.316 148.125 288.586 148.125C291.855 148.125 294.99 146.824 297.302 144.509C299.613 142.195 300.912 139.055 300.912 135.781H322.484V126.523C322.483 118.055 319.321 109.894 313.619 103.64C307.918 97.387 300.088 93.4934 291.667 92.724Z" fill="#F0F0F0"/>
<path d="M371.019 69.543V0H366.397V69.543C360.081 70.1201 354.209 73.0403 349.933 77.7303C345.657 82.4204 343.285 88.5416 343.285 94.8924V101.836H359.463C359.463 104.291 360.437 106.646 362.171 108.382C363.905 110.118 366.256 111.094 368.708 111.094C371.16 111.094 373.512 110.118 375.245 108.382C376.979 106.646 377.953 104.291 377.953 101.836H394.132V94.8924C394.131 88.5416 391.76 82.4204 387.484 77.7303C383.207 73.0403 377.335 70.1201 371.019 69.543Z" fill="#F0F0F0"/>
<path d="M214.883 69.543V0H210.26V69.543C203.944 70.1201 198.072 73.0403 193.796 77.7303C189.52 82.4204 187.149 88.5416 187.148 94.8924V101.836H203.327C203.327 104.291 204.301 106.646 206.034 108.382C207.768 110.118 210.12 111.094 212.571 111.094C215.023 111.094 217.375 110.118 219.109 108.382C220.842 106.646 221.816 104.291 221.816 101.836H237.995V94.8924C237.994 88.5416 235.623 82.4204 231.347 77.7303C227.071 73.0403 221.198 70.1201 214.883 69.543Z" fill="#F0F0F0"/>
<path d="M493.095 163.503C488.734 158.41 486.66 151.653 483.174 145.869C479.687 140.086 473.62 134.909 467.21 136.255C462.792 137.183 459.377 141.088 457.648 145.44C455.92 149.793 455.596 154.594 455.293 159.296C455.4 149.632 449.042 140.263 440.283 137.179C431.525 134.096 421.043 137.536 415.54 145.3C413.138 143.071 410.003 141.801 406.729 141.732C403.455 141.664 400.27 142.8 397.777 144.926C392.854 149.332 391.765 157.718 395.385 163.338C399.005 168.958 406.846 171.051 412.599 167.934L414.633 169.808C413.488 173.818 415.709 178.555 419.441 180.064C422.467 181.288 426.74 181.085 427.873 184.265C428.664 186.488 427.185 188.86 425.611 190.567C424.038 192.275 422.17 194.038 421.981 196.402C421.695 199.967 425.375 202.465 428.72 203.217C436.785 205.031 445.734 201.291 450.382 194.163C450.472 194.026 450.569 193.888 450.675 193.751C453.283 190.411 455.183 186.573 456.26 182.473C457.337 178.373 457.568 174.096 456.939 169.903C456.678 168.256 456.941 167.03 458.075 166.64C462.978 164.954 476.713 168.493 480.869 171.692C485.026 174.89 488.355 179.124 492.359 182.529C496.363 185.934 501.465 188.56 506.549 187.633C510.621 186.89 514.085 183.93 516.415 180.36C518.745 176.789 520.085 172.627 521.286 168.491C512.283 173.7 499.96 171.519 493.095 163.503Z" fill="#2F2E41"/>
</g>
<defs>
<clipPath id="clip0_219_254">
<rect width="612" height="514" fill="white"/>
</clipPath>
</defs>
</svg>
