<svg width="111" height="46" viewBox="0 0 111 46" fill="none" xmlns="http://www.w3.org/2000/svg">
<path d="M0.499617 45L0.499512 1H25.6482V4V6.53846H16.8482H11.4329H6.04967V12.778V17.6154H21.1354H22.9406L25.6482 21.0769L22.9406 24.5385H6.35152L6.42612 45H0.499617Z" stroke="url(#paint0_linear_0_1)"/>
<path d="M29.9248 44.9998V22.4357L41.0017 17.9229L52.0786 22.4357V44.9998H29.9248Z" stroke="url(#paint1_linear_0_1)"/>
<path d="M57.002 44.9998V22.4357L68.0789 17.9229L73.6173 20.1793L79.1558 22.4357V44.9998H57.002Z" stroke="url(#paint2_linear_0_1)"/>
<path d="M83.3867 22.5V45H110.387V2H105.387V22.5L94.3867 18L83.3867 22.5Z" stroke="url(#paint3_linear_0_1)"/>
<defs>
<linearGradient id="paint0_linear_0_1" x1="83.7798" y1="23.0001" x2="-24.1073" y2="23.0001" gradientUnits="userSpaceOnUse">
<stop stop-color="#FFC107"/>
<stop offset="0.9513" stop-color="#F44336"/>
</linearGradient>
<linearGradient id="paint1_linear_0_1" x1="103.287" y1="31.4614" x2="8.24838" y2="31.4614" gradientUnits="userSpaceOnUse">
<stop stop-color="#FFC107"/>
<stop offset="0.9513" stop-color="#F44336"/>
</linearGradient>
<linearGradient id="paint2_linear_0_1" x1="130.365" y1="31.4614" x2="35.3255" y2="31.4614" gradientUnits="userSpaceOnUse">
<stop stop-color="#FFC107"/>
<stop offset="0.9513" stop-color="#F44336"/>
</linearGradient>
<linearGradient id="paint3_linear_0_1" x1="172.797" y1="23.5001" x2="56.9686" y2="23.5001" gradientUnits="userSpaceOnUse">
<stop stop-color="#FFC107"/>
<stop offset="0.9513" stop-color="#F44336"/>
</linearGradient>
</defs>
</svg>
