<svg width="286" height="140" viewBox="0 0 286 140" fill="none" xmlns="http://www.w3.org/2000/svg">
<g clip-path="url(#clip0_34_128)">
<path d="M85.0858 115.272C84.1026 123.841 80.487 131.68 76.63 139.233C76.5024 139.49 76.3712 139.743 76.2368 140H36.1484C35.3376 139.766 34.5373 139.509 33.7404 139.233C29.2125 137.699 24.9379 135.36 21.0826 132.306C6.33406 120.487 0.658838 98.153 3.22221 78.1409C4.81612 65.7077 9.72185 53.0135 19.2747 46.3172C24.3186 42.7753 30.7975 41.6241 36.6038 42.9403C36.7557 42.971 36.9075 43.0094 37.0626 43.0439C42.0581 44.2949 46.5085 47.4032 49.0409 52.411C53.5947 61.4098 50.8831 72.5575 48.6442 82.5731C46.412 92.5887 45.201 104.577 51.6801 111.964C49.541 104.961 51.6524 96.6065 56.7618 91.8711C60.6223 88.2985 65.9973 86.9593 70.8997 88.0683C71.3688 88.1796 71.8312 88.3062 72.2865 88.4597C73.3871 88.8182 74.4483 89.3125 75.4501 89.9333C83.0917 94.6801 86.1864 105.613 85.0858 115.272Z" fill="#F2F2F2"/>
<path d="M61.3158 139.232C62.4266 139.52 63.5409 139.774 64.6621 140H58.6006C57.8071 139.762 57.017 139.509 56.234 139.232C54.5124 138.634 52.8173 137.947 51.1487 137.172C44.4559 134.048 38.2908 129.359 33.6265 123.119C31.3453 120.096 29.4826 116.711 28.0997 113.077C26.6002 108.969 25.6472 104.639 25.2708 100.225C24.4255 91.1689 25.288 81.8631 26.8991 72.968C28.5618 63.7487 31.2456 54.7942 34.8892 46.3095C35.3274 45.2926 35.7805 44.2821 36.2485 43.278C36.2807 43.1953 36.3294 43.1219 36.391 43.0634C36.4526 43.0049 36.5253 42.9627 36.6038 42.9403C36.763 42.9059 36.928 42.9432 37.0626 43.0439C37.2242 43.147 37.344 43.3152 37.3973 43.5137C37.4506 43.7122 37.4333 43.9259 37.349 44.1107C33.5922 52.2597 30.7445 60.8888 28.869 69.806C27.0337 78.5054 25.9918 87.6078 26.3471 96.5528C26.6852 104.911 28.6483 113.13 33.1021 119.965C37.1696 126.204 42.786 131.124 48.9995 134.474C52.9322 136.567 57.0634 138.163 61.3158 139.232Z" fill="white"/>
<path d="M74.6187 140H72.8316C72.6315 139.747 72.4383 139.49 72.2486 139.232C68.178 133.731 65.4204 127.177 64.2308 120.176C62.7862 111.439 63.91 102.417 67.4358 94.4461C68.4195 92.2109 69.5786 90.0767 70.8996 88.0683C71.3687 88.1796 71.8311 88.3062 72.2865 88.4597C68.8119 93.5803 66.4748 99.542 65.4659 105.859C64.5659 111.777 64.8652 117.845 66.3418 123.619C67.8184 129.393 70.4352 134.727 74.0012 139.232C74.2011 139.49 74.4082 139.747 74.6187 140Z" fill="white"/>
<path d="M235.606 133.474C235.866 135.735 236.82 137.804 237.838 139.797C237.872 139.865 237.906 139.932 237.942 140H248.522C248.736 139.938 248.947 139.87 249.158 139.797C250.352 139.393 251.481 138.775 252.498 137.969C256.391 134.85 257.888 128.956 257.212 123.674C256.791 120.393 255.496 117.043 252.975 115.275C251.606 114.348 249.973 114.03 248.402 114.384C248.362 114.392 248.322 114.402 248.281 114.411C247.627 114.552 247.007 114.845 246.462 115.271C245.917 115.697 245.46 116.247 245.119 116.884C243.918 119.259 244.633 122.201 245.224 124.844C245.813 127.487 246.133 130.651 244.423 132.601C244.674 131.785 244.724 130.911 244.57 130.066C244.416 129.222 244.063 128.438 243.546 127.796C243.03 127.154 242.369 126.676 241.631 126.412C240.894 126.148 240.107 126.108 239.35 126.294C239.227 126.324 239.105 126.357 238.984 126.398C238.694 126.492 238.414 126.623 238.15 126.786C236.133 128.039 235.316 130.925 235.606 133.474Z" fill="#F2F2F2"/>
<path d="M241.88 139.797C241.587 139.873 241.293 139.94 240.997 140H242.596C242.806 139.937 243.014 139.87 243.221 139.797C243.675 139.639 244.123 139.458 244.563 139.254C246.349 138.447 247.935 137.175 249.188 135.545C249.79 134.747 250.281 133.854 250.646 132.894C251.042 131.81 251.293 130.668 251.393 129.503C251.574 127.094 251.429 124.669 250.963 122.309C250.524 119.876 249.816 117.513 248.854 115.273C248.739 115.005 248.619 114.738 248.496 114.473C248.487 114.451 248.474 114.432 248.458 114.417C248.442 114.401 248.423 114.39 248.402 114.384C248.36 114.375 248.316 114.385 248.281 114.412C248.238 114.439 248.206 114.483 248.192 114.536C248.178 114.588 248.183 114.644 248.205 114.693C249.197 116.844 249.948 119.121 250.443 121.475C250.953 123.783 251.177 126.158 251.109 128.534C251.072 130.743 250.452 132.892 249.326 134.712C248.231 136.352 246.79 137.667 245.13 138.542C244.092 139.094 243.002 139.515 241.88 139.797Z" fill="white"/>
<path d="M238.369 140H238.841C238.893 139.933 238.944 139.865 238.995 139.797C240.069 138.346 240.797 136.616 241.111 134.768C241.492 132.462 241.195 130.081 240.265 127.977C240.005 127.388 239.699 126.824 239.351 126.294C239.227 126.324 239.105 126.357 238.985 126.398C239.902 127.749 240.518 129.322 240.785 130.989C241.022 132.551 240.943 134.153 240.553 135.677C240.164 137.2 239.473 138.608 238.532 139.797C238.479 139.865 238.425 139.933 238.369 140Z" fill="white"/>
<path d="M140.243 81.5482H107.131L106.78 70.2237C106.764 69.7328 106.845 69.2441 107.016 68.7912C107.187 68.3382 107.444 67.9319 107.769 67.6001C108.095 67.2682 108.481 67.0188 108.902 66.869C109.323 66.7192 109.767 66.6725 110.206 66.7322L129.475 69.3568H129.477C132.334 69.3653 135.071 70.6331 137.089 72.8823C139.107 75.1315 140.242 78.1787 140.243 81.3564V81.5482Z" fill="#6C63FF"/>
<path d="M125.485 41.3784H102.39C102.083 41.3784 101.779 41.4456 101.495 41.5763C101.211 41.707 100.954 41.8986 100.736 42.1402C100.519 42.3817 100.347 42.6686 100.229 42.9842C100.112 43.2999 100.052 43.6382 100.052 43.9798V69.6683C100.052 70.0099 100.112 70.3482 100.229 70.6639C100.347 70.9795 100.519 71.2663 100.736 71.5079C100.954 71.7495 101.211 71.9411 101.495 72.0718C101.779 72.2025 102.083 72.2697 102.39 72.2696H125.485C125.792 72.2697 126.096 72.2025 126.38 72.0718C126.664 71.9411 126.922 71.7495 127.139 71.5079C127.356 71.2663 127.528 70.9795 127.646 70.6639C127.763 70.3482 127.824 70.0099 127.824 69.6683V43.9798C127.824 43.6382 127.763 43.2999 127.646 42.9842C127.528 42.6686 127.356 42.3817 127.139 42.1402C126.922 41.8986 126.664 41.707 126.38 41.5763C126.096 41.4456 125.792 41.3784 125.485 41.3784Z" fill="#CCCCCC"/>
<path d="M120.284 60.5873L109.38 62.9492C108.733 63.0885 108.063 62.9367 107.517 62.5271C106.97 62.1175 106.592 61.4837 106.466 60.7645L105.628 55.9769C105.502 55.2575 105.639 54.5122 106.007 53.9045C106.375 53.2969 106.945 52.8765 107.592 52.7356L118.496 50.3737C119.142 50.2344 119.812 50.3863 120.359 50.7958C120.905 51.2054 121.283 51.8393 121.41 52.5584L122.248 57.346C122.373 58.0654 122.236 58.8107 121.868 59.4184C121.5 60.026 120.93 60.4464 120.284 60.5873Z" fill="#3F3D56"/>
<path d="M118.102 54.9312L109.781 56.7337C109.628 56.7667 109.471 56.731 109.342 56.6346C109.214 56.5382 109.125 56.389 109.095 56.2196C109.065 56.0503 109.097 55.8749 109.184 55.7318C109.271 55.5888 109.405 55.4899 109.557 55.457L117.879 53.6545C118.031 53.6215 118.189 53.6572 118.317 53.7536C118.446 53.85 118.535 53.9992 118.564 54.1685C118.594 54.3378 118.562 54.5133 118.475 54.6563C118.389 54.7993 118.254 54.8982 118.102 54.9312Z" fill="white"/>
<path d="M116.485 57.6005L112.18 58.5329C112.028 58.5658 111.87 58.5302 111.742 58.4338C111.613 58.3374 111.524 58.1881 111.495 58.0188C111.465 57.8495 111.497 57.674 111.584 57.531C111.671 57.388 111.805 57.2891 111.957 57.2561L116.261 56.3238C116.336 56.3075 116.414 56.3078 116.489 56.3248C116.564 56.3418 116.636 56.3751 116.7 56.4229C116.763 56.4706 116.818 56.5318 116.86 56.603C116.903 56.6742 116.932 56.754 116.947 56.8379C116.961 56.9217 116.961 57.0079 116.946 57.0916C116.931 57.1753 116.901 57.2548 116.858 57.3256C116.815 57.3965 116.76 57.4572 116.696 57.5044C116.632 57.5515 116.56 57.5842 116.485 57.6005Z" fill="white"/>
<path d="M127.824 43.9798V47.3941H100.052V43.9798C100.052 43.6382 100.112 43.2999 100.229 42.9842C100.347 42.6686 100.519 42.3817 100.736 42.1402C100.954 41.8986 101.211 41.707 101.495 41.5763C101.779 41.4456 102.083 41.3784 102.39 41.3784H125.485C125.792 41.3784 126.096 41.4456 126.38 41.5763C126.664 41.707 126.922 41.8986 127.139 42.1402C127.356 42.3817 127.528 42.6686 127.646 42.9842C127.763 43.2999 127.824 43.6382 127.824 43.9798Z" fill="#B3B3B3"/>
<path d="M183.282 48.4633C183.121 47.8876 182.849 47.3581 182.485 46.9119C182.121 46.4657 181.673 46.1138 181.174 45.8809C180.674 45.6481 180.134 45.5399 179.593 45.5641C179.051 45.5883 178.521 45.7442 178.04 46.0209L146.267 33.341L144.868 42.1698L176.54 51.8575C177.011 52.7262 177.753 53.3723 178.624 53.6734C179.495 53.9745 180.435 53.9098 181.266 53.4914C182.097 53.073 182.761 52.3301 183.133 51.4034C183.504 50.4767 183.557 49.4306 183.282 48.4633Z" fill="#FFB8B8"/>
<path opacity="0.2" d="M183.282 48.4633C183.121 47.8876 182.849 47.3581 182.485 46.9119C182.121 46.4657 181.673 46.1138 181.174 45.8809C180.674 45.6481 180.134 45.5399 179.593 45.5641C179.051 45.5883 178.521 45.7442 178.04 46.0209L146.267 33.341L144.868 42.1698L176.54 51.8575C177.011 52.7262 177.753 53.3723 178.624 53.6734C179.495 53.9745 180.435 53.9098 181.266 53.4914C182.097 53.073 182.761 52.3301 183.133 51.4034C183.504 50.4767 183.557 49.4306 183.282 48.4633Z" fill="black"/>
<path d="M151.907 34.9498L148.906 43.6685C148.821 43.9166 148.689 44.1412 148.518 44.3272C148.348 44.5132 148.143 44.6562 147.919 44.7464C147.694 44.8365 147.454 44.8718 147.217 44.8497C146.979 44.8277 146.748 44.7488 146.54 44.6186L139.248 40.0535C138.109 39.5603 137.193 38.5852 136.7 37.3419C136.207 36.0986 136.177 34.6885 136.617 33.4207C137.057 32.153 137.931 31.1311 139.048 30.5791C140.164 30.027 141.432 29.9899 142.573 30.4758L150.715 32.4846C150.948 32.5422 151.167 32.655 151.358 32.8153C151.548 32.9756 151.705 33.1797 151.818 33.4137C151.932 33.6476 151.998 33.9059 152.013 34.171C152.028 34.4361 151.992 34.7017 151.907 34.9498Z" fill="#6C63FF"/>
<path d="M185.783 56.5363L174.398 62.2924L175.893 68.5516C178.779 80.6385 179.545 93.2308 178.149 105.64L186.473 107.574L193.372 88.003L190.958 65.746L185.783 56.5363Z" fill="#6C63FF"/>
<path d="M208.121 85.5087C200.641 85.5087 194.545 91.5573 194.249 99.1315H221.993C221.697 91.5572 215.601 85.5087 208.121 85.5087Z" fill="#3F3D56"/>
<path d="M202.298 86.814C201.909 52.6233 184.403 55.7688 184.403 55.7688C184.403 55.7688 184.73 66.4112 184.887 66.7422C196.043 90.2193 177.632 117.743 154.197 112.679C153.755 112.584 153.33 112.487 152.923 112.389C149.954 111.699 147.332 109.777 145.591 107.014C143.85 104.251 143.121 100.854 143.552 97.514C145.861 76.8934 134.379 77.2583 134.379 77.2583H117.589L108.87 68.5298C108.562 68.2217 108.191 68.0021 107.789 67.8903C107.388 67.7785 106.967 67.7779 106.566 67.8885C106.164 67.9991 105.792 68.2175 105.484 68.5247C105.175 68.8319 104.939 69.2185 104.796 69.6506L103.674 73.0372C103.674 73.0372 87.1144 74.9559 88.4944 92.9917H93.614C93.6016 93.5042 93.6201 94.017 93.6693 94.5267L131.878 94.1811C134.117 94.1609 136.094 96.1795 136.104 98.6708C136.106 99.2773 135.998 99.8781 135.787 100.437C135.576 100.996 135.265 101.502 134.874 101.925C134.483 102.348 134.019 102.678 133.51 102.897C133.002 103.115 132.459 103.218 131.914 103.197L125.754 102.969C123.856 112.371 128.514 118.702 133.645 122.684C138.477 126.378 144.21 128.337 150.073 128.296H166.808C188.543 128.296 192.338 107.958 192.338 107.958C203.722 102.585 202.298 86.814 202.298 86.814Z" fill="#3F3D56"/>
<path d="M207.086 139.424C217.804 139.424 226.492 129.76 226.492 117.839C226.492 105.918 217.804 96.2535 207.086 96.2535C196.368 96.2535 187.68 105.918 187.68 117.839C187.68 129.76 196.368 139.424 207.086 139.424Z" fill="#3F3D56"/>
<path d="M207.086 123.129C209.713 123.129 211.842 120.761 211.842 117.839C211.842 114.917 209.713 112.548 207.086 112.548C204.459 112.548 202.33 114.917 202.33 117.839C202.33 120.761 204.459 123.129 207.086 123.129Z" fill="white"/>
<path d="M109.108 139.424C121.445 139.424 131.446 128.3 131.446 114.577C131.446 100.854 121.445 89.7299 109.108 89.7299C96.7706 89.7299 86.7693 100.854 86.7693 114.577C86.7693 128.3 96.7706 139.424 109.108 139.424Z" fill="#3F3D56"/>
<path d="M109.108 120.667C112.132 120.667 114.583 117.941 114.583 114.577C114.583 111.214 112.132 108.487 109.108 108.487C106.084 108.487 103.633 111.214 103.633 114.577C103.633 117.941 106.084 120.667 109.108 120.667Z" fill="white"/>
<path d="M174.43 63.9932L170.334 51.6177C170.12 50.9727 170.023 50.2873 170.048 49.6005C170.073 48.9138 170.219 48.2391 170.478 47.6152C170.737 46.9912 171.104 46.4301 171.558 45.9639C172.012 45.4977 172.544 45.1355 173.124 44.8981L184.867 40.0893C185.888 39.6714 186.972 39.4811 188.058 39.5294C189.145 39.5776 190.212 39.8633 191.199 40.3703C192.186 40.8772 193.074 41.5955 193.811 42.484C194.549 43.3726 195.122 44.414 195.497 45.5488C195.836 46.5674 196.009 47.645 196.008 48.731C196.004 50.11 195.723 51.4706 195.187 52.7139C194.651 53.9572 193.872 55.0519 192.908 55.9185C192.211 56.5401 191.428 57.0312 190.589 57.3725L174.43 63.9932Z" fill="#3F3D56"/>
<path d="M195.836 48.7309C195.835 50.0818 195.562 51.4153 195.036 52.6333C194.511 53.8512 193.747 54.9227 192.8 55.7687C191.347 55.3426 189.995 54.5696 188.839 53.5036C187.682 52.4376 186.747 51.1042 186.101 49.5959C185.454 48.0877 185.11 46.4409 185.093 44.77C185.077 43.0991 185.387 41.4441 186.003 39.9202C187.187 39.634 188.413 39.6462 189.591 39.9559C190.77 40.2656 191.871 40.865 192.814 41.7101C193.757 42.5551 194.518 43.6243 195.041 44.8393C195.564 46.0542 195.835 47.384 195.836 48.7309Z" fill="#6C63FF"/>
<path d="M91.4268 95.486C94.0943 95.486 96.2567 92.5653 96.2567 88.9624C96.2567 85.3595 94.0943 82.4388 91.4268 82.4388C88.7593 82.4388 86.5969 85.3595 86.5969 88.9624C86.5969 92.5653 88.7593 95.486 91.4268 95.486Z" fill="#6C63FF"/>
<path d="M155.272 112.054H159.501L161.514 99.8526L155.271 99.853L155.272 112.054Z" fill="#FFB8B8"/>
<path d="M154.193 110.518L162.522 110.518H162.523C163.22 110.518 163.91 110.671 164.554 110.967C165.198 111.264 165.783 111.699 166.276 112.247C166.769 112.796 167.16 113.447 167.427 114.163C167.694 114.879 167.831 115.647 167.831 116.422V116.614L154.193 116.615L154.193 110.518Z" fill="#2F2E41"/>
<path d="M160.181 107.046C160.132 107.046 160.082 107.044 160.033 107.039L154.179 106.564C153.943 106.54 153.714 106.455 153.512 106.317C153.309 106.179 153.137 105.991 153.01 105.767C152.883 105.544 152.804 105.291 152.779 105.028C152.754 104.765 152.783 104.499 152.865 104.251L160.699 84.6743C160.755 84.4998 160.778 84.3143 160.766 84.1294C160.754 83.9446 160.708 83.7644 160.631 83.6003C160.554 83.4342 160.446 83.2882 160.315 83.1718C160.183 83.0554 160.031 82.9713 159.868 82.925C156.185 81.854 146.734 79.0022 138.552 75.6654C135.047 74.2357 132.84 72.1698 131.991 69.5248C130.872 66.0378 132.527 62.8577 132.598 62.7242L132.654 62.6197L140.352 63.398L148.698 64.1876L166.987 75.0965C168.52 76.0184 169.684 77.5485 170.248 79.3821C170.812 81.2157 170.734 83.2183 170.03 84.991L161.598 106.023C161.476 106.328 161.277 106.586 161.026 106.768C160.774 106.95 160.481 107.046 160.181 107.046Z" fill="#2F2E41"/>
<path d="M141.691 24.6674C146.371 24.6674 150.164 20.4476 150.164 15.2423C150.164 10.037 146.371 5.8172 141.691 5.8172C137.011 5.8172 133.217 10.037 133.217 15.2423C133.217 20.4476 137.011 24.6674 141.691 24.6674Z" fill="#FFB8B8"/>
<path d="M152.857 113.206H157.086L159.099 101.004L152.856 101.004L152.857 113.206Z" fill="#FFB8B8"/>
<path d="M151.778 111.67L160.107 111.669H160.108C160.805 111.669 161.495 111.822 162.139 112.119C162.783 112.415 163.368 112.85 163.861 113.399C164.354 113.947 164.745 114.598 165.012 115.314C165.279 116.03 165.416 116.798 165.416 117.574V117.765L151.778 117.766L151.778 111.67Z" fill="#2F2E41"/>
<path d="M157.766 108.198C157.717 108.198 157.667 108.195 157.618 108.19L151.764 107.716C151.528 107.691 151.299 107.607 151.097 107.468C150.894 107.33 150.722 107.142 150.595 106.919C150.468 106.695 150.389 106.442 150.364 106.179C150.339 105.916 150.368 105.65 150.45 105.402L158.284 85.8256C158.34 85.6511 158.363 85.4655 158.351 85.2807C158.339 85.0958 158.293 84.9157 158.216 84.7516C158.139 84.5855 158.031 84.4395 157.9 84.3231C157.768 84.2067 157.616 84.1226 157.453 84.0763C153.77 83.0052 144.319 80.1534 136.137 76.8166C132.632 75.387 130.425 73.321 129.576 70.676C128.457 67.189 130.112 64.0089 130.183 63.8755L130.239 63.7709L137.937 64.5493L146.283 65.3389L164.572 76.2478C166.105 77.1696 167.269 78.6997 167.833 80.5334C168.397 82.367 168.319 84.3696 167.615 86.1422L159.183 107.174C159.061 107.479 158.862 107.738 158.611 107.919C158.359 108.101 158.066 108.198 157.766 108.198Z" fill="#2F2E41"/>
<path d="M144.304 30.0118L135.334 26.5581C135.334 26.5581 129.703 31.3702 132.408 43.3079C133.821 49.4681 133.409 55.9707 131.235 61.8503C130.974 62.5778 130.672 63.2867 130.332 63.9729C130.332 63.9729 140.337 77.4038 149.652 67.4266L146.029 48.0476C146.029 48.0476 151.722 35.1923 144.304 30.0118Z" fill="#6C63FF"/>
<path d="M142.743 24.9879C141.537 22.98 140.585 20.1959 141.913 18.2855C143.224 16.3997 145.809 16.6775 147.816 15.8431C150.612 14.6809 152.233 11.0274 151.728 7.75551C151.222 4.4836 148.861 1.77128 146.048 0.661493C143.235 -0.448299 140.063 -0.0873686 137.308 1.19062C133.917 2.76385 131.008 5.80715 129.788 9.6622C128.568 13.5173 129.22 18.146 131.751 21.1091C134.464 24.2858 138.722 25.1324 142.66 25.081" fill="#2F2E41"/>
<path d="M134.861 7.86053C133.341 9.23658 131.023 8.62539 129.391 7.41774C127.76 6.21009 126.437 4.49046 124.672 3.54362C121.56 1.87436 117.798 2.98403 114.77 4.83303C111.741 6.68202 109.057 9.23646 105.858 10.6874C102.659 12.1384 98.5773 12.2102 96.1552 9.47036C95.5591 11.3913 95.5104 13.47 96.0156 15.4229C96.5209 17.3758 97.5555 19.1077 98.9784 20.3824C100.401 21.6571 102.143 22.4124 103.966 22.5453C105.789 22.6782 107.605 22.1823 109.165 21.1251C112.67 18.7504 114.606 13.7712 118.537 12.4605C120.712 11.7352 123.048 12.3194 125.247 12.9521C127.445 13.5848 129.738 14.2685 131.957 13.7299C134.175 13.1912 136.251 10.9734 135.969 8.46695L134.861 7.86053Z" fill="#2F2E41"/>
<path d="M182.86 48.0794C182.637 47.5301 182.309 47.0419 181.898 46.6492C181.487 46.2564 181.003 45.9686 180.482 45.8061C179.96 45.6436 179.412 45.6103 178.878 45.7086C178.343 45.8069 177.835 46.0344 177.388 46.375L144.451 38.1525L144.042 47.106L176.546 52.373C177.11 53.1703 177.918 53.7097 178.816 53.889C179.713 54.0683 180.639 53.875 181.417 53.3457C182.196 52.8165 182.773 51.9881 183.038 51.0175C183.304 50.0469 183.241 49.0015 182.86 48.0794Z" fill="#FFB8B8"/>
<path d="M150.226 38.975L148.216 48.0389C148.158 48.2968 148.052 48.5379 147.903 48.7459C147.755 48.9539 147.568 49.1238 147.355 49.2441C147.142 49.3644 146.908 49.4322 146.67 49.443C146.431 49.4538 146.193 49.4072 145.972 49.3065L138.23 45.7771C137.044 45.4447 136.026 44.603 135.398 43.4366C134.77 42.2701 134.584 40.8742 134.88 39.5551C135.176 38.2361 135.931 37.1016 136.978 36.4007C138.026 35.6997 139.28 35.4896 140.467 35.8163L148.77 36.6922C149.008 36.7173 149.238 36.7992 149.444 36.9322C149.651 37.0651 149.83 37.2461 149.968 37.4628C150.106 37.6794 150.201 37.9266 150.245 38.1876C150.29 38.4485 150.283 38.7171 150.226 38.975V38.975Z" fill="#6C63FF"/>
<path d="M179.055 55.1931C180.389 55.1931 181.47 53.9905 181.47 52.507C181.47 51.0234 180.389 49.8208 179.055 49.8208C177.721 49.8208 176.64 51.0234 176.64 52.507C176.64 53.9905 177.721 55.1931 179.055 55.1931Z" fill="#6C63FF"/>
<path d="M286 139.616C286 139.718 285.963 139.815 285.899 139.887C285.834 139.959 285.746 140 285.655 140H0.344994C0.253496 140 0.165745 139.96 0.101046 139.888C0.0363472 139.816 0 139.718 0 139.616C0 139.514 0.0363472 139.417 0.101046 139.345C0.165745 139.273 0.253496 139.232 0.344994 139.232H285.655C285.746 139.233 285.834 139.273 285.899 139.345C285.963 139.417 286 139.515 286 139.616Z" fill="#3F3D56"/>
</g>
<defs>
<clipPath id="clip0_34_128">
<rect width="286" height="140" fill="white"/>
</clipPath>
</defs>
</svg>
