<svg width="531" height="443" viewBox="0 0 531 443" fill="none" xmlns="http://www.w3.org/2000/svg">
<g clip-path="url(#clip0_219_127)">
<path d="M218.796 138.245H216.385V72.2158C216.385 67.1973 215.396 62.2278 213.475 57.5912C211.554 52.9547 208.738 48.7418 205.189 45.1931C201.639 41.6445 197.425 38.8295 192.787 36.909C188.149 34.9885 183.178 34 178.158 34H38.2268C33.2068 34 28.236 34.9885 23.5981 36.909C18.9602 38.8295 14.7461 41.6445 11.1964 45.1931C7.64668 48.7418 4.8309 52.9547 2.90983 57.5912C0.988749 62.2278 -7.85269e-06 67.1973 0 72.2158V434.456C-4.7116e-06 439.475 0.988757 444.444 2.90984 449.081C4.83091 453.717 7.64669 457.93 11.1964 461.479C14.7461 465.027 18.9602 467.842 23.5981 469.763C28.236 471.683 33.2068 472.672 38.2268 472.672H178.158C183.178 472.672 188.149 471.683 192.787 469.763C197.425 467.842 201.639 465.027 205.189 461.479C208.738 457.93 211.554 453.717 213.475 449.081C215.396 444.444 216.385 439.475 216.385 434.456V185.245H218.796V138.245Z" fill="#E6E6E6"/>
<path d="M179.7 43.9424H161.435C162.275 46.0012 162.595 48.2349 162.368 50.4468C162.142 52.6586 161.374 54.7808 160.133 56.6262C158.893 58.4716 157.217 59.9838 155.254 61.0294C153.292 62.0749 151.102 62.6219 148.878 62.6221H68.7126C66.4885 62.6219 64.2986 62.075 62.3357 61.0294C60.3729 59.9838 58.6974 58.4716 57.4568 56.6262C56.2162 54.7808 55.4486 52.6586 55.2217 50.4468C54.9947 48.2349 55.3154 46.0012 56.1554 43.9424H39.0952C35.3463 43.9424 31.6341 44.6806 28.1706 46.1148C24.7071 47.549 21.5601 49.6512 18.9092 52.3013C16.2583 54.9514 14.1555 58.0975 12.7209 61.56C11.2863 65.0225 10.5479 68.7337 10.5479 72.4815V434.19C10.5479 437.938 11.2863 441.649 12.7209 445.112C14.1555 448.574 16.2583 451.72 18.9092 454.37C21.56 457.021 24.7071 459.123 28.1706 460.557C31.6341 461.991 35.3463 462.729 39.0952 462.729H179.7C183.449 462.729 187.162 461.991 190.625 460.557C194.089 459.123 197.236 457.021 199.887 454.37C202.537 451.72 204.64 448.574 206.075 445.112C207.509 441.649 208.248 437.938 208.248 434.19V72.4815C208.248 68.7337 207.509 65.0225 206.075 61.56C204.64 58.0975 202.537 54.9514 199.886 52.3013C197.236 49.6512 194.089 47.549 190.625 46.1148C187.162 44.6806 183.449 43.9424 179.7 43.9424Z" fill="white"/>
<path d="M67.973 117.474H59.5779C59.2827 117.474 58.9996 117.591 58.7908 117.8C58.5821 118.009 58.4648 118.292 58.4648 118.587V122.271C58.4648 122.566 58.5821 122.849 58.7908 123.057C58.9996 123.266 59.2827 123.383 59.5779 123.383H60.969V128.903H66.5818V123.383H67.973C68.2682 123.383 68.5513 123.266 68.76 123.057C68.9687 122.849 69.086 122.566 69.086 122.271V118.587C69.086 118.292 68.9687 118.009 68.76 117.8C68.5513 117.591 68.2682 117.474 67.973 117.474Z" fill="#E6E6E6"/>
<path d="M76.3816 151.188C71.2402 143.667 68.6118 134.712 68.873 125.606C68.8777 125.396 68.8095 125.19 68.6799 125.025C68.5504 124.859 68.3676 124.744 68.1625 124.698V123.106H59.2961V124.676H59.174C58.9327 124.676 58.7014 124.772 58.531 124.943C58.3606 125.114 58.2651 125.345 58.2654 125.586C58.2654 125.608 58.2662 125.63 58.2679 125.652C58.9664 135.387 56.6077 144.116 51.1918 151.841C50.8802 152.285 50.7209 152.818 50.7381 153.36L51.7076 183.34C51.7309 184.009 52.0116 184.643 52.4912 185.11C52.9708 185.576 53.6121 185.84 54.2814 185.845H74.3358C75.0127 185.84 75.6607 185.57 76.1418 185.094C76.6229 184.618 76.8989 183.973 76.9112 183.296L77.2848 154.187C77.2959 153.119 76.9808 152.073 76.3816 151.188Z" fill="#E6E6E6"/>
<path d="M73.2069 161.146H55.7511C55.4927 161.146 55.2374 161.202 55.0026 161.31C54.7679 161.418 54.5592 161.575 54.3909 161.772C54.2227 161.968 54.0988 162.198 54.0279 162.446C53.9569 162.694 53.9405 162.955 53.9798 163.211L56.6176 180.351H71.7643L74.9683 163.268C75.0169 163.01 75.0078 162.743 74.9417 162.488C74.8756 162.234 74.7541 161.996 74.586 161.794C74.4178 161.591 74.207 161.428 73.9687 161.316C73.7303 161.205 73.4702 161.146 73.2069 161.146Z" fill="white"/>
<path d="M161.427 207.284H153.032C152.737 207.284 152.454 207.401 152.245 207.61C152.036 207.819 151.919 208.102 151.919 208.397V212.081C151.919 212.376 152.036 212.659 152.245 212.867C152.454 213.076 152.737 213.193 153.032 213.193H154.423V218.713H160.036V213.193H161.427C161.722 213.193 162.005 213.076 162.214 212.867C162.423 212.659 162.54 212.376 162.54 212.081V208.397C162.54 208.102 162.423 207.819 162.214 207.61C162.005 207.401 161.722 207.284 161.427 207.284Z" fill="#E6E6E6"/>
<path d="M169.835 240.998C164.694 233.477 162.065 224.522 162.327 215.416C162.331 215.206 162.263 215.001 162.134 214.835C162.004 214.67 161.821 214.554 161.616 214.508V212.917H152.75V214.486H152.628C152.508 214.486 152.39 214.51 152.28 214.556C152.169 214.602 152.069 214.669 151.985 214.753C151.9 214.838 151.833 214.938 151.788 215.049C151.742 215.159 151.719 215.277 151.719 215.397C151.719 215.419 151.72 215.441 151.721 215.463C152.42 225.197 150.061 233.927 144.645 241.651C144.334 242.095 144.175 242.628 144.192 243.17L145.161 273.151C145.184 273.82 145.465 274.453 145.945 274.92C146.424 275.387 147.066 275.65 147.735 275.656H167.789C168.466 275.65 169.114 275.381 169.595 274.905C170.076 274.428 170.353 273.783 170.365 273.107L170.738 243.998C170.749 242.93 170.434 241.883 169.835 240.998Z" fill="#E6E6E6"/>
<path d="M166.661 250.957H149.205C148.947 250.957 148.692 251.013 148.457 251.121C148.222 251.229 148.013 251.386 147.845 251.582C147.677 251.778 147.553 252.008 147.482 252.257C147.411 252.505 147.395 252.766 147.434 253.021L150.072 270.162H165.218L168.422 253.079C168.471 252.82 168.462 252.554 168.396 252.299C168.33 252.044 168.208 251.807 168.04 251.604C167.872 251.402 167.661 251.239 167.423 251.127C167.184 251.015 166.924 250.957 166.661 250.957H166.661Z" fill="white"/>
<path d="M56.1703 334.25H52.1881C52.0481 334.25 51.9138 334.306 51.8148 334.405C51.7158 334.504 51.6602 334.638 51.6602 334.778V336.525C51.6602 336.665 51.7158 336.799 51.8148 336.898C51.9138 336.997 52.0481 337.053 52.1881 337.053H52.848V339.671H55.5104V337.053H56.1703C56.3103 337.053 56.4446 336.997 56.5436 336.898C56.6426 336.799 56.6983 336.665 56.6983 336.525V334.778C56.6983 334.638 56.6426 334.504 56.5436 334.405C56.4446 334.306 56.3103 334.25 56.1703 334.25Z" fill="#E6E6E6"/>
<path d="M60.1591 350.242C57.7203 346.675 56.4736 342.427 56.5974 338.108C56.5997 338.008 56.5673 337.911 56.5059 337.832C56.4444 337.754 56.3577 337.699 56.2604 337.677V336.922H52.0547V337.666H51.9967C51.9401 337.667 51.884 337.678 51.8316 337.699C51.7793 337.721 51.7318 337.753 51.6917 337.793C51.6517 337.833 51.62 337.881 51.5984 337.933C51.5768 337.986 51.5657 338.042 51.5658 338.098C51.5658 338.109 51.5661 338.119 51.5669 338.13C51.9551 342.537 50.7657 346.939 48.2105 350.552C48.0626 350.763 47.9871 351.015 47.9952 351.273L48.4551 365.494C48.4661 365.811 48.5993 366.112 48.8268 366.333C49.0543 366.554 49.3585 366.679 49.676 366.682H59.1887C59.5098 366.679 59.8172 366.552 60.0453 366.326C60.2735 366.1 60.4045 365.794 60.4103 365.473L60.5875 351.665C60.5928 351.158 60.4433 350.662 60.1591 350.242Z" fill="#E6E6E6"/>
<path d="M58.79 355.47H49.7134V360.007H58.79V355.47Z" fill="white"/>
<path d="M74.7074 334.25H70.7252C70.5852 334.25 70.4509 334.306 70.3519 334.405C70.2529 334.504 70.1973 334.638 70.1973 334.778V336.525C70.1973 336.665 70.2529 336.799 70.3519 336.898C70.4509 336.997 70.5852 337.053 70.7252 337.053H71.3851V339.671H74.0475V337.053H74.7074C74.8474 337.053 74.9817 336.997 75.0807 336.898C75.1798 336.799 75.2354 336.665 75.2354 336.525V334.778C75.2354 334.638 75.1798 334.504 75.0807 334.405C74.9817 334.306 74.8474 334.25 74.7074 334.25Z" fill="#E6E6E6"/>
<path d="M78.6962 350.242C76.2574 346.675 75.0107 342.427 75.1346 338.108C75.1368 338.008 75.1044 337.911 75.043 337.832C74.9815 337.754 74.8948 337.699 74.7975 337.677V336.922H70.5918V337.666H70.5338C70.4772 337.667 70.4211 337.678 70.3688 337.699C70.3164 337.721 70.2689 337.753 70.2289 337.793C70.1889 337.833 70.1571 337.881 70.1355 337.933C70.1139 337.986 70.1028 338.042 70.1029 338.098C70.1029 338.109 70.1033 338.119 70.1041 338.13C70.4922 342.537 69.3028 346.939 66.7476 350.552C66.5997 350.763 66.5242 351.015 66.5323 351.273L66.9922 365.494C67.0032 365.811 67.1364 366.112 67.3639 366.333C67.5914 366.554 67.8956 366.679 68.2131 366.682H77.7258C78.0469 366.679 78.3543 366.552 78.5825 366.326C78.8107 366.1 78.9416 365.794 78.9474 365.473L79.1247 351.665C79.1299 351.158 78.9805 350.662 78.6962 350.242Z" fill="#E6E6E6"/>
<path d="M77.3272 355.47H68.2505V360.007H77.3272V355.47Z" fill="white"/>
<path d="M93.245 334.25H89.2628C89.1228 334.25 88.9885 334.306 88.8895 334.405C88.7905 334.504 88.7349 334.638 88.7349 334.778V336.525C88.7349 336.665 88.7905 336.799 88.8895 336.898C88.9885 336.997 89.1228 337.053 89.2628 337.053H89.9227V339.671H92.5851V337.053H93.245C93.385 337.053 93.5193 336.997 93.6183 336.898C93.7174 336.799 93.773 336.665 93.773 336.525V334.778C93.773 334.638 93.7174 334.504 93.6183 334.405C93.5193 334.306 93.385 334.25 93.245 334.25Z" fill="#E6E6E6"/>
<path d="M97.2338 350.242C94.795 346.675 93.5483 342.427 93.6722 338.108C93.6744 338.008 93.642 337.911 93.5806 337.832C93.5191 337.754 93.4324 337.699 93.3351 337.677V336.922H89.1294V337.666H89.0714C89.0148 337.667 88.9587 337.678 88.9063 337.699C88.854 337.721 88.8065 337.753 88.7665 337.793C88.7265 337.833 88.6947 337.881 88.6731 337.933C88.6515 337.986 88.6404 338.042 88.6405 338.098C88.6405 338.109 88.6409 338.119 88.6417 338.13C89.0298 342.537 87.8404 346.939 85.2852 350.552C85.1373 350.763 85.0618 351.015 85.0699 351.273L85.5298 365.494C85.5408 365.811 85.674 366.112 85.9015 366.333C86.129 366.554 86.4332 366.679 86.7507 366.682H96.2634C96.5845 366.679 96.8919 366.552 97.1201 366.326C97.3483 366.1 97.4792 365.794 97.485 365.473L97.6623 351.665C97.6675 351.158 97.5181 350.662 97.2338 350.242Z" fill="#E6E6E6"/>
<path d="M95.8647 355.47H86.7881V360.007H95.8647V355.47Z" fill="white"/>
<path d="M146.843 299.506H138.448C138.301 299.506 138.157 299.535 138.022 299.591C137.887 299.647 137.764 299.728 137.66 299.832C137.557 299.935 137.475 300.058 137.419 300.193C137.363 300.328 137.334 300.472 137.334 300.619V304.302C137.334 304.598 137.452 304.881 137.66 305.089C137.869 305.298 138.152 305.415 138.448 305.415H139.839V310.935H145.451V305.415H146.843C147.138 305.415 147.421 305.298 147.63 305.089C147.838 304.881 147.956 304.598 147.956 304.302V300.619C147.956 300.472 147.927 300.328 147.871 300.193C147.815 300.058 147.733 299.935 147.63 299.832C147.526 299.728 147.404 299.647 147.269 299.591C147.134 299.535 146.989 299.506 146.843 299.506Z" fill="#E6E6E6"/>
<path d="M155.251 333.22C150.11 325.699 147.481 316.744 147.743 307.638C147.747 307.428 147.679 307.223 147.55 307.057C147.42 306.892 147.237 306.776 147.032 306.73V305.138H138.166V306.708H138.044C137.924 306.708 137.806 306.732 137.696 306.778C137.585 306.823 137.485 306.89 137.401 306.975C137.316 307.06 137.249 307.16 137.204 307.27C137.158 307.381 137.135 307.499 137.135 307.618C137.135 307.641 137.136 307.663 137.138 307.685C137.836 317.419 135.477 326.148 130.061 333.873C129.75 334.317 129.591 334.85 129.608 335.392L130.577 365.373C130.6 366.041 130.881 366.675 131.361 367.142C131.84 367.609 132.482 367.872 133.151 367.877H153.205C153.882 367.872 154.53 367.602 155.011 367.126C155.492 366.65 155.769 366.005 155.781 365.328L156.154 336.22C156.166 335.151 155.85 334.105 155.251 333.22Z" fill="#E6E6E6"/>
<path d="M152.077 343.179H134.621C134.362 343.179 134.107 343.235 133.872 343.342C133.637 343.45 133.429 343.608 133.261 343.804C133.092 344 132.968 344.23 132.898 344.478C132.827 344.727 132.81 344.987 132.849 345.243L135.487 362.384H150.634L153.838 345.301C153.886 345.042 153.877 344.776 153.811 344.521C153.745 344.266 153.624 344.029 153.456 343.826C153.287 343.624 153.077 343.461 152.838 343.349C152.6 343.237 152.34 343.179 152.077 343.179Z" fill="white"/>
<path d="M151.426 189.705H101.383C104.882 170.794 104.077 147.959 101.383 123.402H151.426C148.804 147.959 148.02 170.794 151.426 189.705Z" fill="#E6E6E6"/>
<path d="M126.706 166.8C133.366 166.8 138.765 161.403 138.765 154.745C138.765 148.087 133.366 142.69 126.706 142.69C120.046 142.69 114.647 148.087 114.647 154.745C114.647 161.403 120.046 166.8 126.706 166.8Z" fill="white"/>
<path d="M105.604 277.707H55.5605C59.0592 258.797 58.2543 235.962 55.5605 211.404H105.604C102.981 235.962 102.198 258.797 105.604 277.707Z" fill="#E6E6E6"/>
<path d="M80.8833 254.803C87.543 254.803 92.9418 249.405 92.9418 242.747C92.9418 236.09 87.543 230.692 80.8833 230.692C74.2235 230.692 68.8247 236.09 68.8247 242.747C68.8247 249.405 74.2235 254.803 80.8833 254.803Z" fill="white"/>
<path d="M179.763 193.924H129.72C133.219 175.014 132.414 152.179 129.72 127.621H179.763C177.141 152.179 176.358 175.014 179.763 193.924Z" fill="#E6E6E6"/>
<path d="M155.043 171.019C161.703 171.019 167.101 165.622 167.101 158.964C167.101 152.306 161.703 146.909 155.043 146.909C148.383 146.909 142.984 152.306 142.984 158.964C142.984 165.622 148.383 171.019 155.043 171.019Z" fill="white"/>
<path d="M179.763 190.91H129.72C133.219 172 132.414 149.165 129.72 124.607H179.763C177.141 149.165 176.358 172 179.763 190.91Z" fill="#E6E6E6"/>
<path d="M155.043 168.006C161.703 168.006 167.101 162.608 167.101 155.951C167.101 149.293 161.703 143.896 155.043 143.896C148.383 143.896 142.984 149.293 142.984 155.951C142.984 162.608 148.383 168.006 155.043 168.006Z" fill="white"/>
<path d="M179.763 193.924H129.72C133.219 175.014 132.414 152.179 129.72 127.621H179.763C177.141 152.179 176.358 175.014 179.763 193.924Z" fill="#E6E6E6"/>
<path d="M155.043 171.019C161.703 171.019 167.101 165.622 167.101 158.964C167.101 152.306 161.703 146.909 155.043 146.909C148.383 146.909 142.984 152.306 142.984 158.964C142.984 165.622 148.383 171.019 155.043 171.019Z" fill="white"/>
<path d="M191.219 186.088H27.2227V204.171H191.219V186.088Z" fill="#E6E6E6"/>
<path d="M191.219 275.899H27.2227V293.982H191.219V275.899Z" fill="#E6E6E6"/>
<path d="M191.219 365.709H27.2227V383.792H191.219V365.709Z" fill="#E6E6E6"/>
<path d="M476.497 439.07L435.641 410.181C449.421 396.762 461.953 377.654 473.939 356.049L514.795 384.938C498.47 403.474 484.64 421.665 476.497 439.07Z" fill="#FBDE0B"/>
<path d="M476.509 408.312C483.168 408.312 488.567 402.915 488.567 396.257C488.567 389.599 483.168 384.202 476.509 384.202C469.849 384.202 464.45 389.599 464.45 396.257C464.45 402.915 469.849 408.312 476.509 408.312Z" fill="white"/>
<path d="M279.41 307.242H274.926C274.768 307.242 274.617 307.305 274.505 307.416C274.394 307.528 274.331 307.679 274.331 307.837V309.805C274.331 309.883 274.346 309.96 274.376 310.032C274.406 310.104 274.45 310.17 274.505 310.225C274.56 310.28 274.626 310.324 274.698 310.354C274.77 310.384 274.848 310.399 274.926 310.399H275.669V313.348H278.667V310.399H279.41C279.568 310.399 279.719 310.336 279.831 310.225C279.942 310.113 280.005 309.962 280.005 309.805V307.837C280.005 307.679 279.942 307.528 279.831 307.416C279.719 307.305 279.568 307.242 279.41 307.242Z" fill="#E6E6E6"/>
<path d="M283.902 325.253C281.155 321.235 279.751 316.451 279.891 311.586C279.893 311.474 279.857 311.365 279.788 311.276C279.718 311.188 279.621 311.126 279.511 311.101V310.251H274.775V311.089H274.709C274.646 311.09 274.582 311.102 274.523 311.127C274.465 311.151 274.411 311.187 274.366 311.232C274.321 311.277 274.285 311.331 274.261 311.39C274.236 311.449 274.224 311.512 274.224 311.576C274.224 311.588 274.224 311.6 274.225 311.611C274.663 316.575 273.323 321.533 270.445 325.601C270.279 325.839 270.194 326.123 270.203 326.413L270.721 342.429C270.733 342.786 270.883 343.125 271.139 343.374C271.396 343.624 271.738 343.764 272.096 343.767H282.809C283.171 343.764 283.517 343.62 283.774 343.366C284.031 343.111 284.178 342.767 284.185 342.405L284.384 326.855C284.39 326.284 284.222 325.725 283.902 325.253Z" fill="#FBDE0B"/>
<path opacity="0.2" d="M278.475 307.883C278.475 308.223 278.34 308.55 278.1 308.79C277.859 309.031 277.533 309.166 277.192 309.166C276.852 309.166 276.526 309.031 276.285 308.79C276.045 308.55 275.91 308.223 275.91 307.883" fill="black"/>
<path d="M281.815 328.338H272.771V334.366H281.815V328.338Z" fill="white"/>
<path d="M421.333 369.81H412.938C412.643 369.81 412.36 369.927 412.151 370.136C411.942 370.345 411.825 370.628 411.825 370.923V374.607C411.825 374.902 411.942 375.185 412.151 375.393C412.36 375.602 412.643 375.719 412.938 375.719H414.329V381.239H419.942V375.719H421.333C421.629 375.719 421.912 375.602 422.12 375.393C422.329 375.185 422.446 374.902 422.446 374.607V370.923C422.446 370.628 422.329 370.345 422.12 370.136C421.912 369.927 421.629 369.81 421.333 369.81Z" fill="#E6E6E6"/>
<path d="M429.741 403.524C424.6 396.003 421.972 387.048 422.233 377.942C422.238 377.732 422.169 377.527 422.04 377.361C421.91 377.196 421.727 377.08 421.522 377.034V375.442H412.656V377.012H412.534C412.414 377.012 412.296 377.036 412.186 377.082C412.075 377.128 411.975 377.195 411.891 377.279C411.806 377.364 411.74 377.464 411.694 377.575C411.648 377.685 411.625 377.803 411.625 377.923C411.625 377.945 411.626 377.967 411.628 377.989C412.326 387.723 409.968 396.452 404.552 404.177C404.24 404.621 404.081 405.154 404.098 405.696L405.067 435.677C405.091 436.345 405.371 436.979 405.851 437.446C406.331 437.913 406.972 438.176 407.641 438.182H427.696C428.373 438.176 429.021 437.907 429.502 437.43C429.983 436.954 430.259 436.309 430.271 435.633L430.645 406.524C430.656 405.455 430.341 404.409 429.741 403.524Z" fill="#FBDE0B"/>
<path opacity="0.2" d="M419.583 371.011C419.583 371.647 419.33 372.258 418.88 372.708C418.429 373.158 417.818 373.411 417.182 373.411C416.545 373.411 415.934 373.158 415.484 372.708C415.033 372.258 414.78 371.647 414.78 371.011" fill="black"/>
<path d="M426.567 413.483H409.112C408.853 413.483 408.598 413.539 408.363 413.647C408.128 413.755 407.92 413.912 407.751 414.108C407.583 414.304 407.459 414.534 407.388 414.783C407.317 415.031 407.301 415.292 407.34 415.547L409.978 432.688H425.125L428.329 415.605C428.377 415.346 428.368 415.08 428.302 414.825C428.236 414.57 428.114 414.333 427.946 414.13C427.778 413.928 427.567 413.765 427.329 413.653C427.091 413.541 426.831 413.483 426.567 413.483Z" fill="white"/>
<path d="M397.381 439.023H347.338C350.837 420.112 350.032 397.277 347.338 372.72H397.381C394.759 397.277 393.975 420.112 397.381 439.023Z" fill="#FBDE0B"/>
<path d="M372.661 416.118C379.32 416.118 384.719 410.721 384.719 404.063C384.719 397.405 379.32 392.008 372.661 392.008C366.001 392.008 360.602 397.405 360.602 404.063C360.602 410.721 366.001 416.118 372.661 416.118Z" fill="white"/>
<path d="M192.692 230.357L203.926 229.336L211.076 211.98L198.31 204.833L192.692 230.357Z" fill="#FFB8B8"/>
<path d="M295.794 278.007C296.167 277.076 296.314 276.069 296.222 275.07C296.13 274.07 295.802 273.107 295.264 272.26C294.727 271.412 293.996 270.705 293.131 270.195C292.267 269.686 291.293 269.389 290.291 269.329L272.849 268.289L270.28 276.827L288.237 281.757C289.737 282.169 291.337 282.014 292.731 281.323C294.124 280.631 295.215 279.451 295.794 278.007Z" fill="#FFB8B8"/>
<path d="M277.064 281.901L276.872 265.88L238.128 259.699L208.28 225.477C206.727 223.696 204.581 222.539 202.24 222.218C199.899 221.898 197.521 222.438 195.547 223.736C194.351 224.522 193.343 225.561 192.594 226.78C191.845 227.998 191.372 229.366 191.21 230.787C191.047 232.208 191.199 233.648 191.654 235.004C192.11 236.36 192.857 237.599 193.845 238.634L218.469 268.93L277.064 281.901Z" fill="#575A89"/>
<path d="M184.012 462.126H194.225L219.557 347.627L245.8 382.998L261.12 459.573H270.822L268.779 377.383L234.566 289.576H200.863C191.653 306.24 184.428 323.417 192.693 341.137L184.012 462.126Z" fill="#2F2E41"/>
<path d="M211.331 218.361C219.228 218.361 225.63 211.961 225.63 204.067C225.63 196.173 219.228 189.773 211.331 189.773C203.435 189.773 197.033 196.173 197.033 204.067C197.033 211.961 203.435 218.361 211.331 218.361Z" fill="#FFB8B8"/>
<path d="M198.565 293.405L235.842 292.384L224.895 257.939C231.698 247.035 224.851 236.143 215.161 225.253L207.501 220.148L195.246 219.127C189.939 224.803 187.036 232.312 187.144 240.08C187.386 256.715 190.332 274.824 198.565 293.405Z" fill="#575A89"/>
<path d="M284.212 316.59C284.922 315.881 285.453 315.013 285.761 314.058C286.07 313.103 286.147 312.089 285.987 311.098C285.826 310.108 285.432 309.169 284.838 308.361C284.244 307.552 283.465 306.897 282.568 306.448L266.941 298.632L261.22 305.471L275.788 317.066C277.006 318.034 278.537 318.521 280.091 318.434C281.644 318.346 283.111 317.69 284.212 316.59Z" fill="#FFB8B8"/>
<path d="M265.46 312.804L271.588 297.999L238.399 277.08L224.424 233.878C223.697 231.63 222.18 229.722 220.153 228.507C218.127 227.292 215.729 226.853 213.403 227.27C211.994 227.523 210.659 228.081 209.49 228.907C208.322 229.732 207.349 230.804 206.641 232.047C205.932 233.29 205.505 234.673 205.39 236.098C205.276 237.524 205.475 238.958 205.975 240.298L216.693 277.834L265.46 312.804Z" fill="#575A89"/>
<path d="M187.841 198.451C187.841 204.013 191.454 212.627 196.012 216.319C199.078 218.803 203.13 218.698 204.693 215.298C206.295 211.809 211.82 203.609 221.544 198.451C234.507 191.575 216.947 179.811 204.693 181.605C195.484 182.953 187.841 189.147 187.841 198.451Z" fill="#2F2E41"/>
<path d="M196.523 190.794C202.163 190.794 206.736 186.222 206.736 180.584C206.736 174.945 202.163 170.374 196.523 170.374C190.882 170.374 186.31 174.945 186.31 180.584C186.31 186.222 190.882 190.794 196.523 190.794Z" fill="#2F2E41"/>
<path d="M208.267 177.01C208.266 174.436 207.292 171.958 205.54 170.071C203.788 168.185 201.388 167.031 198.82 166.839C199.074 166.82 199.328 166.8 199.586 166.8C202.295 166.8 204.893 167.876 206.808 169.791C208.723 171.705 209.799 174.302 209.799 177.01C209.799 179.718 208.723 182.315 206.808 184.23C204.893 186.145 202.295 187.22 199.586 187.22C199.328 187.22 199.074 187.201 198.82 187.182C201.388 186.99 203.788 185.835 205.54 183.949C207.292 182.063 208.266 179.584 208.267 177.01Z" fill="#2F2E41"/>
<path d="M211.586 209.172C212.856 209.172 213.884 207.801 213.884 206.109C213.884 204.417 212.856 203.046 211.586 203.046C210.317 203.046 209.289 204.417 209.289 206.109C209.289 207.801 210.317 209.172 211.586 209.172Z" fill="#FFB8B8"/>
<path d="M500.953 443.402H341.968L308.302 284.296H279.57V277.157H314.09L347.757 436.262H500.953V443.402Z" fill="#3F3D56"/>
<path d="M365.266 472.469C373.718 472.469 380.569 465.619 380.569 457.17C380.569 448.721 373.718 441.872 365.266 441.872C356.815 441.872 349.963 448.721 349.963 457.17C349.963 465.619 356.815 472.469 365.266 472.469Z" fill="#3F3D56"/>
<path d="M479.529 472.469C487.98 472.469 494.832 465.619 494.832 457.17C494.832 448.721 487.98 441.872 479.529 441.872C471.077 441.872 464.226 448.721 464.226 457.17C464.226 465.619 471.077 472.469 479.529 472.469Z" fill="#3F3D56"/>
<path d="M498.054 440.039H343.371L316.079 305.204H523.666C524.725 305.204 525.772 305.434 526.734 305.877C527.696 306.32 528.551 306.966 529.239 307.771C529.928 308.576 530.434 309.52 530.722 310.539C531.011 311.558 531.075 312.627 530.911 313.673L505.298 433.846C505.034 435.575 504.157 437.152 502.827 438.289C501.498 439.425 499.804 440.047 498.054 440.039ZM345.051 438H498.054C499.317 438.005 500.539 437.556 501.499 436.736C502.458 435.915 503.091 434.777 503.282 433.53L528.895 313.356C529.014 312.601 528.967 311.829 528.759 311.094C528.551 310.359 528.186 309.677 527.689 309.096C527.192 308.515 526.575 308.049 525.881 307.729C525.186 307.409 524.431 307.244 523.666 307.244H318.556L345.051 438Z" fill="#3F3D56"/>
<path d="M373.442 439.608L355.568 306.39L357.581 306.058L375.455 439.275L373.442 439.608Z" fill="#3F3D56"/>
<path d="M472.824 438.585L470.81 438.258L488.161 306.061L490.176 306.387L472.824 438.585Z" fill="#3F3D56"/>
<path d="M425.474 306.224H423.434V439.442H425.474V306.224Z" fill="#3F3D56"/>
<path d="M326.502 341.921L326.497 343.96L524.004 344.439L524.009 342.399L326.502 341.921Z" fill="#3F3D56"/>
<path d="M510.071 404.932L336.557 406.118L336.571 408.158L510.085 406.972L510.071 404.932Z" fill="#3F3D56"/>
<path d="M282.63 285.826C288.828 285.826 293.853 283.086 293.853 279.706C293.853 276.327 288.828 273.587 282.63 273.587C276.433 273.587 271.408 276.327 271.408 279.706C271.408 283.086 276.433 285.826 282.63 285.826Z" fill="#3F3D56"/>
</g>
<defs>
<clipPath id="clip0_219_127">
<rect width="531" height="443" fill="white"/>
</clipPath>
</defs>
</svg>
