<svg width="641" height="519" viewBox="0 0 641 519" fill="none" xmlns="http://www.w3.org/2000/svg">
<g clip-path="url(#clip0_219_7)">
<path d="M637.449 30.7717H3.55067C2.60929 30.7705 1.70676 30.3589 1.0411 29.627C0.375446 28.8951 0.00102893 27.9028 0 26.8678V3.9039C0.00102893 2.86887 0.375446 1.87655 1.0411 1.14467C1.70676 0.412786 2.60929 0.00112897 3.55067 0H637.449C638.391 0.0011313 639.293 0.4128 639.959 1.14468C640.625 1.87656 640.999 2.86887 641 3.9039V26.8678C640.999 27.9028 640.625 28.8951 639.959 29.627C639.293 30.3589 638.391 30.7705 637.449 30.7717Z" fill="#E4E4E4"/>
<path d="M20.606 19.8083C23.3901 19.8083 25.6471 17.3268 25.6471 14.2657C25.6471 11.2046 23.3901 8.72314 20.606 8.72314C17.8219 8.72314 15.5649 11.2046 15.5649 14.2657C15.5649 17.3268 17.8219 19.8083 20.606 19.8083Z" fill="white"/>
<path d="M39.7403 19.8083C42.5244 19.8083 44.7813 17.3268 44.7813 14.2657C44.7813 11.2046 42.5244 8.72314 39.7403 8.72314C36.9562 8.72314 34.6992 11.2046 34.6992 14.2657C34.6992 17.3268 36.9562 19.8083 39.7403 19.8083Z" fill="white"/>
<path d="M58.8755 19.8083C61.6596 19.8083 63.9166 17.3268 63.9166 14.2657C63.9166 11.2046 61.6596 8.72314 58.8755 8.72314C56.0914 8.72314 53.8345 11.2046 53.8345 14.2657C53.8345 17.3268 56.0914 19.8083 58.8755 19.8083Z" fill="white"/>
<path d="M618.702 10.4508H596.668C596.236 10.4498 595.822 10.2602 595.516 9.92382C595.211 9.5874 595.04 9.13156 595.04 8.65631C595.04 8.18107 595.211 7.72524 595.516 7.38882C595.822 7.0524 596.236 6.86287 596.668 6.86182H618.702C619.134 6.86148 619.549 7.04992 619.856 7.38577C620.162 7.72161 620.334 8.17738 620.335 8.65295C620.336 9.12852 620.165 9.585 619.86 9.9221C619.555 10.2592 619.14 10.4494 618.708 10.4508H618.702Z" fill="white"/>
<path d="M618.702 17.1803H596.668C596.236 17.1793 595.822 16.9897 595.516 16.6533C595.211 16.3169 595.04 15.8611 595.04 15.3858C595.04 14.9106 595.211 14.4547 595.516 14.1183C595.822 13.7819 596.236 13.5924 596.668 13.5913H618.702C619.134 13.591 619.549 13.7794 619.856 14.1153C620.162 14.4511 620.334 14.9069 620.335 15.3824C620.336 15.858 620.165 16.3145 619.86 16.6516C619.555 16.9887 619.14 17.1789 618.708 17.1803H618.702Z" fill="white"/>
<path d="M618.702 23.9098H596.668C596.235 23.9098 595.82 23.7207 595.514 23.3842C595.208 23.0477 595.036 22.5912 595.036 22.1153C595.036 21.6394 595.208 21.1829 595.514 20.8464C595.82 20.5099 596.235 20.3208 596.668 20.3208H618.702C619.135 20.3199 619.55 20.5081 619.857 20.844C620.164 21.1799 620.336 21.636 620.337 22.1119C620.338 22.5879 620.167 23.0447 619.861 23.3818C619.556 23.719 619.141 23.9089 618.708 23.9098H618.702Z" fill="white"/>
<path d="M180.748 456.329C183.081 435.706 194.705 415.387 212.593 408.676C205.538 429.902 205.54 453.188 212.597 474.413C215.346 482.588 219.177 491.365 216.591 499.604C214.983 504.731 211.047 508.653 206.648 511.105C202.249 513.558 197.367 514.727 192.546 515.872L191.597 516.735C183.944 497.734 178.416 476.951 180.748 456.329Z" fill="#F0F0F0"/>
<path d="M212.77 409.066C202.353 421.899 195.878 438.015 194.266 455.124C193.859 458.801 193.982 462.525 194.631 466.159C195.366 469.677 196.945 472.914 199.203 475.534C201.264 478.024 203.634 480.308 205.109 483.305C205.843 484.851 206.271 486.551 206.366 488.292C206.461 490.033 206.22 491.777 205.659 493.409C204.357 497.514 201.791 500.86 199.178 504.037C196.277 507.564 193.213 511.177 191.98 515.853C191.831 516.419 191.04 516.131 191.189 515.565C193.334 507.43 200.517 502.809 203.942 495.482C205.541 492.063 206.211 488.094 204.713 484.485C203.403 481.329 200.96 478.971 198.854 476.47C196.617 473.95 194.975 470.865 194.073 467.487C193.258 463.9 193.005 460.188 193.323 456.508C193.92 448.211 195.7 440.069 198.597 432.38C201.86 423.584 206.467 415.467 212.219 408.379C212.575 407.941 213.124 408.63 212.77 409.066L212.77 409.066Z" fill="white"/>
<path d="M194.49 449.582C191.916 448.895 189.648 447.224 188.091 444.868C186.534 442.512 185.789 439.624 185.99 436.72C185.999 436.601 186.049 436.492 186.131 436.413C186.212 436.335 186.318 436.295 186.426 436.301C186.534 436.307 186.635 436.359 186.709 436.445C186.783 436.532 186.823 436.647 186.822 436.765C186.63 439.469 187.324 442.159 188.778 444.35C190.232 446.541 192.351 448.088 194.751 448.712C195.273 448.848 195.009 449.717 194.49 449.582Z" fill="white"/>
<path d="M198.007 474.423C202.656 471.371 206.088 466.504 207.619 460.794C207.77 460.228 208.561 460.516 208.41 461.081C206.807 467.02 203.226 472.077 198.381 475.241C197.92 475.543 197.547 474.723 198.007 474.423Z" fill="white"/>
<path d="M202.633 424.452C203.578 424.946 204.621 425.174 205.666 425.115C206.712 425.057 207.728 424.714 208.623 424.117C209.081 423.81 209.453 424.63 208.998 424.935C208.006 425.59 206.883 425.967 205.728 426.034C204.573 426.101 203.421 425.857 202.371 425.321C202.269 425.28 202.184 425.197 202.135 425.09C202.086 424.982 202.076 424.858 202.106 424.743C202.142 424.628 202.217 424.533 202.315 424.478C202.414 424.424 202.528 424.414 202.633 424.452Z" fill="white"/>
<path d="M267.117 445.51C266.836 445.711 266.555 445.912 266.273 446.121C262.506 448.845 258.946 451.9 255.629 455.258C255.369 455.513 255.109 455.776 254.856 456.039C246.942 464.221 240.48 473.948 235.796 484.725C233.936 489.015 232.375 493.455 231.127 498.005C229.405 504.29 227.992 511.254 224.582 516.395C224.232 516.936 223.851 517.452 223.443 517.941H192.628C192.558 517.902 192.487 517.871 192.417 517.833L191.187 517.894C191.236 517.655 191.292 517.407 191.341 517.168C191.37 517.029 191.405 516.89 191.433 516.75C191.454 516.658 191.475 516.565 191.489 516.48C191.496 516.449 191.503 516.418 191.51 516.395C191.524 516.31 191.545 516.232 191.559 516.155C191.869 514.771 192.187 513.388 192.515 512.004C192.515 511.996 192.515 511.996 192.522 511.989C194.93 501.419 198.47 491.2 203.068 481.548C203.209 481.262 203.349 480.968 203.504 480.682C205.633 476.409 208.076 472.335 210.809 468.499C212.312 466.405 213.91 464.395 215.597 462.478C219.965 457.533 225.014 453.375 230.558 450.156C241.61 443.74 254.406 441.282 266.217 445.201C266.519 445.302 266.815 445.402 267.117 445.51Z" fill="#F0F0F0"/>
<path d="M267.048 445.94C251.703 449.291 237.709 457.873 227.053 470.466C224.715 473.133 222.774 476.188 221.301 479.518C219.962 482.814 219.45 486.444 219.818 490.031C220.1 493.383 220.742 496.775 220.278 500.144C220.018 501.865 219.429 503.506 218.551 504.959C217.674 506.412 216.526 507.644 215.185 508.576C211.897 510.992 208.016 511.965 204.191 512.772C199.943 513.668 195.518 514.524 191.973 517.441C191.544 517.795 191.07 517.041 191.499 516.688C197.667 511.613 205.932 512.678 212.679 509.095C215.827 507.423 218.537 504.698 219.316 500.825C219.998 497.437 219.339 493.938 219.027 490.547C218.621 487.054 218.999 483.504 220.129 480.209C221.442 476.806 223.273 473.674 225.542 470.947C230.562 464.718 236.442 459.395 242.966 455.173C250.387 450.31 258.51 446.878 266.984 445.027C267.509 444.913 267.569 445.827 267.048 445.94H267.048Z" fill="white"/>
<path d="M230.267 466.189C228.588 463.937 227.692 461.101 227.739 458.189C227.785 455.277 228.772 452.478 230.523 450.293C230.878 449.852 231.518 450.438 231.162 450.88C229.529 452.912 228.61 455.519 228.571 458.231C228.533 460.943 229.377 463.58 230.952 465.668C231.293 466.122 230.607 466.641 230.267 466.189Z" fill="white"/>
<path d="M219.471 488.352C224.855 488.992 230.26 487.379 234.609 483.832C235.04 483.48 235.514 484.234 235.083 484.585C230.551 488.266 224.923 489.933 219.322 489.253C218.789 489.188 218.94 488.287 219.471 488.352Z" fill="white"/>
<path d="M250.529 451.514C251.013 452.535 251.72 453.407 252.587 454.052C253.454 454.698 254.453 455.097 255.495 455.213C256.029 455.27 255.877 456.171 255.346 456.114C254.196 455.98 253.093 455.538 252.134 454.827C251.175 454.116 250.388 453.158 249.844 452.036C249.784 451.935 249.762 451.813 249.782 451.694C249.801 451.576 249.861 451.47 249.949 451.398C250.04 451.33 250.152 451.304 250.261 451.325C250.369 451.347 250.465 451.415 250.529 451.514L250.529 451.514Z" fill="white"/>
<path d="M207.767 160.116H105.816C102.666 160.112 99.6452 158.734 97.4174 156.285C95.1897 153.836 93.9366 150.515 93.9331 147.051V85.9989C93.9366 82.535 95.1898 79.2141 97.4175 76.7648C99.6453 74.3155 102.666 72.9379 105.816 72.9341H207.767C210.918 72.9379 213.938 74.3155 216.166 76.7648C218.394 79.2141 219.647 82.535 219.65 85.9989V147.051C219.647 150.515 218.394 153.836 216.166 156.285C213.938 158.734 210.918 160.112 207.767 160.116V160.116Z" fill="#E6E6E6"/>
<path d="M363.417 160.116H261.466C258.316 160.112 255.295 158.734 253.067 156.285C250.84 153.836 249.587 150.515 249.583 147.051V85.9989C249.587 82.535 250.84 79.2141 253.067 76.7648C255.295 74.3155 258.316 72.9379 261.466 72.9341H363.417C366.568 72.9379 369.588 74.3155 371.816 76.7648C374.044 79.2141 375.297 82.535 375.3 85.9989V147.051C375.297 150.515 374.044 153.836 371.816 156.285C369.588 158.734 366.568 160.112 363.417 160.116Z" fill="#FBDE0B"/>
<path d="M519.067 160.116H417.116C413.965 160.112 410.945 158.734 408.717 156.285C406.489 153.836 405.236 150.515 405.233 147.051V85.9989C405.236 82.535 406.49 79.2141 408.717 76.7648C410.945 74.3155 413.965 72.9379 417.116 72.9341H519.067C522.218 72.9379 525.238 74.3155 527.466 76.7648C529.693 79.2141 530.947 82.535 530.95 85.9989V147.051C530.947 150.515 529.693 153.836 527.466 156.285C525.238 158.734 522.218 160.112 519.067 160.116Z" fill="#E6E6E6"/>
<path d="M207.767 296.147H105.816C102.666 296.143 99.6452 294.765 97.4174 292.315C95.1897 289.866 93.9366 286.545 93.9331 283.081V222.029C93.9366 218.565 95.1898 215.244 97.4175 212.795C99.6453 210.346 102.666 208.968 105.816 208.964H207.767C210.918 208.968 213.938 210.346 216.166 212.795C218.394 215.244 219.647 218.565 219.65 222.029V283.081C219.647 286.545 218.394 289.866 216.166 292.315C213.938 294.765 210.918 296.143 207.767 296.147Z" fill="#F2F2F2"/>
<path d="M363.417 296.147H261.466C258.316 296.143 255.295 294.765 253.067 292.315C250.84 289.866 249.587 286.545 249.583 283.081V222.029C249.587 218.565 250.84 215.244 253.067 212.795C255.295 210.346 258.316 208.968 261.466 208.964H363.417C366.568 208.968 369.588 210.346 371.816 212.795C374.044 215.244 375.297 218.565 375.3 222.029V283.081C375.297 286.545 374.044 289.866 371.816 292.315C369.588 294.765 366.568 296.143 363.417 296.147Z" fill="#E6E6E6"/>
<path d="M370.616 307.381C380.672 307.381 388.824 298.417 388.824 287.36C388.824 276.303 380.672 267.34 370.616 267.34C360.559 267.34 352.407 276.303 352.407 287.36C352.407 298.417 360.559 307.381 370.616 307.381Z" fill="#FBDE0B"/>
<path d="M378.177 285.679H371.986V278.872C371.986 278.662 371.948 278.454 371.875 278.259C371.802 278.065 371.695 277.888 371.559 277.74C371.424 277.591 371.264 277.473 371.087 277.392C370.91 277.312 370.721 277.271 370.529 277.271V277.271C370.338 277.271 370.149 277.312 369.972 277.392C369.795 277.473 369.634 277.591 369.499 277.74C369.364 277.888 369.257 278.065 369.183 278.259C369.11 278.454 369.073 278.662 369.073 278.872V285.679H362.882C362.69 285.679 362.501 285.721 362.324 285.801C362.147 285.882 361.987 286 361.851 286.148C361.716 286.297 361.609 286.474 361.536 286.668C361.462 286.862 361.425 287.071 361.425 287.281V287.281C361.425 287.491 361.462 287.7 361.536 287.894C361.609 288.088 361.716 288.265 361.851 288.414C361.987 288.562 362.147 288.68 362.324 288.761C362.501 288.841 362.69 288.883 362.882 288.883H369.073V295.69C369.073 295.9 369.11 296.108 369.183 296.303C369.257 296.497 369.364 296.673 369.499 296.822C369.635 296.971 369.795 297.089 369.972 297.169C370.149 297.25 370.338 297.291 370.529 297.291V297.291C370.916 297.291 371.286 297.123 371.559 296.822C371.833 296.522 371.986 296.114 371.986 295.69V288.883H378.177C378.368 288.883 378.558 288.841 378.735 288.761C378.911 288.68 379.072 288.562 379.207 288.413C379.342 288.265 379.45 288.088 379.523 287.894C379.596 287.699 379.634 287.491 379.634 287.281V287.281C379.634 287.07 379.596 286.862 379.523 286.668C379.45 286.474 379.342 286.297 379.207 286.148C379.072 286 378.911 285.882 378.735 285.801C378.558 285.721 378.368 285.679 378.177 285.679V285.679L378.177 285.679Z" fill="white"/>
<path d="M528.66 174.861C538.716 174.861 546.869 165.897 546.869 154.84C546.869 143.783 538.716 134.82 528.66 134.82C518.604 134.82 510.451 143.783 510.451 154.84C510.451 165.897 518.604 174.861 528.66 174.861Z" fill="#FBDE0B"/>
<path d="M536.221 153.159H530.031V146.352C530.031 146.142 529.993 145.934 529.92 145.739C529.846 145.545 529.739 145.368 529.604 145.22C529.469 145.071 529.308 144.953 529.131 144.872C528.954 144.792 528.765 144.75 528.574 144.75V144.75C528.382 144.75 528.193 144.792 528.016 144.872C527.84 144.953 527.679 145.071 527.544 145.22C527.408 145.368 527.301 145.545 527.228 145.739C527.155 145.934 527.117 146.142 527.117 146.352V153.159H520.926C520.735 153.159 520.545 153.201 520.368 153.281C520.192 153.362 520.031 153.48 519.896 153.628C519.761 153.777 519.653 153.954 519.58 154.148C519.507 154.342 519.469 154.551 519.469 154.761V154.761C519.469 154.971 519.507 155.18 519.58 155.374C519.653 155.568 519.761 155.745 519.896 155.893C520.031 156.042 520.192 156.16 520.368 156.241C520.545 156.321 520.735 156.363 520.926 156.363H527.117V163.17C527.117 163.38 527.155 163.588 527.228 163.782C527.301 163.977 527.408 164.153 527.544 164.302C527.679 164.451 527.84 164.569 528.016 164.649C528.193 164.73 528.382 164.771 528.574 164.771V164.771C528.96 164.771 529.331 164.603 529.604 164.302C529.877 164.002 530.031 163.594 530.031 163.17V156.363H536.221C536.413 156.363 536.602 156.321 536.779 156.241C536.956 156.16 537.116 156.042 537.252 155.893C537.387 155.745 537.494 155.568 537.567 155.374C537.641 155.179 537.678 154.971 537.678 154.761V154.761C537.678 154.55 537.641 154.342 537.567 154.148C537.494 153.954 537.387 153.777 537.252 153.628C537.116 153.479 536.956 153.362 536.779 153.281C536.602 153.201 536.413 153.159 536.221 153.159V153.159L536.221 153.159Z" fill="white"/>
<path d="M214.966 173.106C225.022 173.106 233.174 164.142 233.174 153.085C233.174 142.028 225.022 133.065 214.966 133.065C204.909 133.065 196.757 142.028 196.757 153.085C196.757 164.142 204.909 173.106 214.966 173.106Z" fill="#FBDE0B"/>
<path d="M222.527 151.404H216.336V144.597C216.336 144.387 216.298 144.179 216.225 143.984C216.152 143.79 216.044 143.613 215.909 143.465C215.774 143.316 215.613 143.198 215.436 143.118C215.26 143.037 215.07 142.996 214.879 142.996V142.996C214.688 142.996 214.498 143.037 214.322 143.118C214.145 143.198 213.984 143.316 213.849 143.465C213.714 143.613 213.606 143.79 213.533 143.984C213.46 144.179 213.422 144.387 213.422 144.597V144.597V151.404H207.231C207.04 151.404 206.85 151.446 206.674 151.526C206.497 151.607 206.336 151.725 206.201 151.873C206.066 152.022 205.959 152.199 205.885 152.393C205.812 152.587 205.774 152.796 205.774 153.006V153.006C205.774 153.431 205.928 153.838 206.201 154.139C206.474 154.439 206.845 154.608 207.231 154.608H213.422V161.415C213.422 161.625 213.46 161.833 213.533 162.028C213.606 162.222 213.714 162.399 213.849 162.547C213.984 162.696 214.145 162.814 214.321 162.894C214.498 162.975 214.688 163.016 214.879 163.016V163.016C215.07 163.016 215.26 162.975 215.436 162.894C215.613 162.814 215.774 162.696 215.909 162.547C216.044 162.399 216.152 162.222 216.225 162.028C216.298 161.833 216.336 161.625 216.336 161.415V154.608H222.527C222.718 154.608 222.908 154.566 223.084 154.486C223.261 154.405 223.422 154.287 223.557 154.139C223.692 153.99 223.799 153.813 223.873 153.619C223.946 153.425 223.984 153.216 223.984 153.006V153.006C223.984 152.581 223.83 152.174 223.557 151.873C223.284 151.573 222.913 151.404 222.527 151.404V151.404V151.404Z" fill="white"/>
<path d="M351.291 125.429C351.624 126.533 351.731 127.705 351.607 128.86C351.483 130.016 351.13 131.128 350.573 132.117C350.016 133.107 349.268 133.95 348.383 134.587C347.497 135.224 346.495 135.64 345.448 135.806L337.028 198.995L323.217 191.578L337.109 128.504C336.972 126.55 337.492 124.61 338.57 123.05C339.648 121.49 341.209 120.419 342.958 120.04C344.706 119.661 346.52 120 348.056 120.993C349.592 121.986 350.743 123.564 351.291 125.429L351.291 125.429Z" fill="#9E616A"/>
<path d="M250.729 327.807C251.343 326.86 251.762 325.776 251.955 324.632C252.147 323.487 252.109 322.311 251.843 321.184C251.578 320.058 251.091 319.009 250.416 318.112C249.742 317.215 248.897 316.492 247.941 315.993L253.621 248.779L241.724 255.484L238.01 320.253C237.353 322.074 237.328 324.097 237.937 325.938C238.547 327.779 239.75 329.31 241.317 330.241C242.885 331.172 244.709 331.439 246.444 330.99C248.178 330.542 249.703 329.409 250.728 327.807H250.729Z" fill="#9E616A"/>
<path d="M258.856 293.812L309.91 291.653L312.856 233.361H253.947L258.856 293.812Z" fill="#9E616A"/>
<path d="M249.381 499.675L258.105 499.674L262.255 462.676H249.379L249.381 499.675Z" fill="#9E616A"/>
<path d="M247.216 494.943L261.008 494.038V500.535L274.119 510.491C274.767 510.983 275.255 511.689 275.511 512.507C275.768 513.325 275.78 514.212 275.546 515.038C275.312 515.864 274.843 516.586 274.209 517.099C273.576 517.612 272.809 517.888 272.022 517.888H255.603L252.773 511.462L251.668 517.888H245.478L247.216 494.943Z" fill="#2F2E41"/>
<path d="M288.185 499.675L296.909 499.674L301.059 462.676H288.183L288.185 499.675Z" fill="#9E616A"/>
<path d="M258.148 280.127C258.148 280.127 242.872 293.687 251.153 342.112C249.892 342.277 251.32 345.01 251.32 345.01L252.515 384.467L253.438 388.99L250.368 396.287L251.634 404.215L247.732 476.172L262.146 478.222L275.939 403.498L278.566 395.097L281.2 387.733L279.779 379.881L280.945 367.693L288.896 326.595L290.843 397.873L288.127 404.678L289.638 412.148L286.271 416.113L284.94 482.803L300.309 483.593L313.025 416.365L312.039 407.786L313.731 401.443V386.626L316.628 379.633L322.945 341.503C322.945 341.503 324.851 311.7 310.947 276.63L258.148 280.127Z" fill="#2F2E41"/>
<path d="M264.373 184.915C264.373 184.915 245.079 189.11 241.755 207.201C238.43 225.293 236.292 266.232 236.292 266.232L237.02 271.933L255.683 276.692L267.595 219.328L264.373 184.915Z" fill="#3F3D56"/>
<path d="M308.405 191.021C308.405 191.021 310.361 188.008 321.313 187.543C321.764 187.524 321.205 186.54 321.205 186.54L326.472 158.235L344.025 168.92L341.062 198.595L312.219 234.665L308.405 191.021Z" fill="#3F3D56"/>
<path d="M297.464 275.404C289.2 275.405 276.761 274.402 258.036 271.346C256.83 271.146 255.713 270.527 254.85 269.58C253.986 268.633 253.421 267.407 253.236 266.081C252.624 265.371 252.226 264.471 252.096 263.504C251.966 262.537 252.11 261.549 252.508 260.675L252.526 260.637L252.101 260.087C251.445 259.24 251.06 258.179 251.004 257.068C250.948 255.957 251.225 254.856 251.793 253.934L245.994 208.32C245.405 203.79 246.306 199.179 248.534 195.314C250.762 191.45 254.171 188.586 258.148 187.239L260.289 186.506L268.385 174.863L268.545 174.865L294.535 175.245L302.969 187.021L316.603 190.556L316.638 190.784L319.804 210.894C321.45 221.353 317.675 225.468 312.855 234.665L314.27 260.497L314.912 261.779C315.268 262.489 315.387 263.313 315.249 264.109C315.111 264.905 314.724 265.623 314.155 266.139C314.585 267.49 314.614 268.957 314.239 270.327L313.905 271.539C313.906 271.574 313.817 272.066 313.097 272.667C311.799 273.751 308.072 275.404 297.464 275.404Z" fill="#3F3D56"/>
<path d="M286.021 494.943L299.812 494.038V500.535L312.924 510.491C313.571 510.983 314.059 511.689 314.316 512.507C314.572 513.325 314.584 514.212 314.35 515.038C314.116 515.864 313.648 516.586 313.014 517.099C312.38 517.612 311.613 517.888 310.826 517.888H294.407L291.577 511.462L290.472 517.888H284.282L286.021 494.943Z" fill="#2F2E41"/>
<path d="M300.505 149.491C302.308 137.278 294.764 125.771 283.656 123.789C272.549 121.807 262.083 130.101 260.28 142.314C258.478 154.527 266.021 166.034 277.129 168.016C288.237 169.998 298.703 161.704 300.505 149.491Z" fill="#9E616A"/>
<path d="M292.307 124.012C284.839 118.365 278.263 117.505 272.861 119.107C272.16 117.916 271.178 116.957 270.02 116.333C265.807 104.661 252.985 97.6512 241.982 101.059C230.907 104.488 223.266 117.976 225.349 130.417C226.641 138.129 231.055 144.807 232.83 152.401C236.267 167.102 227.883 183.943 214.768 188.682C227.186 191.423 240.855 183.083 245.31 170.047C247.474 163.715 247.604 156.802 247.879 150.044C247.952 145.38 248.472 140.737 249.43 136.193C249.906 134.154 250.578 132.177 251.435 130.295C253.302 126.158 256.403 122.851 260.22 120.924C259.878 122.086 259.793 123.321 259.971 124.527C260.148 125.733 260.585 126.875 261.243 127.859C258.331 131.87 256.746 136.208 256.746 138.806C250.696 150.963 259.347 161.406 270.405 168.058C274.815 170.725 279.907 171.701 284.878 170.832L285.341 168.661L285.968 170.616L288.06 177.173C290.474 178.457 292.866 179.864 295.238 181.395C294.337 176.743 293.608 172.098 293.106 167.558C292.412 161.378 294.833 152.177 296.579 146.582C297.662 143.134 298.218 139.512 298.224 135.864V135.704L299.924 141.71L306.115 138.806C304.963 131.543 306.115 123.297 292.307 124.012Z" fill="#2F2E41"/>
<path d="M546.908 519H94.0916C93.8404 518.999 93.5999 518.888 93.4227 518.692C93.2455 518.496 93.146 518.231 93.146 517.955C93.146 517.679 93.2455 517.414 93.4227 517.218C93.5999 517.022 93.8404 516.912 94.0916 516.91H546.908C547.16 516.912 547.4 517.022 547.577 517.218C547.754 517.414 547.854 517.679 547.854 517.955C547.854 518.231 547.754 518.496 547.577 518.692C547.4 518.888 547.16 518.999 546.908 519V519Z" fill="#CCCCCC"/>
<path d="M212.884 310.011C222.941 310.011 231.093 301.048 231.093 289.991C231.093 278.934 222.941 269.971 212.884 269.971C202.828 269.971 194.675 278.934 194.675 289.991C194.675 301.048 202.828 310.011 212.884 310.011Z" fill="#E6E6E6"/>
<path d="M486.856 278.485H422.99C421.016 278.483 419.124 277.62 417.728 276.085C416.333 274.551 415.548 272.47 415.545 270.3V232.055C415.548 229.885 416.333 227.805 417.728 226.27C419.124 224.736 421.016 223.873 422.99 223.871H486.856C488.83 223.873 490.722 224.736 492.117 226.27C493.513 227.805 494.298 229.885 494.3 232.055V270.3C494.298 272.47 493.513 274.551 492.117 276.085C490.722 277.62 488.83 278.483 486.856 278.485V278.485Z" fill="#F2F2F2"/>
<path d="M487.797 262.95C493.137 262.95 497.467 258.19 497.467 252.318C497.467 246.446 493.137 241.686 487.797 241.686C482.456 241.686 478.127 246.446 478.127 252.318C478.127 258.19 482.456 262.95 487.797 262.95Z" fill="#FBDE0B"/>
<path d="M491.812 251.425H488.525V247.81C488.525 247.698 488.505 247.588 488.466 247.485C488.427 247.381 488.37 247.288 488.298 247.209C488.226 247.13 488.141 247.067 488.047 247.024C487.953 246.981 487.853 246.959 487.751 246.959C487.546 246.959 487.349 247.049 487.204 247.209C487.059 247.368 486.977 247.584 486.977 247.81V251.425H483.69C483.484 251.425 483.288 251.515 483.143 251.674C482.998 251.834 482.916 252.05 482.916 252.276V252.276C482.916 252.387 482.936 252.498 482.975 252.601C483.014 252.704 483.071 252.798 483.143 252.877C483.214 252.956 483.3 253.019 483.394 253.061C483.487 253.104 483.588 253.126 483.69 253.126H486.977V256.741C486.977 256.853 486.997 256.963 487.036 257.067C487.075 257.17 487.132 257.263 487.204 257.342C487.276 257.421 487.361 257.484 487.455 257.527C487.549 257.57 487.649 257.592 487.751 257.592V257.592C487.956 257.592 488.153 257.502 488.298 257.342C488.443 257.183 488.525 256.967 488.525 256.741V253.126H491.813C492.018 253.126 492.214 253.037 492.36 252.877C492.505 252.718 492.586 252.501 492.586 252.276V252.276C492.586 252.164 492.566 252.053 492.527 251.95C492.488 251.847 492.431 251.753 492.36 251.674C492.288 251.595 492.202 251.532 492.109 251.49C492.015 251.447 491.914 251.425 491.813 251.425L491.812 251.425Z" fill="white"/>
<path d="M512.876 267.632H460.244C458.01 267.629 455.868 266.652 454.289 264.915C452.709 263.179 451.82 260.824 451.818 258.368V223.825C451.819 223.373 451.983 222.94 452.274 222.621C452.565 222.301 452.959 222.122 453.37 222.122C453.781 222.122 454.176 222.301 454.467 222.621C454.758 222.94 454.922 223.373 454.923 223.825V233.076L516.058 239.186C517.279 239.21 518.443 239.76 519.299 240.717C520.155 241.675 520.636 242.963 520.637 244.306C520.637 244.411 520.628 244.517 520.611 244.62L517.53 262.686C517.487 264.012 516.979 265.269 516.111 266.191C515.243 267.114 514.083 267.63 512.876 267.632V267.632ZM454.923 236.503V258.368C454.924 259.919 455.485 261.406 456.483 262.503C457.481 263.599 458.833 264.216 460.244 264.218H512.876C513.287 264.218 513.682 264.038 513.973 263.718C514.264 263.398 514.428 262.964 514.428 262.511C514.428 262.406 514.437 262.301 514.455 262.197L517.528 244.174C517.498 243.746 517.321 243.346 517.034 243.054C516.748 242.762 516.371 242.6 515.98 242.599C515.933 242.599 515.887 242.597 515.84 242.592L454.923 236.503Z" fill="#FBDE0B"/>
<path d="M446.258 283.561C447.687 283.561 448.845 282.288 448.845 280.717C448.845 279.146 447.687 277.872 446.258 277.872C444.829 277.872 443.671 279.146 443.671 280.717C443.671 282.288 444.829 283.561 446.258 283.561Z" fill="#FBDE0B"/>
<path d="M510.806 283.561C512.235 283.561 513.393 282.288 513.393 280.717C513.393 279.146 512.235 277.872 510.806 277.872C509.377 277.872 508.219 279.146 508.219 280.717C508.219 282.288 509.377 283.561 510.806 283.561Z" fill="#FBDE0B"/>
<path d="M513.393 277.872H444.189C443.777 277.872 443.382 277.692 443.091 277.372C442.8 277.052 442.636 276.618 442.636 276.165C442.636 275.713 442.8 275.278 443.091 274.958C443.382 274.638 443.777 274.458 444.189 274.458H513.393C513.805 274.458 514.2 274.638 514.491 274.958C514.782 275.278 514.946 275.713 514.946 276.165C514.946 276.618 514.782 277.052 514.491 277.372C514.2 277.692 513.805 277.872 513.393 277.872V277.872Z" fill="#FBDE0B"/>
<path d="M457.51 224.963H444.057C443.646 224.962 443.252 224.782 442.961 224.462C442.671 224.142 442.508 223.708 442.508 223.256C442.508 222.804 442.671 222.371 442.961 222.051C443.252 221.731 443.646 221.55 444.057 221.549H457.51C457.921 221.55 458.315 221.731 458.605 222.051C458.896 222.371 459.059 222.804 459.059 223.256C459.059 223.708 458.896 224.142 458.605 224.462C458.315 224.782 457.921 224.962 457.51 224.963V224.963Z" fill="#FBDE0B"/>
<path d="M468.303 277.003C467.932 277.003 467.573 276.857 467.292 276.591L457.089 266.95C456.933 266.804 456.806 266.626 456.714 266.426C456.621 266.226 456.566 266.008 456.55 265.784C456.534 265.56 456.559 265.335 456.623 265.122C456.686 264.909 456.787 264.711 456.92 264.541C457.053 264.371 457.216 264.231 457.398 264.13C457.58 264.029 457.779 263.968 457.982 263.952C458.186 263.935 458.39 263.962 458.584 264.033C458.778 264.103 458.957 264.215 459.112 264.361L469.315 274.002C469.556 274.229 469.727 274.532 469.806 274.869C469.886 275.207 469.869 275.563 469.759 275.89C469.649 276.217 469.45 276.499 469.19 276.698C468.929 276.897 468.62 277.003 468.303 277.003V277.003Z" fill="#FBDE0B"/>
<path d="M470.452 266.583C470.248 266.583 470.047 266.539 469.858 266.454C469.67 266.368 469.499 266.242 469.355 266.084C469.21 265.925 469.096 265.737 469.018 265.53C468.94 265.323 468.9 265.101 468.9 264.877V237.479C468.9 237.027 469.063 236.592 469.355 236.272C469.646 235.952 470.041 235.772 470.452 235.772C470.864 235.772 471.259 235.952 471.55 236.272C471.841 236.592 472.005 237.027 472.005 237.479V264.877C472.005 265.101 471.964 265.323 471.886 265.53C471.808 265.737 471.694 265.925 471.55 266.084C471.406 266.242 471.235 266.368 471.046 266.453C470.858 266.539 470.656 266.583 470.452 266.583H470.452Z" fill="#FBDE0B"/>
<path d="M503.244 266.583C503.04 266.583 502.838 266.539 502.65 266.453C502.461 266.368 502.29 266.242 502.146 266.083C502.002 265.925 501.888 265.737 501.81 265.53C501.732 265.323 501.691 265.101 501.691 264.877V239.755C501.692 239.303 501.856 238.87 502.147 238.55C502.438 238.231 502.833 238.052 503.244 238.052C503.655 238.052 504.049 238.231 504.34 238.55C504.631 238.87 504.795 239.303 504.796 239.755V264.876C504.796 265.101 504.756 265.323 504.678 265.53C504.6 265.737 504.486 265.925 504.341 266.083C504.197 266.242 504.026 266.367 503.838 266.453C503.65 266.539 503.448 266.583 503.244 266.583H503.244Z" fill="#FBDE0B"/>
</g>
<defs>
<clipPath id="clip0_219_7">
<rect width="641" height="519" fill="white"/>
</clipPath>
</defs>
</svg>
