<svg width="286" height="157" viewBox="0 0 286 157" fill="none" xmlns="http://www.w3.org/2000/svg">
<g clip-path="url(#clip0_34_171)">
<path d="M0 157H286C125.903 128.909 23.412 153.924 0 157Z" fill="#F2F2F2"/>
<path d="M120.288 64.8998C119.858 64.5084 119.258 64.2692 118.615 64.2332C117.972 64.1972 117.337 64.3672 116.845 64.707C116.746 64.7774 116.655 64.8543 116.572 64.9369L108.443 62.5667L105.516 65.5061L117.083 67.7716C117.53 68.0258 118.067 68.1523 118.612 68.1312C119.156 68.1101 119.677 67.9427 120.092 67.6551C120.327 67.4896 120.519 67.2881 120.658 67.062C120.797 66.836 120.88 66.5898 120.902 66.3376C120.924 66.0855 120.885 65.8322 120.787 65.5922C120.689 65.3523 120.535 65.1305 120.332 64.9393C120.317 64.926 120.303 64.9128 120.288 64.8998Z" fill="#A0616A"/>
<path d="M86.7606 139.745L91.1979 139.745L93.3088 125.791L86.7596 125.792L86.7606 139.745Z" fill="#A0616A"/>
<path d="M86.6041 143.519L100.25 143.519V143.378C100.25 142.23 99.6902 141.128 98.6942 140.316C97.6981 139.504 96.3472 139.048 94.9386 139.048H94.9383L92.4457 137.506L87.7951 139.048L86.6039 139.048L86.6041 143.519Z" fill="#2F2E41"/>
<path d="M55.6575 133.091L59.2873 135.172L70.8598 124.747L65.5019 121.676L55.6575 133.091Z" fill="#A0616A"/>
<path d="M52.8669 136.105L64.0297 142.503L64.1289 142.388C64.9391 141.449 65.2584 140.285 65.0165 139.154C64.7746 138.023 63.9915 137.016 62.8393 136.356L62.839 136.355L61.8877 133.926L56.9956 133.006L56.0212 132.448L52.8669 136.105Z" fill="#2F2E41"/>
<path d="M69.0804 70.3274L68.7117 70.9695C66.2881 75.1905 65.6684 79.9089 66.6102 84.5058C66.6803 84.6852 66.6669 84.8793 66.5727 85.0512C65.9885 85.6097 66.905 88.0362 67.4303 89.3911L67.9037 91.7871C67.9037 91.7871 67.1186 94.0123 68.3111 93.8488C69.5036 93.6853 67.7279 96.0588 68.8653 96.6534L71.8161 111.586L59.5054 128.126L64.0649 133.516L82.3029 114.374L82.5309 97.0896L85.2666 111.028L85.4945 132.958L93.7894 132.24L93.4736 108.984L93.9296 81.5741L89.3701 68.8252L69.0804 70.3274Z" fill="#2F2E41"/>
<path d="M70.6294 31.6708L82.2561 31.8566L84.5359 36.5028L89.0954 37.6179L92.9709 45.4236L90.6912 70.1415L65.842 72L66.9819 69.9557C66.9819 69.9557 62.4224 70.1415 64.0182 68.8406C65.614 67.5396 68.68 67.8279 67.147 66.2899C65.614 64.7519 65.386 63.6368 65.386 63.6368L64.7021 56.017L62.9923 39.7552L68.3497 36.317L70.6294 31.6708Z" fill="#6C63FF"/>
<path d="M58.7784 84.8402C58.4181 84.4044 58.2805 83.8713 58.3949 83.3541C58.5094 82.8369 58.8669 82.3766 59.3913 82.071C59.4991 82.0103 59.6129 81.9569 59.7315 81.9115L58.9006 74.9061L63.1126 73.3116L62.9782 83.0085C63.1713 83.424 63.1902 83.88 63.0319 84.3051C62.8737 84.7303 62.5473 85.1008 62.1036 85.3589C61.8494 85.5037 61.5627 85.6063 61.2599 85.6609C60.957 85.7154 60.644 85.7208 60.3386 85.6767C60.0332 85.6325 59.7415 85.5398 59.48 85.4038C59.2186 85.2678 58.9926 85.0911 58.8149 84.8839C58.8025 84.8695 58.7903 84.8549 58.7784 84.8402Z" fill="#A0616A"/>
<path d="M65.1344 39.3555C65.1344 39.3555 58.3557 39.2481 58.1246 49.4534C58.1246 49.4534 49.9015 63.4337 54.9259 68.4697L58.1775 78.7277L63.8926 78.2925L64.3703 69.8068C64.3703 69.8068 72.3348 60.6783 70.5639 51.9178L65.1344 39.3555Z" fill="#6C63FF"/>
<path d="M88.6395 37.4321C88.6395 37.4321 91.7171 39.5693 97.5305 46.167C97.5305 46.167 106.193 56.3887 105.282 60.4773L109.157 61.4066L110.069 68.4689L100.608 66.5174C100.608 66.5174 88.4115 58.2471 88.8674 54.1585C89.3234 50.0698 88.6395 37.4321 88.6395 37.4321Z" fill="#6C63FF"/>
<path d="M76.7247 30.1745C81.1295 30.1745 84.7002 27.2635 84.7002 23.6727C84.7002 20.0818 81.1295 17.1709 76.7247 17.1709C72.32 17.1709 68.7492 20.0818 68.7492 23.6727C68.7492 27.2635 72.32 30.1745 76.7247 30.1745Z" fill="#A0616A"/>
<path d="M74.3967 23.5027C74.4036 23.4302 74.4127 23.3578 74.4241 23.2853C74.4353 23.3585 74.4259 23.4329 74.3967 23.5027Z" fill="#2F2E41"/>
<path d="M84.8585 16.0687C84.6191 15.3049 83.7095 14.6563 82.7475 14.7492C82.1479 14.8068 81.6373 15.1209 81.0855 15.3179C79.5376 15.8699 75.6826 14.6953 74.0115 14.883C72.3382 15.0726 70.7332 16.4125 71.2599 17.7209C66.9255 18.097 65.0657 21.2159 66.5955 24.6159C67.7919 27.275 72.3382 29.907 75.8057 30.091C75.3794 28.4518 72.9104 26.6175 72.4841 24.9802C72.3308 24.5413 72.2897 24.0814 72.3633 23.629C72.4044 23.4034 72.5272 23.193 72.7161 23.0248C72.905 22.8565 73.1513 22.7382 73.4233 22.6849C73.652 22.6648 73.8817 22.7153 74.0669 22.8265C74.2522 22.9376 74.3796 23.1013 74.4242 23.2852C74.5093 22.7816 74.747 22.3033 75.1159 21.8934C75.4847 21.4836 75.9731 21.1551 76.5368 20.9378C77.1006 20.7205 77.7218 20.6211 78.3445 20.6487C78.9671 20.6763 79.5715 20.83 80.103 21.0959L78.9973 19.8693C80.5028 20.443 82.178 20.6545 83.8258 20.4789C83.866 20.3642 83.8791 20.2444 83.8646 20.1258C83.8522 20.0034 83.8012 19.8856 83.7165 19.784C83.6318 19.6824 83.5163 19.6004 83.3813 19.5459C83.645 19.6038 83.8917 19.7046 84.1065 19.8422C84.3212 19.9799 84.4995 20.1516 84.6306 20.347C85.5855 20.1694 86.4265 19.7108 86.9924 19.059C87.5213 18.3974 85.0979 16.8325 84.8585 16.0687Z" fill="#2F2E41"/>
<path d="M125.861 60.8619H113.399C112.763 60.8619 112.153 61.0677 111.704 61.4341C111.254 61.8005 111.002 62.2975 111.002 62.8156V64.1646C111.002 64.6828 111.254 65.1797 111.704 65.5461C112.153 65.9125 112.763 66.1184 113.399 66.1184H118.162L116.44 79.4793C116.138 79.6321 115.881 79.8381 115.688 80.0823C115.496 80.3264 115.372 80.6025 115.327 80.8903L113.745 90.9677C113.69 91.317 113.752 91.6718 113.924 91.9948C114.096 92.3177 114.372 92.5967 114.723 92.8023L109.435 133.829L101.872 142.738H40.3713C40.1171 142.738 39.8732 142.82 39.6934 142.966C39.5137 143.113 39.4127 143.312 39.4127 143.519C39.4127 143.726 39.5137 143.925 39.6934 144.072C39.8732 144.218 40.1171 144.301 40.3713 144.301H45.1624C44.0952 144.952 43.3066 145.861 42.9083 146.898C42.51 147.935 42.5223 149.048 42.9433 150.079C43.3644 151.111 44.173 152.008 45.2544 152.643C46.3357 153.279 47.6351 153.621 48.9683 153.621C50.3015 153.621 51.6009 153.279 52.6823 152.643C53.7637 152.008 54.5722 151.111 54.9933 150.079C55.4144 149.048 55.4266 147.935 55.0284 146.898C54.6301 145.861 53.8414 144.952 52.7743 144.301H102.374C102.529 144.301 102.682 144.27 102.819 144.211C102.956 144.153 103.074 144.068 103.162 143.964L109.404 136.612V143.321C107.82 143.509 106.382 144.179 105.377 145.195C104.373 146.211 103.876 147.499 103.987 148.801C104.098 150.103 104.808 151.323 105.975 152.216C107.142 153.11 108.68 153.611 110.28 153.62C111.881 153.628 113.427 153.143 114.608 152.262C115.789 151.381 116.519 150.169 116.65 148.869C116.782 147.568 116.306 146.275 115.318 145.248C114.33 144.221 112.902 143.536 111.321 143.331V134.15L116.609 93.1274C117.097 93.0451 117.542 92.8405 117.881 92.5423C118.22 92.2441 118.436 91.8671 118.5 91.4639L120.082 81.3865C120.154 80.9279 120.023 80.4635 119.714 80.0758C119.406 79.6882 118.938 79.4025 118.395 79.2695L120.09 66.1184H125.861C126.497 66.1184 127.106 65.9125 127.556 65.5461C128.005 65.1797 128.258 64.6828 128.258 64.1646V62.8156C128.258 62.2975 128.005 61.8005 127.556 61.4341C127.106 61.0677 126.497 60.8619 125.861 60.8619Z" fill="#3F3D56"/>
<path d="M202.379 139.985C202.609 140.013 202.845 139.983 203.055 139.899C203.264 139.814 203.436 139.679 203.548 139.512C203.66 139.345 203.706 139.154 203.681 138.965C203.655 138.776 203.559 138.597 203.405 138.454C203.388 138.359 203.376 138.291 203.359 138.196C203.64 137.755 204.076 137.393 204.612 137.155C205.147 136.918 205.757 136.816 206.364 136.863C206.97 136.91 207.546 137.104 208.017 137.419C208.488 137.735 208.832 138.158 209.006 138.634C210.02 141.31 211.418 144.109 210.192 146.857C217.163 137.483 216.796 125.052 209.443 115.901C207.246 114.655 205.594 112.634 205.379 110.432C206.492 110.849 208.029 110.207 207.289 109.142C206.961 108.731 206.63 108.323 206.302 107.912C211.173 104.481 215.628 110.906 210.145 115.631C211.517 117.379 212.66 119.238 213.557 121.18C213.547 119.198 214.113 117.243 215.21 115.476C216.303 113.834 218.124 112.528 219.754 111.167C221.737 109.509 225.234 110.65 225.175 112.964C223.504 113.259 223.05 115.144 224.865 115.562C223.834 119.788 219.911 123.418 214.961 124.888C216.19 129.015 216.326 133.308 215.36 137.481C216.823 132.632 223.453 131.991 228.231 130.421C228.539 130.295 228.885 130.245 229.227 130.276C229.569 130.308 229.892 130.419 230.158 130.598C230.423 130.777 230.619 131.015 230.721 131.282C230.824 131.55 230.828 131.837 230.734 132.107C230.083 132.261 229.452 132.467 228.85 132.722C228.568 132.844 228.339 133.035 228.195 133.267C228.051 133.499 227.998 133.762 228.044 134.02C228.09 134.277 228.233 134.517 228.453 134.706C228.673 134.895 228.959 135.023 229.272 135.075C226.399 139.485 220.102 142.074 214.045 141.54C213.198 143.553 212.096 145.489 210.759 147.317L201.764 146.551C201.743 146.466 201.724 146.38 201.706 146.296C202.533 146.409 203.374 146.44 204.21 146.387C202.28 144.073 200.716 142.844 202.378 139.985L202.379 139.985Z" fill="#F2F2F2"/>
<path d="M148.14 146.246C148.378 145.781 147.814 145.147 146.881 144.83C145.948 144.513 144.999 144.633 144.761 145.098C144.523 145.563 145.087 146.197 146.02 146.514C146.953 146.831 147.902 146.711 148.14 146.246Z" fill="#E6E6E6"/>
<path d="M157.896 151.784C158.134 151.319 157.57 150.685 156.637 150.368C155.704 150.051 154.755 150.171 154.517 150.637C154.279 151.102 154.843 151.736 155.776 152.053C156.709 152.37 157.658 152.25 157.896 151.784Z" fill="#3F3D56"/>
<path d="M140.812 150.8C141.05 150.335 140.486 149.701 139.553 149.384C138.62 149.067 137.671 149.187 137.433 149.652C137.195 150.117 137.759 150.751 138.692 151.068C139.625 151.385 140.574 151.265 140.812 150.8Z" fill="#FF6584"/>
<path d="M134.45 151.158C134.772 150.781 134.737 150.308 134.374 150.102C134.01 149.896 133.454 150.035 133.133 150.413C132.812 150.79 132.846 151.263 133.21 151.469C133.573 151.675 134.129 151.535 134.45 151.158Z" fill="#E6E6E6"/>
<path d="M129.493 154.93C129.815 154.552 129.78 154.079 129.417 153.873C129.053 153.668 128.498 153.807 128.176 154.184C127.855 154.562 127.889 155.035 128.253 155.24C128.616 155.446 129.172 155.307 129.493 154.93Z" fill="#3F3D56"/>
<path d="M147.348 152.574C147.669 152.197 147.635 151.724 147.271 151.518C146.908 151.312 146.352 151.451 146.031 151.829C145.709 152.206 145.743 152.679 146.107 152.885C146.471 153.091 147.026 152.952 147.348 152.574Z" fill="#E6E6E6"/>
<path d="M143.714 148.489C144.036 148.111 144.001 147.638 143.638 147.432C143.274 147.227 142.719 147.366 142.397 147.743C142.076 148.121 142.11 148.594 142.474 148.799C142.837 149.005 143.393 148.866 143.714 148.489Z" fill="#FF6584"/>
<path d="M153.125 148.501C153.447 148.123 153.413 147.65 153.049 147.445C152.685 147.239 152.13 147.378 151.808 147.755C151.487 148.133 151.521 148.606 151.885 148.812C152.249 149.017 152.804 148.878 153.125 148.501Z" fill="#3F3D56"/>
<path d="M88.0647 146.246C88.3025 145.781 87.7388 145.147 86.8057 144.83C85.8727 144.513 84.9235 144.633 84.6857 145.098C84.4479 145.563 85.0116 146.197 85.9447 146.514C86.8777 146.831 87.8269 146.711 88.0647 146.246Z" fill="#E6E6E6"/>
<path d="M97.8206 151.784C98.0583 151.319 97.4947 150.685 96.5616 150.368C95.6285 150.051 94.6794 150.171 94.4416 150.637C94.2038 151.102 94.7675 151.736 95.7005 152.053C96.6336 152.37 97.5828 152.25 97.8206 151.784Z" fill="#3F3D56"/>
<path d="M80.7367 150.8C80.9745 150.335 80.4108 149.701 79.4777 149.384C78.5447 149.067 77.5955 149.187 77.3577 149.652C77.1199 150.117 77.6836 150.751 78.6167 151.068C79.5497 151.385 80.4989 151.265 80.7367 150.8Z" fill="#FF6584"/>
<path d="M74.3748 151.158C74.6963 150.781 74.662 150.308 74.2983 150.102C73.9346 149.896 73.3792 150.035 73.0577 150.413C72.7362 150.79 72.7705 151.263 73.1342 151.469C73.4979 151.675 74.0534 151.535 74.3748 151.158Z" fill="#E6E6E6"/>
<path d="M69.4179 154.93C69.7394 154.552 69.7051 154.079 69.3414 153.873C68.9777 153.668 68.4223 153.807 68.1008 154.184C67.7793 154.562 67.8136 155.035 68.1773 155.24C68.541 155.446 69.0965 155.307 69.4179 154.93Z" fill="#3F3D56"/>
<path d="M87.2725 152.574C87.5939 152.197 87.5597 151.724 87.196 151.518C86.8323 151.312 86.2768 151.451 85.9554 151.829C85.6339 152.206 85.6681 152.679 86.0319 152.885C86.3956 153.091 86.951 152.952 87.2725 152.574Z" fill="#E6E6E6"/>
<path d="M83.6389 148.489C83.9604 148.111 83.9262 147.638 83.5624 147.432C83.1987 147.227 82.6433 147.366 82.3218 147.743C82.0003 148.121 82.0346 148.594 82.3983 148.799C82.762 149.005 83.3175 148.866 83.6389 148.489Z" fill="#FF6584"/>
<path d="M93.0501 148.501C93.3716 148.123 93.3373 147.65 92.9736 147.445C92.6099 147.239 92.0545 147.378 91.733 147.755C91.4115 148.133 91.4458 148.606 91.8095 148.812C92.1732 149.017 92.7287 148.878 93.0501 148.501Z" fill="#3F3D56"/>
<path d="M185.15 155.935C185.465 155.502 185.015 154.81 184.145 154.39C183.275 153.97 182.315 153.981 182 154.415C181.685 154.848 182.135 155.54 183.005 155.96C183.874 156.38 184.835 156.369 185.15 155.935Z" fill="#E6E6E6"/>
<path d="M176.436 149.342C176.751 148.909 176.302 148.217 175.432 147.797C174.562 147.377 173.602 147.388 173.287 147.822C172.972 148.255 173.421 148.947 174.291 149.367C175.161 149.787 176.121 149.776 176.436 149.342Z" fill="#3F3D56"/>
<path d="M193.185 152.259C193.5 151.825 193.05 151.133 192.18 150.713C191.311 150.293 190.35 150.304 190.035 150.738C189.72 151.172 190.17 151.864 191.04 152.284C191.909 152.703 192.87 152.692 193.185 152.259Z" fill="#FF6584"/>
<path d="M197.573 151.994C197.956 151.657 198.003 151.185 197.678 150.939C197.353 150.694 196.779 150.769 196.396 151.106C196.013 151.444 195.966 151.916 196.291 152.161C196.616 152.406 197.19 152.331 197.573 151.994Z" fill="#E6E6E6"/>
<path d="M203.126 148.823C203.509 148.485 203.556 148.013 203.231 147.768C202.906 147.523 202.332 147.597 201.95 147.935C201.567 148.272 201.52 148.744 201.845 148.989C202.17 149.234 202.744 149.16 203.126 148.823Z" fill="#3F3D56"/>
<path d="M185.043 149.126C185.426 148.789 185.473 148.317 185.148 148.072C184.823 147.826 184.249 147.901 183.867 148.238C183.484 148.576 183.437 149.048 183.762 149.293C184.087 149.538 184.661 149.463 185.043 149.126Z" fill="#E6E6E6"/>
<path d="M187.943 153.585C188.326 153.247 188.373 152.775 188.048 152.53C187.723 152.285 187.149 152.36 186.766 152.697C186.383 153.034 186.336 153.506 186.661 153.751C186.986 153.997 187.56 153.922 187.943 153.585Z" fill="#FF6584"/>
<path d="M178.626 152.503C179.009 152.166 179.055 151.694 178.731 151.448C178.406 151.203 177.832 151.278 177.449 151.615C177.066 151.952 177.019 152.425 177.344 152.67C177.669 152.915 178.243 152.84 178.626 152.503Z" fill="#3F3D56"/>
<path d="M207.549 23.2796C215.434 23.2796 221.827 18.0683 221.827 11.6398C221.827 5.21132 215.434 0 207.549 0C199.663 0 193.271 5.21132 193.271 11.6398C193.271 18.0683 199.663 23.2796 207.549 23.2796Z" fill="#F2F2F2"/>
<path d="M239.504 6.12816C238.681 3.87438 236.349 2.40091 233.531 2.07832C233.499 2.07614 233.467 2.07614 233.435 2.07832C233.396 2.06852 233.357 2.06122 233.317 2.05651C228.537 1.55084 223.221 2.78019 219.644 5.45683L219.604 5.48618C218.698 6.16997 217.592 6.65335 216.391 6.89038C215.191 7.12741 213.936 7.1102 212.746 6.84039C212.092 6.69314 211.413 6.63224 210.735 6.65999C209.288 6.73798 207.905 7.17792 206.776 7.91983C205.647 8.66173 204.826 9.6695 204.425 10.8057C204.381 10.9445 204.393 11.0913 204.459 11.224C204.526 11.3568 204.643 11.4685 204.794 11.5425C205.224 11.8423 205.735 12.0545 206.286 12.1615C207.468 12.3664 208.66 12.5538 209.853 12.7239C212.184 13.0552 214.528 13.324 216.884 13.5303C218.441 13.6655 220 13.773 221.563 13.8529C224.793 14.0186 228.039 14.0578 231.274 13.975C232.879 13.9314 234.419 13.8878 235.884 13.3124C236.952 12.8843 237.864 12.2367 238.531 11.4335C239.159 10.6609 239.571 9.78544 239.74 8.86884C239.908 7.95223 239.827 7.01672 239.504 6.12816Z" fill="#F2F2F2"/>
<path d="M210.131 23.0861C210.103 22.5984 210.003 22.1152 209.831 21.6475C209.002 19.3937 206.671 17.9202 203.853 17.5977C203.822 17.5955 203.792 17.5955 203.762 17.5977C203.721 17.5883 203.68 17.581 203.639 17.5759C200.993 17.3116 198.308 17.5366 195.783 18.2341C193.615 18.811 191.62 19.7545 189.929 21.0028C189.023 21.6873 187.917 22.1714 186.717 22.4089C185.516 22.6464 184.261 22.6294 183.071 22.3596C182.415 22.2124 181.735 22.1516 181.056 22.1793C179.609 22.2573 178.227 22.6973 177.098 23.4392C175.968 24.1811 175.147 25.1889 174.746 26.3251C174.705 26.4639 174.718 26.6099 174.784 26.7422C174.851 26.8745 174.966 26.9864 175.115 27.0618C175.546 27.3609 176.057 27.5729 176.607 27.6808C177.794 27.8857 178.982 28.0732 180.179 28.2432C182.511 28.5745 184.853 28.8433 187.206 29.0497C191.986 29.468 196.796 29.6166 201.601 29.4943C203.2 29.4507 204.746 29.4072 206.211 28.8317C207.277 28.4035 208.188 27.7559 208.852 26.9528C209.79 25.8141 210.239 24.4546 210.131 23.0861Z" fill="#F2F2F2"/>
<path d="M207.549 23.2796C215.434 23.2796 221.827 18.0683 221.827 11.6398C221.827 5.21132 215.434 0 207.549 0C199.663 0 193.271 5.21132 193.271 11.6398C193.271 18.0683 199.663 23.2796 207.549 23.2796Z" fill="#F2F2F2"/>
<path d="M239.504 6.12816C238.681 3.87438 236.349 2.40091 233.531 2.07832C233.499 2.07614 233.467 2.07614 233.435 2.07832C233.396 2.06852 233.357 2.06122 233.317 2.05651C228.537 1.55084 223.221 2.78019 219.644 5.45683L219.604 5.48618C218.698 6.16997 217.592 6.65335 216.391 6.89038C215.191 7.12741 213.936 7.1102 212.746 6.84039C212.092 6.69314 211.413 6.63224 210.735 6.65999C209.288 6.73798 207.905 7.17792 206.776 7.91983C205.647 8.66173 204.826 9.6695 204.425 10.8057C204.381 10.9445 204.393 11.0913 204.459 11.224C204.526 11.3568 204.643 11.4685 204.794 11.5425C205.224 11.8423 205.735 12.0545 206.286 12.1615C207.468 12.3664 208.66 12.5538 209.853 12.7239C212.184 13.0552 214.528 13.324 216.884 13.5303C218.441 13.6655 220 13.773 221.563 13.8529C224.793 14.0186 228.039 14.0578 231.274 13.975C232.879 13.9314 234.419 13.8878 235.884 13.3124C236.952 12.8843 237.864 12.2367 238.531 11.4335C239.159 10.6609 239.571 9.78544 239.74 8.86884C239.908 7.95223 239.827 7.01672 239.504 6.12816Z" fill="#E6E6E6"/>
<path d="M210.131 23.0861C210.103 22.5984 210.003 22.1152 209.831 21.6475C209.002 19.3937 206.671 17.9202 203.853 17.5977C203.822 17.5955 203.792 17.5955 203.762 17.5977C203.721 17.5883 203.68 17.581 203.639 17.5759C200.993 17.3116 198.308 17.5366 195.783 18.2341C193.615 18.811 191.62 19.7545 189.929 21.0028C189.023 21.6873 187.917 22.1714 186.717 22.4089C185.516 22.6464 184.261 22.6294 183.071 22.3596C182.415 22.2124 181.735 22.1516 181.056 22.1793C179.609 22.2573 178.227 22.6973 177.098 23.4392C175.968 24.1811 175.147 25.1889 174.746 26.3251C174.705 26.4639 174.718 26.6099 174.784 26.7422C174.851 26.8745 174.966 26.9864 175.115 27.0618C175.546 27.3609 176.057 27.5729 176.607 27.6808C177.794 27.8857 178.982 28.0732 180.179 28.2432C182.511 28.5745 184.853 28.8433 187.206 29.0497C191.986 29.468 196.796 29.6166 201.601 29.4943C203.2 29.4507 204.746 29.4072 206.211 28.8317C207.277 28.4035 208.188 27.7559 208.852 26.9528C209.79 25.8141 210.239 24.4546 210.131 23.0861Z" fill="#E6E6E6"/>
</g>
<defs>
<clipPath id="clip0_34_171">
<rect width="286" height="157" fill="white"/>
</clipPath>
</defs>
</svg>
