<svg width="30" height="30" viewBox="0 0 30 30" fill="none" xmlns="http://www.w3.org/2000/svg">
<circle cx="15" cy="15" r="14.5" stroke="black"/>
<path d="M14 2V0.999545C14 0.447261 14.4477 0 15 0H15.4C15.7314 0 16 0.268629 16 0.6V2C16 2.55228 15.5523 3 15 3C14.4477 3 14 2.55229 14 2Z" fill="black"/>
<path d="M2 16H0.999545C0.447261 16 0 15.5523 0 15L0 14.6C0 14.2686 0.268629 14 0.6 14H2C2.55228 14 3 14.4477 3 15C3 15.5523 2.55229 16 2 16Z" fill="black"/>
<path d="M29 16H27.9995C27.4473 16 27 15.5523 27 15V14.6C27 14.2686 27.2686 14 27.6 14H29C29.5523 14 30 14.4477 30 15C30 15.5523 29.5523 16 29 16Z" fill="black"/>
<path d="M14 29V27.9995C14 27.4473 14.4477 27 15 27H15.4C15.7314 27 16 27.2686 16 27.6V29C16 29.5523 15.5523 30 15 30C14.4477 30 14 29.5523 14 29Z" fill="black"/>
<path d="M14.6569 8.5C14.6569 8.22386 14.8807 8 15.1569 8C15.433 8 15.6569 8.22386 15.6569 8.5V15C15.6569 15.2761 15.433 15.5 15.1569 15.5C14.8807 15.5 14.6569 15.2761 14.6569 15V8.5Z" fill="black"/>
<path d="M15.2102 15.5C14.934 15.5 14.7102 15.2761 14.7102 15C14.7102 14.7239 14.934 14.5 15.2102 14.5L21.7102 14.5C21.9863 14.5 22.2102 14.7239 22.2102 15C22.2102 15.2761 21.9863 15.5 21.7102 15.5L15.2102 15.5Z" fill="black"/>
</svg>
