<svg width="33" height="33" viewBox="0 0 33 33" fill="none" xmlns="http://www.w3.org/2000/svg">
<g clip-path="url(#clip0_193_636)">
<path d="M32.7439 32.0284L17.1198 16.4036L32.6686 0.854727C32.8557 0.667946 32.8557 0.364428 32.6686 0.177318C32.4815 -0.00946245 32.1786 -0.00946245 31.9915 0.177318L16.4427 15.7262L0.894849 0.177318C0.707739 -0.00979129 0.404878 -0.00946245 0.217769 0.177318C0.0306593 0.364428 0.0306593 0.667617 0.217769 0.854727L15.7656 16.4036L0.14082 32.0284C-0.0462891 32.2155 -0.0462891 32.5187 0.14082 32.7058C0.234211 32.7992 0.356868 32.8462 0.479525 32.8462C0.602182 32.8462 0.72451 32.7992 0.818229 32.7058L16.443 17.081L32.0672 32.7058C32.1606 32.7992 32.2832 32.8462 32.4059 32.8462C32.5285 32.8462 32.6508 32.7992 32.7446 32.7058C32.931 32.5187 32.931 32.2155 32.7439 32.0284Z" fill="#231F20"/>
</g>
<defs>
<clipPath id="clip0_193_636">
<rect width="33" height="33" fill="white"/>
</clipPath>
</defs>
</svg>
