<svg width="93" height="90" viewBox="0 0 93 90" fill="none" xmlns="http://www.w3.org/2000/svg">
<path d="M88 31.9206C88 31.9206 75.5361 32.4169 66.0065 30.9279C66.0065 30.9279 46.7001 28.4463 1 29.4389C1.84555 24.8709 3.59369 20.5235 6.13924 16.6584C14.1222 4.63976 29.0407 -0.618868 40.9637 0.775821C41.6832 0.860198 42.2754 0.9545 42.6768 1.02399C45.0056 0.463093 47.3822 0.130674 49.7738 0.031325C58.7455 -0.340923 65.8768 2.68421 69.9344 4.87055C69.9148 4.87055 88 10.8265 88 31.9206Z" fill="#CFB171"/>
<path d="M3.3207 72.001H88.8141C88.8141 72.001 95.3546 71.7545 92.0843 79.0627C92.0843 79.0627 88.1121 85.8879 70.3594 89.1833C70.3594 89.1833 14.533 93.4204 1.91918 82.5924C1.91918 82.5998 -3.21977 74.3549 3.3207 72.001Z" fill="#CFB171"/>
<path d="M2.55457 64.9433C1.76734 66.9684 1.28571 69.667 4.94563 68.5565C5.51746 68.3844 6.01836 68.0389 6.37585 67.5702C7.30733 66.3499 9.58103 64.0669 11.6983 67.3028C12.0935 67.9196 12.7191 68.3619 13.4425 68.5357C14.1659 68.7096 14.9302 68.6014 15.5733 68.2341C15.9047 68.0388 16.2053 67.7974 16.4657 67.5177C16.6852 67.2806 16.9459 67.0834 17.2358 66.935C18.3873 66.3452 21.1891 65.3111 23.7342 67.4532C24.0077 67.6912 24.2354 67.9751 24.4065 68.2915C24.8148 69.0079 26.3771 70.4025 31.8413 66.2496C31.9818 66.1422 32.112 66.0222 32.23 65.8914C32.8314 65.2108 35.4083 62.8872 37.9656 69.1559C37.9656 69.1559 38.21 70.3094 45.1803 64.9027C45.5491 64.6121 45.9873 64.4173 46.454 64.3368C47.7351 64.129 50.1433 64.4323 52.1603 68.6545C52.2728 68.8821 52.355 69.1228 52.4048 69.3709C52.5197 69.9488 53.368 71.3076 59.4801 66.5314C59.4801 66.5314 63.2623 63.5296 68.5015 68.2031C68.6516 68.3393 68.7846 68.4924 68.8976 68.6592C69.3866 69.3756 71.4793 71.3435 77.2907 66.7607C77.4292 66.6457 77.5531 66.5151 77.6599 66.3714C77.9557 65.9893 79.1977 65.3541 84.0971 69.1512C84.4444 69.4282 84.8556 69.6184 85.2951 69.7052C86.3048 69.8891 87.6886 69.5189 86.6055 65.4592C86.491 65.036 86.2766 64.6448 85.9794 64.3172C85.6822 63.9896 85.3105 63.7345 84.8941 63.5726C84.2842 63.3602 83.7455 62.9885 83.3368 62.4979C83.0593 62.1163 82.6872 61.8096 82.2554 61.6066C81.8235 61.4037 81.346 61.311 80.8675 61.3373C78.2457 61.4863 75.62 61.1184 73.1467 60.2555C72.8328 60.1459 72.5021 60.0894 72.1688 60.0883H68.1348C67.4833 60.0874 66.851 60.3039 66.3428 60.7021C65.2157 61.5952 62.898 63.1236 60.458 62.954C60.458 62.954 58.5242 63.3743 56.0573 61.2609C55.6984 60.9499 55.2656 60.7316 54.7982 60.6256C53.3509 60.3104 50.0968 59.7253 47.4002 60.148C46.934 60.2178 46.4925 60.3982 46.1142 60.6734C45.0556 61.4543 41.8088 63.1021 35.3349 60.5564C34.9313 60.3967 34.4952 60.3313 34.0612 60.3653C31.2337 60.6322 28.4676 61.3359 25.8661 62.4501C25.4315 62.6312 24.9576 62.7034 24.4872 62.6603C23.0521 62.5194 19.8224 62.1182 17.429 61.0388C17.429 61.0388 15.8227 60.1432 13.7226 61.6048C13.5455 61.7267 13.3532 61.8262 13.1505 61.9009C12.2679 62.2376 9.97221 63.0424 8.4124 62.9708C8.21509 62.964 8.01759 62.9776 7.8232 63.0114C7.00734 63.1418 6.1797 63.1882 5.35391 63.1499C4.75344 63.123 4.1596 63.2818 3.65697 63.6039C3.15434 63.9259 2.76855 64.3946 2.55457 64.9433Z" fill="#00C26F"/>
<path d="M4.30157 57.1705C4.30157 57.1705 0.39882 55.9738 2.75754 49.7511C2.78242 49.6791 2.82737 49.6153 2.8873 49.5671C2.94723 49.5189 3.01974 49.4881 3.09659 49.4782C4.3162 49.3562 9.59465 48.7147 13.0315 46.4243C13.0656 46.4028 13.1025 46.3859 13.1413 46.374C13.9121 46.1682 21.9712 44.0525 24.7739 44.95H24.808C25.0837 45.0026 28.4912 45.6201 30.3694 44.7106C30.3903 44.7018 30.4099 44.6906 30.428 44.6771C30.7597 44.4546 33.9868 42.3675 37.4407 43.2411C37.4634 43.2434 37.4863 43.2434 37.509 43.2411L49.8953 43.9591H49.9319C50.5588 43.9328 67.7528 43.2555 70.3042 43.0018C70.3699 42.9956 70.4361 43.0055 70.4969 43.0305C71.1897 43.3177 75.5217 45.1654 76.4218 46.8814C76.4504 46.9371 76.4929 46.9848 76.5454 47.0199C76.5978 47.0551 76.6586 47.0766 76.7218 47.0825C78.0536 47.2309 85.0298 48.1978 85.9908 52.2378C86.0031 52.2962 86.0031 52.3565 85.9908 52.4149L85.0883 56.3927C85.0723 56.4658 85.035 56.5329 84.9809 56.5856C84.9267 56.6383 84.8581 56.6744 84.7834 56.6894C81.4188 57.2735 77.9548 56.9228 74.7826 55.6771H69.3359C69.234 55.6768 69.1361 55.7155 69.0627 55.7848C68.2309 56.5674 62.8671 61.2368 57.7081 56.3951C57.7081 56.3951 54.5372 54.7197 48.6831 55.9164C48.6831 55.9164 45.9999 59.5064 36.9748 55.9164C36.9748 55.9164 31.9354 55.8901 27.2594 58.3098C27.2594 58.3098 20.1565 57.4098 19.6686 56.6918C19.6686 56.6918 18.0904 55.4952 14.4877 57.8885C14.4877 57.8885 7.96039 59.8032 5.76509 58.6065C5.76509 58.6065 5.76509 57.6492 4.30157 57.1705Z" fill="#7F6000"/>
<path d="M1.14851 36.5407C4.41543 35.899 14.4271 34.0007 16.2028 34.4974C16.2906 34.5215 16.382 34.5298 16.4726 34.522C18.165 34.3892 32.1205 33.2802 33.6559 32.3655C33.7236 32.3259 33.7973 32.2976 33.8741 32.2819C34.5952 32.1147 37.8965 31.527 44.911 32.7958C44.9708 32.8082 45.0315 32.8156 45.0925 32.8179L60.944 33.5507H67.6593C67.7591 33.5503 67.8587 33.561 67.9561 33.5827C68.8857 33.7843 73.9994 34.8761 75.0467 34.5859C75.1925 34.5495 75.3431 34.5362 75.4931 34.5466C77.1682 34.6203 84.8131 35.1096 85.9095 37.8317C85.9518 37.9403 85.9774 38.0547 85.9855 38.171C86.0566 38.9529 86.0321 41.7782 81.7915 40.9275L75.5544 39.4841C75.4612 39.4615 75.3657 39.4499 75.2699 39.4496C74.1122 39.4226 66.3521 39.2824 63.7425 40.1529C63.6726 40.1769 63.6002 40.1926 63.5266 40.1996C62.4892 40.2783 54.5156 40.8537 51.6951 39.9685C51.6437 39.9519 51.5912 39.9388 51.5381 39.9291C50.557 39.7472 40.9917 38.0284 35.1863 38.9603C35.1863 38.9603 20.0314 41.5717 16.7105 41.1955C16.5876 41.1796 16.4631 41.1796 16.3402 41.1955C14.4639 41.5127 0.336677 43.7356 0.115939 39.0587C0.113798 38.9936 0.103076 38.9291 0.084053 38.8669C0.0109147 38.5445 -0.014701 38.2131 0.0080216 37.8833C0.0187072 37.5632 0.137292 37.2562 0.344422 37.0124C0.551552 36.7685 0.835002 36.6023 1.14851 36.5407Z" fill="#E90048"/>
<path d="M21.188 13.3608L21.6341 13.0323C21.6827 13.0112 21.7392 13 21.7969 13C21.8546 13 21.9111 13.0112 21.9596 13.0323L22.0561 13.2792C22.0684 13.3093 22.0901 13.3373 22.1198 13.3612C22.1494 13.3852 22.1863 13.4045 22.2279 13.418C22.5143 13.5078 23.0478 13.6547 22.9966 13.7792C22.9272 13.9424 22.7192 13.9832 22.3937 13.9832C22.0871 14.0219 21.7703 13.9933 21.4894 13.9016C21.0524 13.7506 20.8082 13.5527 21.188 13.3608Z" fill="#E8DDC9"/>
<path d="M26.188 7.36085L26.6341 7.03231C26.6827 7.01121 26.7392 7 26.7969 7C26.8546 7 26.9111 7.01121 26.9596 7.03231L27.0561 7.27922C27.0684 7.30932 27.0901 7.3373 27.1198 7.36123C27.1494 7.38517 27.1863 7.40453 27.2279 7.41799C27.5143 7.50778 28.0478 7.6547 27.9966 7.77918C27.9272 7.94243 27.7192 7.98324 27.3937 7.98324C27.0871 8.02189 26.7703 7.9933 26.4894 7.90162C26.0524 7.75062 25.8082 7.55267 26.188 7.36085Z" fill="#E8DDC9"/>
<path d="M34.0942 7.36109L34.3121 7.03189C34.3349 7.01131 34.3638 7 34.3937 7C34.4237 7 34.4526 7.01131 34.4754 7.03189L34.5255 7.27994C34.5299 7.3078 34.5397 7.33437 34.5544 7.35793C34.569 7.3815 34.5881 7.40153 34.6105 7.41673C34.7564 7.50714 35.0244 7.64856 34.9982 7.77838C34.9634 7.94298 34.8588 7.9824 34.6954 7.9824C34.6173 8.00229 34.5361 8.00536 34.4568 7.99142C34.3775 7.97749 34.3017 7.94684 34.2336 7.90126C34.0267 7.74825 33.9047 7.55119 34.0942 7.36109Z" fill="#E8DDC9"/>
<path d="M42.0942 7.36109L42.3121 7.03189C42.3349 7.01131 42.3638 7 42.3937 7C42.4237 7 42.4526 7.01131 42.4754 7.03189L42.5255 7.27994C42.5299 7.3078 42.5397 7.33437 42.5544 7.35793C42.569 7.3815 42.5881 7.40153 42.6105 7.41673C42.7564 7.50714 43.0244 7.64856 42.9982 7.77838C42.9634 7.94298 42.8588 7.9824 42.6954 7.9824C42.6173 8.00229 42.5361 8.00536 42.4568 7.99142C42.3775 7.97749 42.3017 7.94684 42.2336 7.90126C42.0267 7.74825 41.9047 7.55119 42.0942 7.36109Z" fill="#E8DDC9"/>
<path d="M11.188 16.3608L11.6341 16.0323C11.6827 16.0112 11.7392 16 11.7969 16C11.8546 16 11.9111 16.0112 11.9596 16.0323L12.0561 16.2792C12.0684 16.3093 12.0901 16.3373 12.1198 16.3612C12.1494 16.3852 12.1863 16.4045 12.2279 16.418C12.5143 16.5078 13.0478 16.6547 12.9966 16.7792C12.9272 16.9424 12.7192 16.9832 12.3937 16.9832C12.0871 17.0219 11.7703 16.9933 11.4894 16.9016C11.0524 16.7506 10.8082 16.5527 11.188 16.3608Z" fill="#E8DDC9"/>
<path d="M20.188 21.3608L20.6341 21.0323C20.6827 21.0112 20.7392 21 20.7969 21C20.8546 21 20.9111 21.0112 20.9596 21.0323L21.0561 21.2792C21.0684 21.3093 21.0901 21.3373 21.1198 21.3612C21.1494 21.3852 21.1863 21.4045 21.2279 21.418C21.5143 21.5078 22.0478 21.6547 21.9966 21.7792C21.9272 21.9424 21.7192 21.9832 21.3937 21.9832C21.0871 22.0219 20.7703 21.9933 20.4894 21.9016C20.0524 21.7506 19.8082 21.5527 20.188 21.3608Z" fill="#E8DDC9"/>
<path d="M62.188 11.3608L62.6341 11.0323C62.6827 11.0112 62.7392 11 62.7969 11C62.8546 11 62.9111 11.0112 62.9596 11.0323L63.0561 11.2792C63.0684 11.3093 63.0901 11.3373 63.1198 11.3612C63.1494 11.3852 63.1863 11.4045 63.2279 11.418C63.5143 11.5078 64.0478 11.6547 63.9966 11.7792C63.9272 11.9424 63.7192 11.9832 63.3937 11.9832C63.0871 12.0219 62.7703 11.9933 62.4894 11.9016C62.0524 11.7506 61.8082 11.5527 62.188 11.3608Z" fill="#E8DDC9"/>
<path d="M66.094 15.3608L66.3171 15.0323C66.3413 15.0112 66.3696 15 66.3984 15C66.4273 15 66.4555 15.0112 66.4798 15.0323L66.5281 15.2792C66.5342 15.3093 66.5451 15.3373 66.5599 15.3612C66.5747 15.3852 66.5931 15.4045 66.614 15.418C66.7571 15.5078 67.0239 15.6547 66.9983 15.7792C66.9636 15.9424 66.8596 15.9832 66.6969 15.9832C66.5436 16.0219 66.3852 15.9933 66.2447 15.9016C66.0262 15.7506 65.9041 15.5527 66.094 15.3608Z" fill="#E8DDC9"/>
<path d="M74.094 16.3608L74.317 16.0323C74.3413 16.0112 74.3696 16 74.3984 16C74.4273 16 74.4555 16.0112 74.4798 16.0323L74.528 16.2792C74.5342 16.3093 74.545 16.3373 74.5599 16.3612C74.5747 16.3852 74.5931 16.4045 74.6139 16.418C74.7646 16.5078 75.0239 16.6547 74.9982 16.7792C74.9636 16.9424 74.8596 16.9832 74.6968 16.9832C74.5435 17.0219 74.3851 16.9933 74.2447 16.9016C74.0262 16.7506 73.9041 16.5527 74.094 16.3608Z" fill="#E8DDC9"/>
<path d="M59.188 24.7217L59.6341 24.0646C59.6827 24.0224 59.7392 24 59.7969 24C59.8546 24 59.9111 24.0224 59.9596 24.0646L60.0561 24.5584C60.0684 24.6186 60.0901 24.6746 60.1198 24.7225C60.1494 24.7703 60.1863 24.8091 60.2279 24.836C60.5143 25.0156 61.0478 25.3094 60.9966 25.5584C60.9272 25.8849 60.7192 25.9665 60.3937 25.9665C60.0871 26.0438 59.7703 25.9866 59.4894 25.8032C59.0524 25.5012 58.8082 25.1053 59.188 24.7217Z" fill="#E8DDC9"/>
<path d="M74.094 23.3608L74.317 23.0323C74.3413 23.0112 74.3696 23 74.3984 23C74.4273 23 74.4555 23.0112 74.4798 23.0323L74.528 23.2792C74.5342 23.3093 74.545 23.3373 74.5599 23.3612C74.5747 23.3852 74.5931 23.4045 74.6139 23.418C74.7646 23.5078 75.0239 23.6547 74.9982 23.7792C74.9636 23.9424 74.8596 23.9832 74.6968 23.9832C74.5435 24.0219 74.3851 23.9933 74.2447 23.9016C74.0262 23.7506 73.9041 23.5527 74.094 23.3608Z" fill="#E8DDC9"/>
<path d="M54.188 17.7217L54.6341 17.0646C54.6827 17.0224 54.7392 17 54.7969 17C54.8546 17 54.9111 17.0224 54.9596 17.0646L55.0561 17.5584C55.0684 17.6186 55.0901 17.6746 55.1198 17.7225C55.1494 17.7703 55.1863 17.8091 55.2279 17.836C55.5143 18.0156 56.0478 18.3094 55.9966 18.5584C55.9272 18.8849 55.7192 18.9665 55.3937 18.9665C55.0871 19.0438 54.7703 18.9866 54.4894 18.8032C54.0524 18.5012 53.8082 18.1053 54.188 17.7217Z" fill="#E8DDC9"/>
<path d="M47.188 21.3608L47.6341 21.0323C47.6827 21.0112 47.7392 21 47.7969 21C47.8546 21 47.9111 21.0112 47.9596 21.0323L48.0561 21.2792C48.0684 21.3093 48.0901 21.3373 48.1198 21.3612C48.1494 21.3852 48.1863 21.4045 48.2279 21.418C48.5143 21.5078 49.0478 21.6547 48.9966 21.7792C48.9272 21.9424 48.7192 21.9832 48.3937 21.9832C48.0871 22.0219 47.7703 21.9933 47.4894 21.9016C47.0524 21.7506 46.8082 21.5527 47.188 21.3608Z" fill="#E8DDC9"/>
<path d="M31.188 14.3608L31.6341 14.0323C31.6827 14.0112 31.7392 14 31.7969 14C31.8546 14 31.9111 14.0112 31.9596 14.0323L32.0561 14.2792C32.0684 14.3093 32.0901 14.3373 32.1198 14.3612C32.1494 14.3852 32.1863 14.4045 32.2279 14.418C32.5143 14.5078 33.0478 14.6547 32.9966 14.7792C32.9272 14.9424 32.7192 14.9832 32.3937 14.9832C32.0871 15.0219 31.7703 14.9933 31.4894 14.9016C31.0524 14.7506 30.8082 14.5527 31.188 14.3608Z" fill="#E8DDC9"/>
<path d="M52.094 10.3608L52.3171 10.0323C52.3413 10.0112 52.3696 10 52.3984 10C52.4273 10 52.4555 10.0112 52.4798 10.0323L52.5281 10.2792C52.5342 10.3093 52.5451 10.3373 52.5599 10.3612C52.5747 10.3852 52.5931 10.4045 52.614 10.418C52.7571 10.5078 53.0239 10.6547 52.9983 10.7792C52.9636 10.9424 52.8596 10.9832 52.6969 10.9832C52.5436 11.0219 52.3852 10.9933 52.2447 10.9016C52.0262 10.7506 51.9041 10.5527 52.094 10.3608Z" fill="#E8DDC9"/>
<path d="M42.188 14.3608L42.6341 14.0323C42.6827 14.0112 42.7392 14 42.7969 14C42.8546 14 42.9111 14.0112 42.9596 14.0323L43.0561 14.2792C43.0684 14.3093 43.0901 14.3373 43.1198 14.3612C43.1494 14.3852 43.1863 14.4045 43.2279 14.418C43.5143 14.5078 44.0478 14.6547 43.9966 14.7792C43.9272 14.9424 43.7192 14.9832 43.3937 14.9832C43.0871 15.0219 42.7703 14.9933 42.4894 14.9016C42.0524 14.7506 41.8082 14.5527 42.188 14.3608Z" fill="#E8DDC9"/>
<path d="M36.188 20.3608L36.6341 20.0323C36.6827 20.0112 36.7392 20 36.7969 20C36.8546 20 36.9111 20.0112 36.9596 20.0323L37.0561 20.2792C37.0684 20.3093 37.0901 20.3373 37.1198 20.3612C37.1494 20.3852 37.1863 20.4045 37.2279 20.418C37.5143 20.5078 38.0478 20.6547 37.9966 20.7792C37.9272 20.9424 37.7192 20.9832 37.3937 20.9832C37.0871 21.0219 36.7703 20.9933 36.4894 20.9016C36.0524 20.7506 35.8082 20.5527 36.188 20.3608Z" fill="#E8DDC9"/>
</svg>
