<svg width="21" height="21" viewBox="0 0 21 21" fill="none" xmlns="http://www.w3.org/2000/svg">
<g clip-path="url(#clip0_69_10)">
<path d="M14.4375 0H6.5625C2.93869 0 0 2.93869 0 6.5625V14.4375C0 18.0613 2.93869 21 6.5625 21H14.4375C18.0613 21 21 18.0613 21 14.4375V6.5625C21 2.93869 18.0613 0 14.4375 0ZM19.0312 14.4375C19.0312 16.9706 16.9706 19.0312 14.4375 19.0312H6.5625C4.02938 19.0312 1.96875 16.9706 1.96875 14.4375V6.5625C1.96875 4.02938 4.02938 1.96875 6.5625 1.96875H14.4375C16.9706 1.96875 19.0312 4.02938 19.0312 6.5625V14.4375Z" fill="url(#paint0_linear_69_10)"/>
<path d="M10.5 5.25C7.60069 5.25 5.25 7.60069 5.25 10.5C5.25 13.3993 7.60069 15.75 10.5 15.75C13.3993 15.75 15.75 13.3993 15.75 10.5C15.75 7.60069 13.3993 5.25 10.5 5.25ZM10.5 13.7812C8.69138 13.7812 7.21875 12.3086 7.21875 10.5C7.21875 8.69006 8.69138 7.21875 10.5 7.21875C12.3086 7.21875 13.7812 8.69006 13.7812 10.5C13.7812 12.3086 12.3086 13.7812 10.5 13.7812Z" fill="url(#paint1_linear_69_10)"/>
<path d="M16.1437 5.55586C16.5301 5.55586 16.8433 5.24266 16.8433 4.8563C16.8433 4.46994 16.5301 4.15674 16.1437 4.15674C15.7574 4.15674 15.4442 4.46994 15.4442 4.8563C15.4442 5.24266 15.7574 5.55586 16.1437 5.55586Z" fill="url(#paint2_linear_69_10)"/>
</g>
<defs>
<linearGradient id="paint0_linear_69_10" x1="1.92235" y1="19.0778" x2="19.0776" y2="1.92222" gradientUnits="userSpaceOnUse">
<stop stop-color="#FFC107"/>
<stop offset="0.507" stop-color="#F44336"/>
<stop offset="0.99" stop-color="#9C27B0"/>
</linearGradient>
<linearGradient id="paint1_linear_69_10" x1="6.78779" y1="14.2122" x2="14.2122" y2="6.78779" gradientUnits="userSpaceOnUse">
<stop stop-color="#FFC107"/>
<stop offset="0.507" stop-color="#F44336"/>
<stop offset="0.99" stop-color="#9C27B0"/>
</linearGradient>
<linearGradient id="paint2_linear_69_10" x1="15.6491" y1="5.35105" x2="16.6384" y2="4.36168" gradientUnits="userSpaceOnUse">
<stop stop-color="#FFC107"/>
<stop offset="0.507" stop-color="#F44336"/>
<stop offset="0.99" stop-color="#9C27B0"/>
</linearGradient>
<clipPath id="clip0_69_10">
<rect width="21" height="21" fill="white"/>
</clipPath>
</defs>
</svg>
