<svg width="30" height="30" viewBox="0 0 30 30" fill="none" xmlns="http://www.w3.org/2000/svg">
<circle cx="15" cy="15" r="14.5" stroke="black"/>
<path d="M18.1246 16.78C18.1246 15.172 16.6966 14.788 15.3406 14.464V11.284C16.0366 11.32 16.8046 11.548 17.4766 11.98L17.7766 11.272C17.1406 10.828 16.2406 10.564 15.3406 10.528V9.16H14.7406V10.54C12.9046 10.684 12.0766 11.68 12.0766 12.832C12.0766 14.416 13.4206 14.824 14.7406 15.148V18.304C13.7326 18.244 12.7726 17.836 12.2206 17.296L11.8726 17.98C12.4606 18.58 13.5646 19.012 14.7406 19.072V20.44H15.3406V19.06C17.2486 18.952 18.1246 17.944 18.1246 16.78ZM12.9526 12.808C12.9526 12.052 13.5046 11.416 14.7406 11.308V14.308C13.7566 14.056 12.9526 13.72 12.9526 12.808ZM15.3406 18.304V15.304C16.3726 15.556 17.2486 15.88 17.2486 16.828C17.2486 17.596 16.6606 18.208 15.3406 18.304Z" fill="black"/>
</svg>
